<svg version="1.1" id="Layer_1" xmlns="http://www.w3.org/2000/svg" xmlns:xlink="http://www.w3.org/1999/xlink" x="0px" y="0px"
	 width="100%" viewBox="0 0 2550 3300" enable-background="new 0 0 2550 3300" xml:space="preserve">
<path fill="#000000" opacity="1.000000" stroke="none" 
	d="
M1282.000000,3302.000000 
	C854.666748,3302.000000 428.333496,3302.000000 2.000172,3302.000000 
	C2.000114,2202.000244 2.000114,1102.000488 2.000057,2.000614 
	C851.999573,2.000410 1701.999146,2.000410 2551.999023,2.000205 
	C2551.999512,1101.999390 2551.999512,2201.998779 2551.999756,3301.999023 
	C2129.000000,3302.000000 1706.000000,3302.000000 1282.000000,3302.000000 
M897.133606,1315.984009 
	C893.803711,1315.886108 890.473755,1315.702759 887.143860,1315.702515 
	C673.552307,1315.686157 459.960785,1315.648926 246.369263,1315.722900 
	C216.113144,1315.733276 187.500656,1322.884277 161.895279,1339.193604 
	C111.886093,1371.046631 84.605690,1416.748413 84.515465,1476.309570 
	C84.095993,1753.211548 84.307816,2030.114502 84.435158,2307.017090 
	C84.439255,2315.938721 85.220871,2325.006104 86.915382,2333.758545 
	C101.526299,2409.227295 165.115128,2465.456787 247.505478,2465.563232 
	C462.429504,2465.841309 677.354187,2465.659912 892.278564,2465.636963 
	C898.940430,2465.636230 905.602234,2465.364258 914.105286,2465.184326 
	C973.427551,2465.344238 1032.749756,2465.636230 1092.072021,2465.642334 
	C1487.013794,2465.683838 1881.955444,2465.692627 2276.897217,2465.524658 
	C2288.780518,2465.519531 2300.814453,2464.303711 2312.520508,2462.210205 
	C2386.739990,2448.937988 2443.517822,2383.358643 2443.579346,2305.521240 
	C2443.796631,2030.228516 2443.674316,1754.935669 2443.609863,1479.642822 
	C2443.608154,1472.359863 2443.171143,1465.032227 2442.304688,1457.801392 
	C2436.032227,1405.451538 2409.807129,1365.808472 2365.352539,1337.973022 
	C2336.742188,1320.058228 2304.923828,1314.415405 2271.825195,1314.411621 
	C1842.221924,1314.363892 1412.618652,1314.347900 983.015320,1314.453613 
	C955.069885,1314.460571 927.124634,1315.524048 897.133606,1315.984009 
z"/>
<path fill="#7A00EC" opacity="1.000000" stroke="none" 
	d="
M899.179321,1316.096069 
	C927.124634,1315.524048 955.069885,1314.460571 983.015320,1314.453613 
	C1412.618652,1314.347900 1842.221924,1314.363892 2271.825195,1314.411621 
	C2304.923828,1314.415405 2336.742188,1320.058228 2365.352539,1337.973022 
	C2409.807129,1365.808472 2436.032227,1405.451538 2442.304688,1457.801392 
	C2443.171143,1465.032227 2443.608154,1472.359863 2443.609863,1479.642822 
	C2443.674316,1754.935669 2443.796631,2030.228516 2443.579346,2305.521240 
	C2443.517822,2383.358643 2386.739990,2448.937988 2312.520508,2462.210205 
	C2300.814453,2464.303711 2288.780518,2465.519531 2276.897217,2465.524658 
	C1881.955444,2465.692627 1487.013794,2465.683838 1092.072021,2465.642334 
	C1032.749756,2465.636230 973.427551,2465.344238 912.420532,2464.947998 
	C843.513550,2457.709229 796.349731,2423.581055 771.294434,2360.722412 
	C774.750610,2360.159668 777.229065,2359.751465 779.942627,2359.304443 
	C779.942627,2354.797119 779.939819,2351.144043 779.943481,2347.490967 
	C779.946899,2344.162109 779.990540,2340.832764 779.956177,2337.504150 
	C779.915527,2333.561279 781.731873,2330.633789 785.684631,2331.243408 
	C787.281494,2331.489746 788.778259,2334.829102 789.577759,2337.030762 
	C790.220825,2338.802002 789.759888,2340.979248 789.762817,2342.976318 
	C789.771057,2348.532959 789.765686,2354.089355 789.765686,2359.648682 
	C795.114685,2359.648682 799.201782,2359.648682 803.978760,2359.648682 
	C803.978760,2352.281006 803.992737,2345.670166 803.971252,2339.059326 
	C803.963684,2336.730225 804.056641,2334.379150 803.782959,2332.076172 
	C802.299805,2319.596924 793.556641,2315.263184 782.394287,2321.429443 
	C781.025146,2322.185791 779.748840,2323.110352 778.192444,2324.109131 
	C773.047302,2318.441650 767.173584,2317.316162 760.435425,2318.430420 
	C760.201782,2272.432617 760.098389,2227.456299 760.027893,2182.479980 
	C760.026917,2181.867432 760.439941,2181.254150 760.431091,2181.278809 
	C877.605713,2107.667236 943.318848,2003.613647 943.288086,1864.570679 
	C943.257324,1725.535522 877.398987,1621.573853 760.188049,1547.904297 
	C760.099487,1545.961060 759.877319,1543.322632 759.874878,1540.684082 
	C759.854431,1518.693237 759.727844,1496.701294 759.908936,1474.711914 
	C760.521667,1400.332642 812.044067,1336.403809 884.736328,1319.637695 
	C889.565979,1318.523804 894.365662,1317.279541 899.179321,1316.096069 
M1389.047119,1848.000366 
	C1379.283203,1814.789185 1369.568481,1781.563477 1359.728638,1748.374756 
	C1356.340454,1736.946411 1352.641235,1725.610352 1348.991089,1713.935059 
	C1299.098389,1713.935059 1249.609985,1713.935059 1200.059448,1713.935059 
	C1170.611694,1825.711426 1141.314331,1936.917358 1111.761841,2049.091309 
	C1146.604736,2049.091309 1179.810669,2049.091309 1213.378662,2049.091309 
	C1214.297607,2046.921875 1215.497681,2044.892944 1216.031738,2042.701782 
	C1220.286743,2025.243530 1224.506104,2007.775391 1228.548096,1990.266724 
	C1230.852295,1980.285645 1230.728516,1980.149536 1240.925415,1980.131714 
	C1267.257568,1980.085815 1293.589600,1980.103271 1319.921753,1980.105835 
	C1329.018311,1980.106689 1329.136353,1980.086670 1331.599854,1988.722168 
	C1336.533081,2006.014526 1341.283447,2023.359009 1346.190186,2040.659058 
	C1348.681396,2049.442627 1348.760498,2049.593262 1357.756592,2049.604980 
	C1384.754883,2049.640137 1411.753662,2049.557861 1438.751709,2049.422607 
	C1441.197998,2049.410400 1443.640747,2048.687256 1446.341553,2048.253174 
	C1444.580566,2040.686279 1443.043091,2034.078979 1441.154419,2025.963135 
	C1445.003540,2027.446289 1447.134155,2028.122925 1449.141846,2029.062012 
	C1504.213867,2054.821777 1560.005737,2058.130371 1616.501709,2034.059937 
	C1643.474121,2022.568115 1666.232178,2005.834717 1681.099365,1979.777222 
	C1682.073730,1978.069580 1684.041260,1976.928711 1686.344360,1974.780151 
	C1686.344360,1988.411743 1686.153687,2000.595093 1686.397949,2012.769775 
	C1686.641357,2024.898438 1685.508301,2037.128174 1687.132446,2049.292480 
	C1690.824829,2049.573730 1693.126343,2049.900635 1695.428223,2049.902100 
	C1735.759888,2049.929199 1776.091675,2049.932861 1816.423340,2049.881592 
	C1819.742920,2049.877441 1823.112915,2049.733398 1826.373779,2049.164307 
	C1868.985107,2041.723999 1906.491089,2024.791382 1934.765747,1990.709473 
	C1936.457275,1988.670532 1938.761475,1987.139893 1940.780762,1985.372803 
	C1941.497803,1985.835938 1942.214966,1986.299072 1942.932007,1986.762207 
	C1937.892700,2006.894897 1932.853394,2027.027588 1927.417725,2048.743164 
	C1960.423950,2049.967773 1992.156250,2049.387939 2024.433105,2049.379639 
	C2030.932251,2025.864014 2037.187378,2003.230957 2043.281738,1981.179443 
	C2045.617310,1980.673462 2046.582153,1980.283325 2047.547729,1980.281250 
	C2075.878906,1980.220337 2104.210693,1980.294189 2132.540283,1980.084961 
	C2137.890137,1980.045410 2140.055908,1982.335938 2141.511230,1987.219482 
	C2146.835205,2005.085815 2152.561035,2022.832520 2158.162598,2040.615723 
	C2160.855957,2049.166016 2160.972900,2049.348389 2170.039795,2049.384521 
	C2195.703857,2049.487061 2221.368408,2049.491455 2247.032715,2049.493896 
	C2250.231689,2049.494141 2253.430664,2049.247070 2258.358398,2049.042969 
	C2224.587402,1936.229736 2191.266113,1824.918701 2158.067871,1714.018799 
	C2106.847412,1714.018799 2056.999268,1714.018799 2007.158447,1714.018799 
	C2002.828247,1731.476807 1998.709473,1748.258667 1994.496460,1765.016846 
	C1990.354980,1781.490601 1986.396729,1798.018066 1981.844482,1814.379150 
	C1977.294312,1830.732788 1975.932739,1848.017456 1967.764771,1863.639526 
	C1965.854492,1859.176514 1965.460083,1854.691528 1964.396973,1850.371094 
	C1961.306030,1837.810547 1959.358398,1824.727417 1954.429077,1812.905518 
	C1939.583740,1777.302490 1915.000610,1749.703247 1880.938477,1731.388428 
	C1859.929199,1720.092041 1837.503662,1713.058472 1813.111938,1713.263916 
	C1774.449707,1713.589600 1735.782471,1713.325684 1697.117432,1713.311523 
	C1693.873413,1713.310303 1690.629517,1713.311157 1686.791260,1713.311157 
	C1686.791260,1774.952637 1686.791260,1835.491333 1686.791260,1896.030151 
	C1685.999756,1896.266357 1685.208252,1896.502686 1684.416748,1896.739014 
	C1682.674316,1893.814331 1680.751221,1890.981079 1679.220093,1887.949707 
	C1671.534424,1872.734253 1661.049927,1859.774780 1646.153320,1851.443481 
	C1635.182129,1845.307373 1623.418335,1840.406616 1611.630981,1835.951904 
	C1590.541870,1827.982422 1568.200317,1826.086060 1545.968994,1824.096802 
	C1538.198608,1823.401611 1530.688110,1822.336914 1524.416260,1817.311646 
	C1514.413452,1809.297119 1516.293701,1794.513794 1528.246460,1789.784668 
	C1533.408081,1787.742432 1539.198853,1786.714600 1544.770996,1786.394775 
	C1560.830200,1785.473267 1576.739136,1786.880737 1592.248047,1791.473755 
	C1604.629639,1795.140381 1616.987061,1798.888306 1630.151367,1802.839111 
	C1642.389404,1780.087158 1654.594849,1757.395630 1666.995361,1734.341675 
	C1659.914307,1728.161133 1652.069824,1726.270020 1644.732300,1723.423462 
	C1627.185913,1716.616333 1609.259277,1712.401001 1590.156372,1713.159058 
	C1572.518066,1713.858887 1554.804321,1713.912842 1537.171143,1713.152832 
	C1517.275513,1712.295166 1499.019165,1717.042480 1481.201050,1725.422974 
	C1451.674561,1739.310303 1430.972168,1760.724731 1420.518921,1792.050171 
	C1406.050415,1835.408081 1425.653931,1882.774902 1466.923828,1902.293579 
	C1484.445923,1910.580688 1502.615356,1917.107300 1521.838867,1920.263306 
	C1531.038452,1921.773560 1540.292603,1922.954102 1549.485474,1924.500610 
	C1564.776489,1927.072998 1571.428101,1936.937012 1568.032349,1951.714478 
	C1565.270874,1963.731812 1554.210938,1971.103271 1540.610840,1969.578613 
	C1529.352661,1968.316284 1518.227417,1966.382202 1507.825317,1961.446533 
	C1493.395630,1954.599609 1478.886963,1947.918457 1464.389160,1941.215576 
	C1461.757935,1939.999146 1459.017700,1939.018677 1455.907349,1937.759033 
	C1446.245239,1951.278687 1440.013916,1966.429077 1428.477539,1980.557373 
	C1426.500000,1974.831421 1425.089111,1971.201050 1423.989014,1967.478882 
	C1420.119385,1954.384888 1416.377075,1941.253296 1412.548584,1928.147095 
	C1404.892822,1901.939209 1397.212036,1875.738770 1389.047119,1848.000366 
M974.228699,2360.400635 
	C975.699707,2359.456543 978.431946,2358.531250 978.446411,2357.565186 
	C978.589966,2347.958252 978.933777,2338.274658 977.906250,2328.754395 
	C977.041504,2320.742920 970.412476,2317.105469 962.497070,2318.968750 
	C959.841248,2319.593750 957.269226,2320.574951 953.658936,2321.706787 
	C953.658936,2315.031006 953.658936,2309.545166 953.658936,2304.167480 
	C948.738037,2304.167480 944.614990,2304.167480 940.043640,2304.167480 
	C940.043640,2321.825928 940.032104,2338.739990 940.066895,2355.654053 
	C940.069519,2356.919922 940.403687,2358.185303 940.649902,2359.916016 
	C945.070862,2359.916016 949.252930,2359.916016 954.252380,2359.916016 
	C954.252380,2352.520508 954.362488,2345.603516 954.211609,2338.692627 
	C954.119629,2334.476074 955.433411,2331.149658 959.940613,2330.990723 
	C964.836121,2330.817627 964.370178,2335.027832 964.432129,2338.229980 
	C964.566406,2345.171875 964.473511,2352.118164 964.473511,2359.641357 
	C967.520630,2359.935059 970.084839,2360.182129 974.228699,2360.400635 
M898.037842,2337.500000 
	C897.977722,2335.508301 898.109436,2333.489014 897.825989,2331.529785 
	C896.147583,2319.927979 888.665527,2315.794434 877.772888,2320.396484 
	C876.017517,2321.137939 874.317444,2322.010254 872.714050,2322.764404 
	C868.657471,2318.147949 864.365967,2319.109863 859.999878,2320.570068 
	C859.999878,2333.927246 859.999878,2346.756104 859.999878,2359.698730 
	C864.702515,2359.698730 868.806580,2359.698730 873.700623,2359.698730 
	C873.700623,2356.375000 873.697083,2353.772461 873.701416,2351.169678 
	C873.709106,2346.518555 873.736023,2341.867432 873.727600,2337.216309 
	C873.720276,2333.189697 875.846008,2330.511719 879.674133,2331.150146 
	C881.311523,2331.422852 882.934387,2334.640625 883.641418,2336.819336 
	C884.325928,2338.929199 883.839783,2341.423340 883.843689,2343.748535 
	C883.852539,2348.981201 883.846436,2354.213867 883.846436,2359.756836 
	C889.033569,2359.756836 893.111145,2359.756836 898.044189,2359.756836 
	C898.044189,2352.535156 898.044189,2345.951660 898.037842,2337.500000 
M813.568115,2328.907471 
	C812.645508,2332.056641 811.198486,2335.155762 810.892761,2338.363770 
	C809.691101,2350.976562 819.111755,2361.548340 831.219299,2361.570068 
	C842.905884,2361.591064 852.241577,2351.663574 851.735901,2339.399658 
	C851.365295,2330.411621 847.391846,2323.512939 838.768005,2319.980713 
	C829.928101,2316.360107 822.292786,2318.807373 813.568115,2328.907471 
M918.785828,2308.569336 
	C914.446106,2308.207520 910.907227,2308.669189 910.256104,2314.266846 
	C910.036011,2316.158691 908.461243,2318.234619 906.930420,2319.563965 
	C903.291992,2322.723145 901.867676,2327.342285 905.417297,2329.761963 
	C909.069031,2332.250977 908.639648,2335.078613 908.803345,2338.242920 
	C908.923340,2340.561768 908.781738,2342.897461 908.960083,2345.209961 
	C910.088440,2359.842773 918.983704,2364.980225 933.740173,2358.858887 
	C932.339233,2355.326172 933.957153,2350.319580 927.293579,2349.750977 
	C925.919373,2349.634033 923.967224,2346.642822 923.734497,2344.793457 
	C923.244019,2340.895996 923.676147,2336.875732 923.837952,2332.910645 
	C923.860291,2332.363037 924.497803,2331.840576 924.971436,2331.123047 
	C927.255615,2330.588867 929.695251,2330.018066 932.506165,2329.360352 
	C932.344116,2326.002197 932.205872,2323.136719 932.068115,2320.282959 
	C929.033264,2319.628418 926.546814,2319.092285 925.261780,2318.814941 
	C923.302673,2314.755859 921.841980,2311.729492 918.785828,2308.569336 
z"/>
<path fill="#78BD21" opacity="1.000000" stroke="none" 
	d="
M770.316711,2360.876953 
	C796.349731,2423.581055 843.513550,2457.709229 911.499939,2464.965332 
	C905.602234,2465.364258 898.940430,2465.636230 892.278564,2465.636963 
	C677.354187,2465.659912 462.429504,2465.841309 247.505478,2465.563232 
	C165.115128,2465.456787 101.526299,2409.227295 86.915382,2333.758545 
	C85.220871,2325.006104 84.439255,2315.938721 84.435158,2307.017090 
	C84.307816,2030.114502 84.095993,1753.211548 84.515465,1476.309570 
	C84.605690,1416.748413 111.886093,1371.046631 161.895279,1339.193604 
	C187.500656,1322.884277 216.113144,1315.733276 246.369263,1315.722900 
	C459.960785,1315.648926 673.552307,1315.686157 887.143860,1315.702515 
	C890.473755,1315.702759 893.803711,1315.886108 898.156494,1316.040039 
	C894.365662,1317.279541 889.565979,1318.523804 884.736328,1319.637695 
	C812.044067,1336.403809 760.521667,1400.332642 759.908936,1474.711914 
	C759.727844,1496.701294 759.854431,1518.693237 759.874878,1540.684082 
	C759.877319,1543.322632 760.099487,1545.961060 760.188049,1547.904297 
	C877.398987,1621.573853 943.257324,1725.535522 943.288086,1864.570679 
	C943.318848,2003.613647 877.605713,2107.667236 760.431091,2181.278809 
	C760.439941,2181.254150 760.026917,2181.867432 760.027893,2182.479980 
	C760.098389,2227.456299 760.201782,2272.432617 759.973633,2318.822266 
	C757.714844,2320.769775 754.836731,2322.379883 754.015808,2321.656250 
	C750.033081,2318.145508 746.258118,2319.670410 742.335815,2320.363037 
	C742.335815,2333.951904 742.335815,2346.758057 742.335815,2359.559814 
	C747.078918,2359.559814 751.136719,2359.559814 755.886963,2359.559814 
	C755.886963,2351.821045 755.928467,2344.889648 755.871826,2337.958984 
	C755.836487,2333.628662 757.351318,2330.870117 762.245728,2331.868652 
	C763.315430,2336.355225 764.339539,2340.106934 765.457642,2344.833252 
	C765.635132,2349.446045 765.269714,2353.177734 766.001282,2356.680420 
	C766.341370,2358.308594 768.811890,2359.491943 770.316711,2360.876953 
M268.375946,1801.652100 
	C260.632629,1841.989746 260.175385,1882.317017 267.584473,1922.811646 
	C299.480652,2097.141357 469.861206,2212.576660 643.733826,2177.487305 
	C815.204224,2142.882324 926.511536,1977.658203 894.359924,1805.458252 
	C856.371582,1601.997314 634.987854,1487.512085 447.430847,1575.461304 
	C351.407898,1620.488403 292.439209,1696.604126 268.375946,1801.652100 
M435.009918,2329.986816 
	C434.243774,2332.994873 433.477661,2336.002930 432.711548,2339.010986 
	C432.062805,2338.994873 431.414032,2338.978516 430.765289,2338.962158 
	C428.965973,2332.485840 427.166656,2326.009521 425.326385,2319.385742 
	C421.245148,2319.385742 417.711304,2319.385742 413.779480,2319.385742 
	C411.797821,2326.755859 409.913452,2333.764404 408.029053,2340.772949 
	C407.502106,2340.651611 406.975159,2340.530273 406.448242,2340.408936 
	C405.002899,2333.362305 403.557587,2326.315674 402.156555,2319.484863 
	C397.187378,2319.484863 393.331116,2319.484863 388.308655,2319.484863 
	C391.675781,2333.441406 394.831726,2346.522217 397.962952,2359.500977 
	C403.964294,2359.500977 408.839752,2359.500977 414.113617,2359.500977 
	C415.633972,2353.096680 417.062286,2347.080322 418.490601,2341.063721 
	C418.914795,2341.044189 419.338989,2341.024658 419.763214,2341.005127 
	C421.290833,2347.049561 422.818451,2353.093750 424.428284,2359.463623 
	C429.844208,2359.463623 435.018219,2359.463623 440.820282,2359.463623 
	C443.899445,2346.048096 447.511444,2333.163818 449.748962,2319.380615 
	C446.537994,2319.144775 444.585297,2318.873779 442.636383,2318.898438 
	C441.029846,2318.918701 439.427734,2319.289307 437.309723,2319.573730 
	C436.632355,2322.620117 435.998169,2325.472168 435.009918,2329.986816 
M218.625549,2307.500244 
	C216.054245,2306.914062 213.506638,2305.977051 210.907608,2305.801270 
	C198.868561,2304.988037 188.889236,2311.020020 184.540756,2321.489014 
	C179.835266,2332.817627 182.176941,2346.399414 190.132019,2353.918701 
	C197.657410,2361.031982 212.311935,2362.925293 221.925537,2358.023438 
	C224.962433,2356.475342 227.750595,2354.787598 227.713882,2350.730225 
	C227.651566,2343.845459 227.696762,2336.959473 227.696762,2329.487793 
	C220.496552,2329.487793 214.375061,2329.487793 207.618744,2329.487793 
	C207.618744,2333.137695 207.618744,2336.279297 207.618744,2339.420166 
	C208.898163,2339.823486 210.092850,2339.854980 210.719559,2340.467773 
	C212.154572,2341.870361 213.312103,2343.556885 214.582321,2345.128174 
	C212.855988,2346.229980 210.729446,2348.591797 209.479355,2348.194336 
	C205.904221,2347.058838 201.839218,2345.530029 199.514496,2342.825439 
	C195.535904,2338.197266 196.358902,2327.982178 199.995773,2323.037354 
	C203.811996,2317.849121 208.216843,2317.107422 216.906113,2320.100098 
	C217.786179,2320.403320 218.798508,2320.322754 220.299057,2320.476807 
	C222.105270,2318.017578 223.979630,2315.465820 226.133438,2312.533447 
	C223.746078,2310.795166 221.910751,2309.458740 218.625549,2307.500244 
M613.946533,2361.811523 
	C615.501648,2361.275635 617.098511,2360.180908 618.605042,2360.293701 
	C629.552979,2361.112305 635.455383,2357.100830 638.293396,2346.533447 
	C640.176331,2339.522461 639.721558,2332.681396 636.406860,2326.173828 
	C633.550293,2320.565186 628.286316,2316.634033 622.699951,2318.642090 
	C616.057129,2321.030273 610.065369,2319.248291 603.784851,2319.263916 
	C602.557617,2319.267090 601.331787,2319.846924 599.540833,2320.304932 
	C599.540833,2329.480713 599.350098,2338.431152 599.594971,2347.370117 
	C599.835693,2356.160889 598.458984,2365.064697 600.406494,2373.370361 
	C605.247437,2373.370361 609.326355,2373.370361 613.863647,2373.370361 
	C613.863647,2369.482422 613.863647,2366.510254 613.946533,2361.811523 
M521.869141,2334.306396 
	C521.053345,2336.652832 520.237610,2338.999512 518.891968,2342.870117 
	C515.814758,2333.923340 513.266541,2326.514893 510.848541,2319.484863 
	C505.947754,2319.484863 502.116974,2319.484863 497.360443,2319.484863 
	C498.552246,2323.061523 499.349945,2325.851562 500.402710,2328.541748 
	C503.796997,2337.216064 507.212128,2345.884033 510.767029,2354.493164 
	C512.633850,2359.013916 512.075745,2362.775635 506.926941,2363.722412 
	C499.875183,2365.019043 501.680420,2369.788818 501.352783,2373.835449 
	C502.545929,2374.485107 503.100616,2375.023926 503.699097,2375.077881 
	C514.082947,2376.014893 519.986145,2373.071045 523.973511,2362.845947 
	C529.280762,2349.236816 533.543152,2335.219482 538.179688,2321.352539 
	C538.320740,2320.930664 537.631653,2320.231201 537.116760,2319.259766 
	C533.765625,2319.259766 530.218689,2319.259766 526.007080,2319.259766 
	C524.698059,2323.905518 523.448242,2328.341064 521.869141,2334.306396 
M461.314728,2359.647705 
	C466.347992,2361.318359 470.868042,2359.686768 475.788300,2358.407715 
	C480.142639,2357.275879 485.185547,2358.793457 491.143463,2359.230957 
	C491.143463,2351.940430 491.414978,2344.709717 491.088654,2337.505615 
	C490.339264,2320.962891 480.818176,2314.472656 464.850800,2319.419678 
	C462.646973,2320.102539 460.515167,2321.084473 458.457306,2322.137451 
	C457.680359,2322.534668 457.207336,2323.525879 456.480255,2324.382568 
	C457.063232,2325.690918 457.481079,2326.941406 458.146515,2328.042236 
	C458.960205,2329.387939 459.981293,2330.608398 460.759827,2331.674072 
	C469.797394,2329.369385 469.797394,2329.369385 475.368561,2332.585693 
	C471.773163,2333.714844 468.722717,2334.598389 465.722412,2335.627686 
	C452.896423,2340.029541 450.816467,2348.595215 461.314728,2359.647705 
M358.299744,2318.733398 
	C354.762634,2320.189209 351.225525,2321.645020 346.988586,2323.388916 
	C349.101501,2326.954590 350.541290,2329.384277 352.006622,2331.857178 
	C357.066193,2330.988037 361.652313,2327.621582 367.423645,2332.182129 
	C361.664917,2334.218994 356.950195,2335.455811 352.630676,2337.519775 
	C346.792480,2340.309082 344.627563,2345.661865 346.157806,2351.660889 
	C347.650543,2357.512695 352.748596,2361.941406 358.823547,2360.246582 
	C365.386719,2358.415527 371.457367,2359.225830 377.796478,2359.869873 
	C378.963104,2359.988281 380.207733,2359.338867 381.787354,2358.953125 
	C381.787354,2349.918945 382.352478,2341.262207 381.637878,2332.712158 
	C380.826111,2323.000000 375.556763,2318.587402 365.895355,2318.042969 
	C363.915436,2317.931396 361.911316,2318.248535 358.299744,2318.733398 
M337.448517,2356.458984 
	C336.688904,2353.846680 335.929291,2351.234375 335.253815,2348.911621 
	C328.600281,2348.739014 321.837250,2353.067871 317.686615,2343.848633 
	C322.002075,2343.848633 325.287903,2343.848633 328.573761,2343.848633 
	C332.133392,2343.848633 335.693024,2343.848633 339.658691,2343.848633 
	C339.936127,2340.567871 340.378967,2338.296143 340.274109,2336.050049 
	C339.855255,2327.080566 335.368866,2320.911377 327.863434,2318.670166 
	C320.288391,2316.408447 311.521515,2319.434570 306.765411,2326.332520 
	C301.612549,2333.805664 301.099792,2341.908936 305.114532,2349.970215 
	C308.911957,2357.594971 315.618347,2361.050049 323.952942,2360.469482 
	C328.145966,2360.177246 332.245514,2358.542480 337.448517,2356.458984 
M674.457458,2359.548828 
	C676.385376,2358.452393 678.313293,2357.356201 680.726074,2355.984131 
	C679.201782,2353.228516 677.982483,2351.024414 676.878723,2349.029053 
	C670.805298,2348.880371 664.089294,2353.131348 659.617859,2344.028809 
	C667.544373,2344.028809 674.375610,2344.028809 681.377747,2344.028809 
	C683.525696,2334.960449 682.786011,2327.304932 675.651184,2321.745850 
	C669.589844,2317.022949 662.690857,2317.073730 655.905396,2320.417480 
	C647.907898,2324.358398 643.729004,2334.194580 645.580505,2344.270752 
	C647.317444,2353.723389 653.545837,2359.672119 663.093567,2360.493652 
	C666.349731,2360.773682 669.682434,2360.164307 674.457458,2359.548828 
M266.796082,2350.427002 
	C267.969147,2353.472900 269.142242,2356.518799 270.228241,2359.338623 
	C275.992096,2359.338623 281.147583,2359.338623 286.655243,2359.338623 
	C290.902710,2346.005859 294.986542,2333.186523 299.367706,2319.434082 
	C294.150116,2319.434082 290.342865,2319.434082 285.952271,2319.434082 
	C283.701385,2327.653076 281.495331,2335.708496 279.289276,2343.763916 
	C278.614594,2343.786133 277.939911,2343.808594 277.265228,2343.831055 
	C275.078857,2335.730225 272.892456,2327.629639 270.748230,2319.685059 
	C265.858063,2319.685059 261.822235,2319.685059 256.743988,2319.685059 
	C260.141113,2330.142822 263.192078,2339.534912 266.796082,2350.427002 
M574.686890,2350.048096 
	C576.108826,2342.434326 572.210083,2338.307373 565.656494,2335.463867 
	C562.947998,2334.288818 558.783081,2334.558838 558.052734,2328.831543 
	C562.125916,2329.389893 565.758850,2329.887695 569.994751,2330.468262 
	C571.389099,2328.250732 572.901855,2325.844971 574.429199,2323.415771 
	C568.312561,2318.393066 561.999084,2317.053711 555.136658,2318.510986 
	C550.375366,2319.522217 546.467651,2321.998535 544.556946,2326.737793 
	C542.071289,2332.903076 544.663635,2338.157959 551.644043,2342.306641 
	C554.805542,2344.185547 559.557312,2344.080811 561.016052,2349.581299 
	C558.318420,2349.581299 556.062561,2349.853516 553.906799,2349.505371 
	C551.714600,2349.151855 549.621033,2348.186768 547.086182,2347.359375 
	C545.265930,2350.066650 543.666687,2352.445068 542.071350,2354.817627 
	C555.351624,2363.940186 566.795776,2362.599609 574.686890,2350.048096 
M712.080872,2330.653320 
	C713.976135,2330.429932 715.871460,2330.206543 718.120056,2329.941406 
	C718.718750,2325.993408 719.234070,2322.595459 719.740295,2319.257080 
	C712.772583,2316.723877 708.562500,2320.315186 704.171387,2323.628662 
	C700.476624,2317.996338 695.892700,2318.538086 690.869873,2320.289551 
	C690.869873,2333.436768 690.869873,2346.271240 690.869873,2359.399170 
	C695.620361,2359.399170 699.734070,2359.399170 704.620056,2359.399170 
	C704.620056,2353.127930 704.683289,2347.493408 704.600525,2341.860840 
	C704.531250,2337.142578 706.013489,2333.373047 712.080872,2330.653320 
M237.131668,2320.779053 
	C236.147934,2333.629150 236.515549,2346.446045 236.889328,2359.219727 
	C242.188263,2359.219727 246.288239,2359.219727 250.551331,2359.219727 
	C250.551331,2345.623047 250.551331,2332.822266 250.551331,2318.964111 
	C246.039383,2319.204834 242.185837,2319.410156 237.131668,2320.779053 
M243.156433,2313.860840 
	C250.085312,2311.895996 252.492249,2309.518066 251.653351,2305.466064 
	C250.824875,2301.464355 245.754623,2298.480713 241.565613,2300.223877 
	C239.427063,2301.113525 237.019684,2303.325439 236.382858,2305.437012 
	C235.146896,2309.535400 237.806702,2312.182373 243.156433,2313.860840 
z"/>
<path fill="#78BD22" opacity="1.000000" stroke="none" 
	d="
M1389.294434,1848.767822 
	C1397.212036,1875.738770 1404.892822,1901.939209 1412.548584,1928.147095 
	C1416.377075,1941.253296 1420.119385,1954.384888 1423.989014,1967.478882 
	C1425.089111,1971.201050 1426.500000,1974.831421 1428.477539,1980.557373 
	C1440.013916,1966.429077 1446.245239,1951.278687 1455.907349,1937.759033 
	C1459.017700,1939.018677 1461.757935,1939.999146 1464.389160,1941.215576 
	C1478.886963,1947.918457 1493.395630,1954.599609 1507.825317,1961.446533 
	C1518.227417,1966.382202 1529.352661,1968.316284 1540.610840,1969.578613 
	C1554.210938,1971.103271 1565.270874,1963.731812 1568.032349,1951.714478 
	C1571.428101,1936.937012 1564.776489,1927.072998 1549.485474,1924.500610 
	C1540.292603,1922.954102 1531.038452,1921.773560 1521.838867,1920.263306 
	C1502.615356,1917.107300 1484.445923,1910.580688 1466.923828,1902.293579 
	C1425.653931,1882.774902 1406.050415,1835.408081 1420.518921,1792.050171 
	C1430.972168,1760.724731 1451.674561,1739.310303 1481.201050,1725.422974 
	C1499.019165,1717.042480 1517.275513,1712.295166 1537.171143,1713.152832 
	C1554.804321,1713.912842 1572.518066,1713.858887 1590.156372,1713.159058 
	C1609.259277,1712.401001 1627.185913,1716.616333 1644.732300,1723.423462 
	C1652.069824,1726.270020 1659.914307,1728.161133 1666.995361,1734.341675 
	C1654.594849,1757.395630 1642.389404,1780.087158 1630.151367,1802.839111 
	C1616.987061,1798.888306 1604.629639,1795.140381 1592.248047,1791.473755 
	C1576.739136,1786.880737 1560.830200,1785.473267 1544.770996,1786.394775 
	C1539.198853,1786.714600 1533.408081,1787.742432 1528.246460,1789.784668 
	C1516.293701,1794.513794 1514.413452,1809.297119 1524.416260,1817.311646 
	C1530.688110,1822.336914 1538.198608,1823.401611 1545.968994,1824.096802 
	C1568.200317,1826.086060 1590.541870,1827.982422 1611.630981,1835.951904 
	C1623.418335,1840.406616 1635.182129,1845.307373 1646.153320,1851.443481 
	C1661.049927,1859.774780 1671.534424,1872.734253 1679.220093,1887.949707 
	C1680.751221,1890.981079 1682.674316,1893.814331 1684.416748,1896.739014 
	C1685.208252,1896.502686 1685.999756,1896.266357 1686.791260,1896.030151 
	C1686.791260,1835.491333 1686.791260,1774.952637 1686.791260,1713.311157 
	C1690.629517,1713.311157 1693.873413,1713.310303 1697.117432,1713.311523 
	C1735.782471,1713.325684 1774.449707,1713.589600 1813.111938,1713.263916 
	C1837.503662,1713.058472 1859.929199,1720.092041 1880.938477,1731.388428 
	C1915.000610,1749.703247 1939.583740,1777.302490 1954.429077,1812.905518 
	C1959.358398,1824.727417 1961.306030,1837.810547 1964.396973,1850.371094 
	C1965.460083,1854.691528 1965.854492,1859.176514 1967.764771,1863.639526 
	C1975.932739,1848.017456 1977.294312,1830.732788 1981.844482,1814.379150 
	C1986.396729,1798.018066 1990.354980,1781.490601 1994.496460,1765.016846 
	C1998.709473,1748.258667 2002.828247,1731.476807 2007.158447,1714.018799 
	C2056.999268,1714.018799 2106.847412,1714.018799 2158.067871,1714.018799 
	C2191.266113,1824.918701 2224.587402,1936.229736 2258.358398,2049.042969 
	C2253.430664,2049.247070 2250.231689,2049.494141 2247.032715,2049.493896 
	C2221.368408,2049.491455 2195.703857,2049.487061 2170.039795,2049.384521 
	C2160.972900,2049.348389 2160.855957,2049.166016 2158.162598,2040.615723 
	C2152.561035,2022.832520 2146.835205,2005.085815 2141.511230,1987.219482 
	C2140.055908,1982.335938 2137.890137,1980.045410 2132.540283,1980.084961 
	C2104.210693,1980.294189 2075.878906,1980.220337 2047.547729,1980.281250 
	C2046.582153,1980.283325 2045.617310,1980.673462 2043.281738,1981.179443 
	C2037.187378,2003.230957 2030.932251,2025.864014 2024.433105,2049.379639 
	C1992.156250,2049.387939 1960.423950,2049.967773 1927.417725,2048.743164 
	C1932.853394,2027.027588 1937.892700,2006.894897 1942.932007,1986.762207 
	C1942.214966,1986.299072 1941.497803,1985.835938 1940.780762,1985.372803 
	C1938.761475,1987.139893 1936.457275,1988.670532 1934.765747,1990.709473 
	C1906.491089,2024.791382 1868.985107,2041.723999 1826.373779,2049.164307 
	C1823.112915,2049.733398 1819.742920,2049.877441 1816.423340,2049.881592 
	C1776.091675,2049.932861 1735.759888,2049.929199 1695.428223,2049.902100 
	C1693.126343,2049.900635 1690.824829,2049.573730 1687.132446,2049.292480 
	C1685.508301,2037.128174 1686.641357,2024.898438 1686.397949,2012.769775 
	C1686.153687,2000.595093 1686.344360,1988.411743 1686.344360,1974.780151 
	C1684.041260,1976.928711 1682.073730,1978.069580 1681.099365,1979.777222 
	C1666.232178,2005.834717 1643.474121,2022.568115 1616.501709,2034.059937 
	C1560.005737,2058.130371 1504.213867,2054.821777 1449.141846,2029.062012 
	C1447.134155,2028.122925 1445.003540,2027.446289 1441.154419,2025.963135 
	C1443.043091,2034.078979 1444.580566,2040.686279 1446.341553,2048.253174 
	C1443.640747,2048.687256 1441.197998,2049.410400 1438.751709,2049.422607 
	C1411.753662,2049.557861 1384.754883,2049.640137 1357.756592,2049.604980 
	C1348.760498,2049.593262 1348.681396,2049.442627 1346.190186,2040.659058 
	C1341.283447,2023.359009 1336.533081,2006.014526 1331.599854,1988.722168 
	C1329.136353,1980.086670 1329.018311,1980.106689 1319.921753,1980.105835 
	C1293.589600,1980.103271 1267.257568,1980.085815 1240.925415,1980.131714 
	C1230.728516,1980.149536 1230.852295,1980.285645 1228.548096,1990.266724 
	C1224.506104,2007.775391 1220.286743,2025.243530 1216.031738,2042.701782 
	C1215.497681,2044.892944 1214.297607,2046.921875 1213.378662,2049.091309 
	C1179.810669,2049.091309 1146.604736,2049.091309 1111.761841,2049.091309 
	C1141.314331,1936.917358 1170.611694,1825.711426 1200.059448,1713.935059 
	C1249.609985,1713.935059 1299.098389,1713.935059 1348.991089,1713.935059 
	C1352.641235,1725.610352 1356.340454,1736.946411 1359.728638,1748.374756 
	C1369.568481,1781.563477 1379.283203,1814.789185 1389.294434,1848.767822 
M1853.470703,1932.341553 
	C1872.166382,1898.423706 1872.909546,1864.652954 1852.554688,1831.104004 
	C1838.659546,1808.201904 1808.895386,1796.065918 1782.435303,1802.728516 
	C1782.435303,1853.631714 1782.435303,1904.647827 1782.435303,1956.794434 
	C1791.124634,1957.023071 1799.030518,1957.611816 1806.909790,1957.362915 
	C1825.889282,1956.763062 1841.834229,1949.965454 1853.470703,1932.341553 
M1257.647705,1874.286011 
	C1256.327515,1879.773804 1254.953979,1885.249512 1253.702026,1890.752930 
	C1252.427002,1896.357788 1251.271606,1901.989746 1249.867676,1908.521729 
	C1269.738037,1909.068604 1288.013306,1910.386108 1307.432007,1908.218384 
	C1297.104736,1872.362183 1287.191650,1837.944458 1276.652832,1801.353516 
	C1274.342896,1805.071777 1272.671753,1806.709839 1272.233154,1808.629395 
	C1267.361572,1829.946533 1262.680908,1851.307007 1257.647705,1874.286011 
M2114.854980,1908.137695 
	C2114.962646,1906.281860 2115.554688,1904.298706 2115.105957,1902.588989 
	C2107.677246,1874.293823 2100.154541,1846.023071 2092.552734,1817.773682 
	C2091.188721,1812.704590 2089.379150,1807.755371 2087.775146,1802.750977 
	C2086.741699,1802.789062 2085.708252,1802.827148 2084.674805,1802.865234 
	C2076.591309,1837.554321 2068.343506,1872.203247 2059.715820,1908.222656 
	C2078.372070,1909.231689 2095.813477,1909.785278 2114.854980,1908.137695 
z"/>
<path fill="#FAF5FE" opacity="1.000000" stroke="none" 
	d="
M771.294434,2360.722412 
	C768.811890,2359.491943 766.341370,2358.308594 766.001282,2356.680420 
	C765.269714,2353.177734 765.635132,2349.446045 765.539368,2344.204346 
	C765.125427,2338.572998 768.037842,2333.583740 762.200134,2331.133301 
	C757.351318,2330.870117 755.836487,2333.628662 755.871826,2337.958984 
	C755.928467,2344.889648 755.886963,2351.821045 755.886963,2359.559814 
	C751.136719,2359.559814 747.078918,2359.559814 742.335815,2359.559814 
	C742.335815,2346.758057 742.335815,2333.951904 742.335815,2320.363037 
	C746.258118,2319.670410 750.033081,2318.145508 754.015808,2321.656250 
	C754.836731,2322.379883 757.714844,2320.769775 760.106567,2319.843750 
	C767.173584,2317.316162 773.047302,2318.441650 778.192444,2324.109131 
	C779.748840,2323.110352 781.025146,2322.185791 782.394287,2321.429443 
	C793.556641,2315.263184 802.299805,2319.596924 803.782959,2332.076172 
	C804.056641,2334.379150 803.963684,2336.730225 803.971252,2339.059326 
	C803.992737,2345.670166 803.978760,2352.281006 803.978760,2359.648682 
	C799.201782,2359.648682 795.114685,2359.648682 789.765686,2359.648682 
	C789.765686,2354.089355 789.771057,2348.532959 789.762817,2342.976318 
	C789.759888,2340.979248 790.220825,2338.802002 789.577759,2337.030762 
	C788.778259,2334.829102 787.281494,2331.489746 785.684631,2331.243408 
	C781.731873,2330.633789 779.915527,2333.561279 779.956177,2337.504150 
	C779.990540,2340.832764 779.946899,2344.162109 779.943481,2347.490967 
	C779.939819,2351.144043 779.942627,2354.797119 779.942627,2359.304443 
	C777.229065,2359.751465 774.750610,2360.159668 771.294434,2360.722412 
z"/>
<path fill="#FAF5FE" opacity="1.000000" stroke="none" 
	d="
M973.438843,2360.415039 
	C970.084839,2360.182129 967.520630,2359.935059 964.473511,2359.641357 
	C964.473511,2352.118164 964.566406,2345.171875 964.432129,2338.229980 
	C964.370178,2335.027832 964.836121,2330.817627 959.940613,2330.990723 
	C955.433411,2331.149658 954.119629,2334.476074 954.211609,2338.692627 
	C954.362488,2345.603516 954.252380,2352.520508 954.252380,2359.916016 
	C949.252930,2359.916016 945.070862,2359.916016 940.649902,2359.916016 
	C940.403687,2358.185303 940.069519,2356.919922 940.066895,2355.654053 
	C940.032104,2338.739990 940.043640,2321.825928 940.043640,2304.167480 
	C944.614990,2304.167480 948.738037,2304.167480 953.658936,2304.167480 
	C953.658936,2309.545166 953.658936,2315.031006 953.658936,2321.706787 
	C957.269226,2320.574951 959.841248,2319.593750 962.497070,2318.968750 
	C970.412476,2317.105469 977.041504,2320.742920 977.906250,2328.754395 
	C978.933777,2338.274658 978.589966,2347.958252 978.446411,2357.565186 
	C978.431946,2358.531250 975.699707,2359.456543 973.438843,2360.415039 
z"/>
<path fill="#FAF5FE" opacity="1.000000" stroke="none" 
	d="
M898.041016,2338.434082 
	C898.044189,2345.951660 898.044189,2352.535156 898.044189,2359.756836 
	C893.111145,2359.756836 889.033569,2359.756836 883.846436,2359.756836 
	C883.846436,2354.213867 883.852539,2348.981201 883.843689,2343.748535 
	C883.839783,2341.423340 884.325928,2338.929199 883.641418,2336.819336 
	C882.934387,2334.640625 881.311523,2331.422852 879.674133,2331.150146 
	C875.846008,2330.511719 873.720276,2333.189697 873.727600,2337.216309 
	C873.736023,2341.867432 873.709106,2346.518555 873.701416,2351.169678 
	C873.697083,2353.772461 873.700623,2356.375000 873.700623,2359.698730 
	C868.806580,2359.698730 864.702515,2359.698730 859.999878,2359.698730 
	C859.999878,2346.756104 859.999878,2333.927246 859.999878,2320.570068 
	C864.365967,2319.109863 868.657471,2318.147949 872.714050,2322.764404 
	C874.317444,2322.010254 876.017517,2321.137939 877.772888,2320.396484 
	C888.665527,2315.794434 896.147583,2319.927979 897.825989,2331.529785 
	C898.109436,2333.489014 897.977722,2335.508301 898.041016,2338.434082 
z"/>
<path fill="#F7F0FE" opacity="1.000000" stroke="none" 
	d="
M813.925659,2328.241455 
	C822.292786,2318.807373 829.928101,2316.360107 838.768005,2319.980713 
	C847.391846,2323.512939 851.365295,2330.411621 851.735901,2339.399658 
	C852.241577,2351.663574 842.905884,2361.591064 831.219299,2361.570068 
	C819.111755,2361.548340 809.691101,2350.976562 810.892761,2338.363770 
	C811.198486,2335.155762 812.645508,2332.056641 813.925659,2328.241455 
M837.214905,2340.780518 
	C836.970154,2338.840332 837.276062,2336.561768 836.343445,2335.044189 
	C835.135864,2333.079590 832.924500,2330.440918 831.174927,2330.462646 
	C829.416321,2330.484619 826.534973,2333.212402 826.202026,2335.114502 
	C825.549927,2338.839355 825.660889,2343.003418 826.691895,2346.635254 
	C827.835876,2350.664795 832.536743,2351.166016 835.157104,2347.796875 
	C836.281555,2346.351318 836.459412,2344.169922 837.214905,2340.780518 
z"/>
<path fill="#F4EBFD" opacity="1.000000" stroke="none" 
	d="
M919.583557,2308.636230 
	C921.841980,2311.729492 923.302673,2314.755859 925.261780,2318.814941 
	C926.546814,2319.092285 929.033264,2319.628418 932.068115,2320.282959 
	C932.205872,2323.136719 932.344116,2326.002197 932.506165,2329.360352 
	C929.695251,2330.018066 927.255615,2330.588867 924.971436,2331.123047 
	C924.497803,2331.840576 923.860291,2332.363037 923.837952,2332.910645 
	C923.676147,2336.875732 923.244019,2340.895996 923.734497,2344.793457 
	C923.967224,2346.642822 925.919373,2349.634033 927.293579,2349.750977 
	C933.957153,2350.319580 932.339233,2355.326172 933.740173,2358.858887 
	C918.983704,2364.980225 910.088440,2359.842773 908.960083,2345.209961 
	C908.781738,2342.897461 908.923340,2340.561768 908.803345,2338.242920 
	C908.639648,2335.078613 909.069031,2332.250977 905.417297,2329.761963 
	C901.867676,2327.342285 903.291992,2322.723145 906.930420,2319.563965 
	C908.461243,2318.234619 910.036011,2316.158691 910.256104,2314.266846 
	C910.907227,2308.669189 914.446106,2308.207520 919.583557,2308.636230 
z"/>
<path fill="#7A01ED" opacity="1.000000" stroke="none" 
	d="
M268.560730,1800.823242 
	C292.439209,1696.604126 351.407898,1620.488403 447.430847,1575.461304 
	C634.987854,1487.512085 856.371582,1601.997314 894.359924,1805.458252 
	C926.511536,1977.658203 815.204224,2142.882324 643.733826,2177.487305 
	C469.861206,2212.576660 299.480652,2097.141357 267.584473,1922.811646 
	C260.175385,1882.317017 260.632629,1841.989746 268.560730,1800.823242 
M782.993835,1852.245483 
	C779.550415,1853.062988 776.106995,1853.880493 771.727905,1854.920044 
	C771.727905,1849.158813 771.727905,1843.979858 771.727905,1838.718994 
	C767.077698,1838.718994 763.304504,1838.718994 759.171509,1838.718994 
	C759.171509,1856.534790 759.171509,1873.662598 759.171509,1891.340088 
	C763.527222,1891.340088 767.305847,1891.340088 772.189453,1891.340088 
	C772.189453,1886.286255 772.178955,1881.714722 772.193481,1877.143188 
	C772.201965,1874.485596 771.604248,1871.587402 772.476746,1869.243164 
	C773.235779,1867.203491 775.448914,1864.765625 777.424561,1864.327026 
	C780.836365,1863.569092 781.711731,1866.618164 781.734619,1869.489624 
	C781.791992,1876.692017 781.753601,1883.895264 781.753601,1891.230957 
	C786.937988,1891.230957 790.718262,1891.230957 794.960571,1891.230957 
	C794.960571,1881.690674 795.294373,1872.781006 794.846619,1863.910889 
	C794.533203,1857.702393 791.179565,1853.325439 782.993835,1852.245483 
M616.685425,1849.415283 
	C615.734680,1853.623047 615.031189,1857.907104 613.763123,1862.016968 
	C612.506042,1866.091309 613.185547,1871.059448 608.667847,1874.570923 
	C605.852905,1863.367188 603.202393,1852.818237 600.597412,1842.450439 
	C595.637329,1842.450439 591.530090,1842.450439 586.693970,1842.450439 
	C589.260437,1851.240356 591.543518,1859.193726 593.908630,1867.122803 
	C596.348938,1875.304321 598.869080,1883.462036 601.292542,1891.427246 
	C607.232788,1891.427246 612.135315,1891.427246 617.453552,1891.427246 
	C619.912170,1883.217896 622.291016,1875.302612 624.652466,1867.382202 
	C627.079651,1859.241211 629.489868,1851.095093 631.941223,1842.837524 
	C619.762146,1841.009399 619.762146,1841.009399 616.685425,1849.415283 
M490.232300,1867.011108 
	C491.433075,1872.472290 492.018188,1878.169067 493.994843,1883.333374 
	C496.316711,1889.399780 501.499237,1892.339722 508.141846,1892.485962 
	C514.760071,1892.631714 520.007507,1889.957153 522.873596,1884.120972 
	C528.120422,1873.436890 528.322144,1862.276245 523.560303,1851.402954 
	C520.801758,1845.103882 515.292053,1841.982788 508.332367,1842.094727 
	C501.393188,1842.206299 496.020264,1845.411743 493.445221,1851.852783 
	C491.753174,1856.084961 491.269470,1860.800293 490.232300,1867.011108 
M426.976227,1891.876099 
	C432.220795,1891.876099 437.465363,1891.876099 442.980347,1891.876099 
	C442.980347,1887.483521 442.980347,1884.147949 442.980347,1880.596924 
	C436.910339,1880.317749 431.672638,1880.076782 426.594849,1879.843262 
	C425.199219,1871.728638 430.938782,1871.131104 436.507477,1870.337769 
	C436.229553,1867.648193 436.009186,1865.515625 435.795532,1863.447998 
	C432.204559,1862.953491 429.316467,1862.555664 426.504608,1862.168457 
	C425.885162,1853.481812 426.622314,1852.152466 433.505646,1853.645264 
	C438.880737,1854.811157 440.312805,1851.584351 443.099976,1848.484985 
	C437.653564,1841.828857 431.151245,1840.921997 424.001190,1842.882324 
	C417.237549,1844.736572 413.401306,1849.457642 412.406097,1856.359009 
	C411.993866,1859.217896 412.382385,1861.831665 409.229858,1864.058105 
	C406.846771,1865.741089 406.652496,1869.385986 410.613922,1871.006348 
	C412.057495,1871.596924 413.569611,1872.019775 414.699829,1872.400879 
	C416.656250,1880.336670 402.342834,1882.711792 409.217926,1891.876099 
	C414.466125,1891.876099 419.773743,1891.876099 426.976227,1891.876099 
M567.878662,1874.842041 
	C567.309387,1867.649780 567.718567,1860.199585 565.909851,1853.333862 
	C563.891541,1845.672241 557.338074,1841.940552 550.122375,1842.062500 
	C542.901794,1842.184570 536.559326,1846.176025 534.478699,1853.683350 
	C532.833679,1859.618774 532.099121,1866.118042 532.539612,1872.253540 
	C533.401978,1884.264282 539.533142,1891.313354 548.248169,1892.386475 
	C555.515625,1893.281494 564.355469,1890.048462 567.878662,1874.842041 
M698.686646,1889.652100 
	C699.591492,1889.308228 701.158447,1888.488403 701.303833,1888.690430 
	C704.491638,1893.125732 708.683899,1892.043335 713.432617,1891.109497 
	C713.432617,1878.857910 713.432617,1866.713989 713.432617,1853.989990 
	C709.136658,1853.989990 705.023438,1853.989990 700.665222,1853.989990 
	C700.513306,1856.607422 700.330383,1858.560059 700.299927,1860.515137 
	C700.217285,1865.819702 700.554626,1871.166504 699.944946,1876.405762 
	C699.755371,1878.034424 697.068604,1879.372559 695.525085,1880.843628 
	C694.149109,1879.342896 692.275146,1878.049438 691.539429,1876.282104 
	C690.825562,1874.567017 691.256287,1872.365967 691.226440,1870.377563 
	C691.144043,1864.889160 691.083679,1859.400513 691.015930,1854.016357 
	C685.870605,1854.016357 682.064819,1854.016357 678.124878,1854.016357 
	C677.970581,1856.354614 677.776855,1857.996704 677.769104,1859.639526 
	C677.740906,1865.608643 677.603027,1871.584229 677.820312,1877.546143 
	C678.308411,1890.934937 684.356934,1894.843384 698.686646,1889.652100 
M327.004578,1885.082153 
	C327.056458,1882.097534 326.351410,1879.866821 322.651703,1879.918823 
	C319.851257,1879.958252 317.046204,1879.671143 313.546387,1879.494019 
	C317.089539,1873.766602 320.545776,1869.297485 322.813202,1864.290039 
	C328.115570,1852.580322 320.844116,1841.765259 308.050201,1841.634033 
	C302.072388,1841.572754 296.987732,1843.512451 292.985870,1848.007935 
	C292.624268,1848.414185 292.664551,1849.178223 292.363770,1850.406128 
	C294.310883,1852.092163 296.476685,1853.967651 298.486115,1855.707642 
	C299.638000,1855.019531 300.220306,1854.702393 300.771149,1854.337769 
	C304.017517,1852.189209 307.578888,1850.619629 310.625458,1854.071533 
	C313.478119,1857.303589 311.995636,1860.968994 310.026154,1864.214966 
	C308.998993,1865.907837 307.812866,1867.551514 306.455597,1868.987671 
	C302.807892,1872.847168 299.138733,1876.699463 295.269409,1880.332275 
	C291.995148,1883.406616 290.670074,1886.607788 293.516357,1891.406494 
	C302.877655,1891.406494 312.476654,1891.342896 322.074036,1891.440796 
	C325.456818,1891.475342 326.933929,1889.919800 327.004578,1885.082153 
M827.259216,1892.025146 
	C829.967041,1890.968628 832.674866,1889.911987 836.067871,1888.588135 
	C834.485168,1885.634766 833.312256,1883.445923 832.336426,1881.625000 
	C826.749634,1881.026611 820.635742,1885.202759 816.535706,1876.927246 
	C824.014221,1876.582520 830.464966,1876.285278 836.743530,1875.995850 
	C838.764282,1861.605103 832.942871,1852.799194 821.713562,1852.308716 
	C810.868164,1851.834961 801.892029,1861.338135 802.152649,1873.018066 
	C802.437866,1885.800293 810.661499,1892.487549 827.259216,1892.025146 
M632.802673,1875.959473 
	C633.065002,1876.921387 633.249756,1877.912598 633.601501,1878.840576 
	C637.590027,1889.363403 645.848816,1894.206909 656.118530,1892.075562 
	C665.330811,1890.163574 671.552551,1881.448730 670.982483,1871.255127 
	C670.395081,1860.751831 662.750427,1852.818237 652.706787,1852.288696 
	C643.184448,1851.786621 635.294678,1858.197876 632.990601,1868.478516 
	C632.562134,1870.390503 632.689087,1872.427002 632.802673,1875.959473 
M461.485596,1891.848877 
	C468.680115,1891.848877 475.874603,1891.848877 483.230743,1891.848877 
	C483.230743,1887.641357 483.230743,1884.771240 483.230743,1881.771606 
	C481.523224,1881.355713 480.218628,1881.150269 478.997894,1880.711426 
	C477.546570,1880.189819 476.167358,1879.467896 474.276550,1878.616333 
	C474.276550,1866.829712 474.276550,1855.301880 474.276550,1843.892944 
	C465.774292,1841.022949 459.621307,1845.920288 452.503784,1848.083496 
	C452.503784,1850.459351 452.503784,1852.656982 452.503784,1854.780396 
	C455.617889,1855.661011 458.374084,1856.440308 461.000793,1857.182983 
	C461.000793,1864.930298 461.000793,1872.133545 461.000793,1879.583252 
	C457.547394,1880.418579 454.470276,1881.162964 450.806946,1882.049072 
	C450.965576,1885.240601 451.105621,1888.057861 451.271912,1891.403809 
	C454.495178,1891.574585 457.080078,1891.711426 461.485596,1891.848877 
M357.189026,1868.366943 
	C359.579620,1871.998901 356.909180,1874.670166 355.366516,1877.482666 
	C353.048340,1881.708984 350.568726,1885.846802 347.623596,1890.947144 
	C353.315948,1890.947144 357.198364,1890.947144 360.785492,1890.947144 
	C362.758362,1887.451904 364.434692,1884.481934 366.367310,1881.057983 
	C374.091797,1892.841431 375.112488,1893.259888 385.758392,1889.493652 
	C382.387665,1883.816528 379.046997,1878.189941 375.833893,1872.778320 
	C379.329498,1866.098511 382.451447,1860.132690 386.027161,1853.299683 
	C382.360199,1853.078003 380.390015,1852.800537 378.435669,1852.885742 
	C376.494110,1852.970093 374.568390,1853.419312 372.876984,1853.672607 
	C371.398865,1856.610352 370.116333,1859.159546 368.744965,1861.885254 
	C359.888794,1851.563232 358.436035,1851.059692 349.364136,1855.070312 
	C351.712158,1859.110229 354.045746,1863.125244 357.189026,1868.366943 
M724.661865,1859.882935 
	C718.777893,1870.680908 719.300720,1880.461304 726.126709,1887.288940 
	C732.247620,1893.411499 741.615967,1894.181763 750.878174,1889.246826 
	C751.333252,1889.004395 751.453552,1888.133667 751.947510,1887.099731 
	C750.775757,1885.134033 749.461365,1882.929199 747.945251,1880.385986 
	C746.490540,1880.751343 745.295349,1881.207031 744.066162,1881.333984 
	C737.855835,1881.975342 734.656982,1879.350098 734.188721,1873.336060 
	C733.728821,1867.429199 736.580688,1863.222778 742.464172,1863.665161 
	C748.447693,1864.115234 749.376648,1860.171387 751.728210,1856.885132 
	C742.226257,1850.229370 736.049072,1850.745850 724.661865,1859.882935 
M868.695862,1863.969116 
	C872.377380,1861.097412 872.130493,1857.302734 871.624634,1853.110718 
	C865.335022,1850.642212 861.386841,1854.811157 857.086365,1857.538330 
	C854.201294,1851.475586 849.737000,1853.064331 845.107056,1854.221191 
	C845.107056,1866.770142 845.107056,1878.911133 845.107056,1891.239502 
	C849.596252,1891.239502 853.403442,1891.239502 858.112244,1891.239502 
	C858.112244,1885.342529 857.988159,1880.068359 858.142029,1874.802368 
	C858.360596,1867.322754 858.904480,1866.781006 868.695862,1863.969116 
z"/>
<path fill="#F4FAED" opacity="1.000000" stroke="none" 
	d="
M435.186951,2329.155518 
	C435.998169,2325.472168 436.632355,2322.620117 437.309723,2319.573730 
	C439.427734,2319.289307 441.029846,2318.918701 442.636383,2318.898438 
	C444.585297,2318.873779 446.537994,2319.144775 449.748962,2319.380615 
	C447.511444,2333.163818 443.899445,2346.048096 440.820282,2359.463623 
	C435.018219,2359.463623 429.844208,2359.463623 424.428284,2359.463623 
	C422.818451,2353.093750 421.290833,2347.049561 419.763214,2341.005127 
	C419.338989,2341.024658 418.914795,2341.044189 418.490601,2341.063721 
	C417.062286,2347.080322 415.633972,2353.096680 414.113617,2359.500977 
	C408.839752,2359.500977 403.964294,2359.500977 397.962952,2359.500977 
	C394.831726,2346.522217 391.675781,2333.441406 388.308655,2319.484863 
	C393.331116,2319.484863 397.187378,2319.484863 402.156555,2319.484863 
	C403.557587,2326.315674 405.002899,2333.362305 406.448242,2340.408936 
	C406.975159,2340.530273 407.502106,2340.651611 408.029053,2340.772949 
	C409.913452,2333.764404 411.797821,2326.755859 413.779480,2319.385742 
	C417.711304,2319.385742 421.245148,2319.385742 425.326385,2319.385742 
	C427.166656,2326.009521 428.965973,2332.485840 430.765289,2338.962158 
	C431.414032,2338.978516 432.062805,2338.994873 432.711548,2339.010986 
	C433.477661,2336.002930 434.243774,2332.994873 435.186951,2329.155518 
z"/>
<path fill="#F6FAF0" opacity="1.000000" stroke="none" 
	d="
M219.350494,2307.811523 
	C221.910751,2309.458740 223.746078,2310.795166 226.133438,2312.533447 
	C223.979630,2315.465820 222.105270,2318.017578 220.299057,2320.476807 
	C218.798508,2320.322754 217.786179,2320.403320 216.906113,2320.100098 
	C208.216843,2317.107422 203.811996,2317.849121 199.995773,2323.037354 
	C196.358902,2327.982178 195.535904,2338.197266 199.514496,2342.825439 
	C201.839218,2345.530029 205.904221,2347.058838 209.479355,2348.194336 
	C210.729446,2348.591797 212.855988,2346.229980 214.582306,2345.128174 
	C213.312103,2343.556885 212.154572,2341.870361 210.719559,2340.467773 
	C210.092850,2339.854980 208.898163,2339.823486 207.618744,2339.420166 
	C207.618744,2336.279297 207.618744,2333.137695 207.618744,2329.487793 
	C214.375061,2329.487793 220.496552,2329.487793 227.696762,2329.487793 
	C227.696762,2336.959473 227.651566,2343.845459 227.713882,2350.730225 
	C227.750595,2354.787598 224.962433,2356.475342 221.925537,2358.023438 
	C212.311935,2362.925293 197.657410,2361.031982 190.132019,2353.918701 
	C182.176941,2346.399414 179.835266,2332.817627 184.540756,2321.489014 
	C188.889236,2311.020020 198.868561,2304.988037 210.907608,2305.801270 
	C213.506638,2305.977051 216.054245,2306.914062 219.350494,2307.811523 
z"/>
<path fill="#F7FBF2" opacity="1.000000" stroke="none" 
	d="
M613.905090,2362.674805 
	C613.863647,2366.510254 613.863647,2369.482422 613.863647,2373.370361 
	C609.326355,2373.370361 605.247437,2373.370361 600.406494,2373.370361 
	C598.458984,2365.064697 599.835693,2356.160889 599.594971,2347.370117 
	C599.350098,2338.431152 599.540833,2329.480713 599.540833,2320.304932 
	C601.331787,2319.846924 602.557617,2319.267090 603.784851,2319.263916 
	C610.065369,2319.248291 616.057129,2321.030273 622.699951,2318.642090 
	C628.286316,2316.634033 633.550293,2320.565186 636.406860,2326.173828 
	C639.721558,2332.681396 640.176331,2339.522461 638.293396,2346.533447 
	C635.455383,2357.100830 629.552979,2361.112305 618.605042,2360.293701 
	C617.098511,2360.180908 615.501648,2361.275635 613.905090,2362.674805 
M619.028442,2329.972656 
	C610.483887,2332.091064 614.642822,2339.000732 614.092163,2343.925293 
	C613.916809,2345.492676 616.393738,2348.845459 617.416138,2348.751709 
	C619.616333,2348.550293 622.993225,2347.054199 623.519958,2345.354004 
	C625.148682,2340.096924 626.777893,2334.273926 619.028442,2329.972656 
z"/>
<path fill="#F4FAED" opacity="1.000000" stroke="none" 
	d="
M522.033813,2333.541504 
	C523.448242,2328.341064 524.698059,2323.905518 526.007080,2319.259766 
	C530.218689,2319.259766 533.765625,2319.259766 537.116760,2319.259766 
	C537.631653,2320.231201 538.320740,2320.930664 538.179688,2321.352539 
	C533.543152,2335.219482 529.280762,2349.236816 523.973511,2362.845947 
	C519.986145,2373.071045 514.082947,2376.014893 503.699097,2375.077881 
	C503.100616,2375.023926 502.545929,2374.485107 501.352783,2373.835449 
	C501.680420,2369.788818 499.875183,2365.019043 506.926941,2363.722412 
	C512.075745,2362.775635 512.633850,2359.013916 510.767029,2354.493164 
	C507.212128,2345.884033 503.796997,2337.216064 500.402710,2328.541748 
	C499.349945,2325.851562 498.552246,2323.061523 497.360443,2319.484863 
	C502.116974,2319.484863 505.947754,2319.484863 510.848541,2319.484863 
	C513.266541,2326.514893 515.814758,2333.923340 518.891968,2342.870117 
	C520.237610,2338.999512 521.053345,2336.652832 522.033813,2333.541504 
z"/>
<path fill="#F6FAF0" opacity="1.000000" stroke="none" 
	d="
M460.675812,2359.278809 
	C450.816467,2348.595215 452.896423,2340.029541 465.722412,2335.627686 
	C468.722717,2334.598389 471.773163,2333.714844 475.368561,2332.585693 
	C469.797394,2329.369385 469.797394,2329.369385 460.759827,2331.674072 
	C459.981293,2330.608398 458.960205,2329.387939 458.146515,2328.042236 
	C457.481079,2326.941406 457.063232,2325.690918 456.480255,2324.382568 
	C457.207336,2323.525879 457.680359,2322.534668 458.457306,2322.137451 
	C460.515167,2321.084473 462.646973,2320.102539 464.850800,2319.419678 
	C480.818176,2314.472656 490.339264,2320.962891 491.088654,2337.505615 
	C491.414978,2344.709717 491.143463,2351.940430 491.143463,2359.230957 
	C485.185547,2358.793457 480.142639,2357.275879 475.788300,2358.407715 
	C470.868042,2359.686768 466.347992,2361.318359 460.675812,2359.278809 
M471.795349,2343.241455 
	C469.625153,2344.662354 466.659973,2346.219727 469.930298,2348.867676 
	C470.915741,2349.665283 474.689423,2348.774658 475.598480,2347.513428 
	C477.077362,2345.461670 477.550690,2342.296143 471.795349,2343.241455 
z"/>
<path fill="#F7FBF2" opacity="1.000000" stroke="none" 
	d="
M359.109070,2318.550781 
	C361.911316,2318.248535 363.915436,2317.931396 365.895355,2318.042969 
	C375.556763,2318.587402 380.826111,2323.000000 381.637878,2332.712158 
	C382.352478,2341.262207 381.787354,2349.918945 381.787354,2358.953125 
	C380.207733,2359.338867 378.963104,2359.988281 377.796478,2359.869873 
	C371.457367,2359.225830 365.386719,2358.415527 358.823547,2360.246582 
	C352.748596,2361.941406 347.650543,2357.512695 346.157806,2351.660889 
	C344.627563,2345.661865 346.792480,2340.309082 352.630676,2337.519775 
	C356.950195,2335.455811 361.664917,2334.218994 367.423645,2332.182129 
	C361.652313,2327.621582 357.066193,2330.988037 352.006622,2331.857178 
	C350.541290,2329.384277 349.101501,2326.954590 346.988586,2323.388916 
	C351.225525,2321.645020 354.762634,2320.189209 359.109070,2318.550781 
M363.632874,2342.941650 
	C361.438477,2344.208008 358.356262,2345.436035 360.853455,2348.466553 
	C361.584290,2349.353516 365.376373,2349.042480 366.526642,2347.961670 
	C368.453400,2346.151855 369.146515,2343.352783 363.632874,2342.941650 
z"/>
<path fill="#F6FAF0" opacity="1.000000" stroke="none" 
	d="
M336.917908,2356.986816 
	C332.245514,2358.542480 328.145966,2360.177246 323.952942,2360.469482 
	C315.618347,2361.050049 308.911957,2357.594971 305.114532,2349.970215 
	C301.099792,2341.908936 301.612549,2333.805664 306.765411,2326.332520 
	C311.521515,2319.434570 320.288391,2316.408447 327.863434,2318.670166 
	C335.368866,2320.911377 339.855255,2327.080566 340.274109,2336.050049 
	C340.378967,2338.296143 339.936127,2340.567871 339.658691,2343.848633 
	C335.693024,2343.848633 332.133392,2343.848633 328.573761,2343.848633 
	C325.287903,2343.848633 322.002075,2343.848633 317.686615,2343.848633 
	C321.837250,2353.067871 328.600281,2348.739014 335.253815,2348.911621 
	C335.929291,2351.234375 336.688904,2353.846680 336.917908,2356.986816 
M325.717377,2334.185303 
	C326.271271,2333.502930 326.825165,2332.820801 327.379089,2332.138672 
	C325.558167,2331.134521 323.752472,2329.401123 321.911377,2329.362793 
	C320.503082,2329.333252 319.050018,2331.446777 316.053741,2333.872803 
	C320.352386,2334.134766 322.281128,2334.252441 325.717377,2334.185303 
z"/>
<path fill="#F7FBF2" opacity="1.000000" stroke="none" 
	d="
M673.718811,2359.754883 
	C669.682434,2360.164307 666.349731,2360.773682 663.093567,2360.493652 
	C653.545837,2359.672119 647.317444,2353.723389 645.580505,2344.270752 
	C643.729004,2334.194580 647.907898,2324.358398 655.905396,2320.417480 
	C662.690857,2317.073730 669.589844,2317.022949 675.651184,2321.745850 
	C682.786011,2327.304932 683.525696,2334.960449 681.377747,2344.028809 
	C674.375610,2344.028809 667.544373,2344.028809 659.617859,2344.028809 
	C664.089294,2353.131348 670.805298,2348.880371 676.878723,2349.029053 
	C677.982483,2351.024414 679.201782,2353.228516 680.726074,2355.984131 
	C678.313293,2357.356201 676.385376,2358.452393 673.718811,2359.754883 
M662.065552,2329.889893 
	C661.306213,2330.774902 660.546875,2331.659912 659.024780,2333.433838 
	C661.648132,2333.877441 663.127502,2334.366699 664.586304,2334.311279 
	C666.288757,2334.246826 667.973145,2333.707031 670.319275,2333.244385 
	C668.394958,2329.633057 666.386780,2328.582031 662.065552,2329.889893 
z"/>
<path fill="#F4FAED" opacity="1.000000" stroke="none" 
	d="
M266.519531,2349.677002 
	C263.192078,2339.534912 260.141113,2330.142822 256.743988,2319.685059 
	C261.822235,2319.685059 265.858063,2319.685059 270.748230,2319.685059 
	C272.892456,2327.629639 275.078857,2335.730225 277.265228,2343.831055 
	C277.939911,2343.808594 278.614594,2343.786133 279.289276,2343.763916 
	C281.495331,2335.708496 283.701385,2327.653076 285.952271,2319.434082 
	C290.342865,2319.434082 294.150116,2319.434082 299.367706,2319.434082 
	C294.986542,2333.186523 290.902710,2346.005859 286.655243,2359.338623 
	C281.147583,2359.338623 275.992096,2359.338623 270.228241,2359.338623 
	C269.142242,2356.518799 267.969147,2353.472900 266.519531,2349.677002 
z"/>
<path fill="#F7FBF2" opacity="1.000000" stroke="none" 
	d="
M574.494690,2350.756104 
	C566.795776,2362.599609 555.351624,2363.940186 542.071350,2354.817627 
	C543.666687,2352.445068 545.265930,2350.066650 547.086182,2347.359375 
	C549.621033,2348.186768 551.714600,2349.151855 553.906799,2349.505371 
	C556.062561,2349.853516 558.318420,2349.581299 561.016052,2349.581299 
	C559.557312,2344.080811 554.805542,2344.185547 551.644043,2342.306641 
	C544.663635,2338.157959 542.071289,2332.903076 544.556946,2326.737793 
	C546.467651,2321.998535 550.375366,2319.522217 555.136658,2318.510986 
	C561.999084,2317.053711 568.312561,2318.393066 574.429199,2323.415771 
	C572.901855,2325.844971 571.389099,2328.250732 569.994751,2330.468262 
	C565.758850,2329.887695 562.125916,2329.389893 558.052734,2328.831543 
	C558.783081,2334.558838 562.947998,2334.288818 565.656494,2335.463867 
	C572.210083,2338.307373 576.108826,2342.434326 574.494690,2350.756104 
z"/>
<path fill="#F7FBF2" opacity="1.000000" stroke="none" 
	d="
M711.278809,2330.925781 
	C706.013489,2333.373047 704.531250,2337.142578 704.600525,2341.860840 
	C704.683289,2347.493408 704.620056,2353.127930 704.620056,2359.399170 
	C699.734070,2359.399170 695.620361,2359.399170 690.869873,2359.399170 
	C690.869873,2346.271240 690.869873,2333.436768 690.869873,2320.289551 
	C695.892700,2318.538086 700.476624,2317.996338 704.171387,2323.628662 
	C708.562500,2320.315186 712.772583,2316.723877 719.740295,2319.257080 
	C719.234070,2322.595459 718.718750,2325.993408 718.120056,2329.941406 
	C715.871460,2330.206543 713.976135,2330.429932 711.278809,2330.925781 
z"/>
<path fill="#F4FAED" opacity="1.000000" stroke="none" 
	d="
M237.731995,2320.197266 
	C242.185837,2319.410156 246.039383,2319.204834 250.551331,2318.964111 
	C250.551331,2332.822266 250.551331,2345.623047 250.551331,2359.219727 
	C246.288239,2359.219727 242.188263,2359.219727 236.889328,2359.219727 
	C236.515549,2346.446045 236.147934,2333.629150 237.731995,2320.197266 
z"/>
<path fill="#F4FAED" opacity="1.000000" stroke="none" 
	d="
M242.385925,2313.733887 
	C237.806702,2312.182373 235.146896,2309.535400 236.382858,2305.437012 
	C237.019684,2303.325439 239.427063,2301.113525 241.565613,2300.223877 
	C245.754623,2298.480713 250.824875,2301.464355 251.653351,2305.466064 
	C252.492249,2309.518066 250.085312,2311.895996 242.385925,2313.733887 
z"/>
<path fill="#8516EE" opacity="1.000000" stroke="none" 
	d="
M762.245728,2331.868652 
	C768.037842,2333.583740 765.125427,2338.572998 765.445435,2343.229492 
	C764.339539,2340.106934 763.315430,2336.355225 762.245728,2331.868652 
z"/>
<path fill="#7A04EB" opacity="1.000000" stroke="none" 
	d="
M1853.094727,1932.968262 
	C1841.834229,1949.965454 1825.889282,1956.763062 1806.909790,1957.362915 
	C1799.030518,1957.611816 1791.124634,1957.023071 1782.435303,1956.794434 
	C1782.435303,1904.647827 1782.435303,1853.631714 1782.435303,1802.728516 
	C1808.895386,1796.065918 1838.659546,1808.201904 1852.554688,1831.104004 
	C1872.909546,1864.652954 1872.166382,1898.423706 1853.094727,1932.968262 
z"/>
<path fill="#7B0AE6" opacity="1.000000" stroke="none" 
	d="
M1257.798218,1873.470947 
	C1262.680908,1851.307007 1267.361572,1829.946533 1272.233154,1808.629395 
	C1272.671753,1806.709839 1274.342896,1805.071777 1276.652832,1801.353516 
	C1287.191650,1837.944458 1297.104736,1872.362183 1307.432007,1908.218384 
	C1288.013306,1910.386108 1269.738037,1909.068604 1249.867676,1908.521729 
	C1251.271606,1901.989746 1252.427002,1896.357788 1253.702026,1890.752930 
	C1254.953979,1885.249512 1256.327515,1879.773804 1257.798218,1873.470947 
z"/>
<path fill="#7B0AE6" opacity="1.000000" stroke="none" 
	d="
M2114.080322,1908.501221 
	C2095.813477,1909.785278 2078.372070,1909.231689 2059.715820,1908.222656 
	C2068.343506,1872.203247 2076.591309,1837.554321 2084.674805,1802.865234 
	C2085.708252,1802.827148 2086.741699,1802.789062 2087.775146,1802.750977 
	C2089.379150,1807.755371 2091.188721,1812.704590 2092.552734,1817.773682 
	C2100.154541,1846.023071 2107.677246,1874.293823 2115.105957,1902.588989 
	C2115.554688,1904.298706 2114.962646,1906.281860 2114.080322,1908.501221 
z"/>
<path fill="#8516EE" opacity="1.000000" stroke="none" 
	d="
M837.141113,2341.551758 
	C836.459412,2344.169922 836.281555,2346.351318 835.157104,2347.796875 
	C832.536743,2351.166016 827.835876,2350.664795 826.691895,2346.635254 
	C825.660889,2343.003418 825.549927,2338.839355 826.202026,2335.114502 
	C826.534973,2333.212402 829.416321,2330.484619 831.174927,2330.462646 
	C832.924500,2330.440918 835.135864,2333.079590 836.343445,2335.044189 
	C837.276062,2336.561768 836.970154,2338.840332 837.141113,2341.551758 
z"/>
<path fill="#F4EBFD" opacity="1.000000" stroke="none" 
	d="
M783.760376,1852.286133 
	C791.179565,1853.325439 794.533203,1857.702393 794.846619,1863.910889 
	C795.294373,1872.781006 794.960571,1881.690674 794.960571,1891.230957 
	C790.718262,1891.230957 786.937988,1891.230957 781.753601,1891.230957 
	C781.753601,1883.895264 781.791992,1876.692017 781.734619,1869.489624 
	C781.711731,1866.618164 780.836365,1863.569092 777.424561,1864.327026 
	C775.448914,1864.765625 773.235779,1867.203491 772.476746,1869.243164 
	C771.604248,1871.587402 772.201965,1874.485596 772.193481,1877.143188 
	C772.178955,1881.714722 772.189453,1886.286255 772.189453,1891.340088 
	C767.305847,1891.340088 763.527222,1891.340088 759.171509,1891.340088 
	C759.171509,1873.662598 759.171509,1856.534790 759.171509,1838.718994 
	C763.304504,1838.718994 767.077698,1838.718994 771.727905,1838.718994 
	C771.727905,1843.979858 771.727905,1849.158813 771.727905,1854.920044 
	C776.106995,1853.880493 779.550415,1853.062988 783.760376,1852.286133 
z"/>
<path fill="#F7F0FE" opacity="1.000000" stroke="none" 
	d="
M616.932617,1848.620117 
	C619.762146,1841.009399 619.762146,1841.009399 631.941223,1842.837524 
	C629.489868,1851.095093 627.079651,1859.241211 624.652466,1867.382202 
	C622.291016,1875.302612 619.912170,1883.217896 617.453552,1891.427246 
	C612.135315,1891.427246 607.232788,1891.427246 601.292542,1891.427246 
	C598.869080,1883.462036 596.348938,1875.304321 593.908630,1867.122803 
	C591.543518,1859.193726 589.260437,1851.240356 586.693970,1842.450439 
	C591.530090,1842.450439 595.637329,1842.450439 600.597412,1842.450439 
	C603.202393,1852.818237 605.852905,1863.367188 608.667847,1874.570923 
	C613.185547,1871.059448 612.506042,1866.091309 613.763123,1862.016968 
	C615.031189,1857.907104 615.734680,1853.623047 616.932617,1848.620117 
z"/>
<path fill="#F7F0FE" opacity="1.000000" stroke="none" 
	d="
M490.238495,1866.155151 
	C491.269470,1860.800293 491.753174,1856.084961 493.445221,1851.852783 
	C496.020264,1845.411743 501.393188,1842.206299 508.332367,1842.094727 
	C515.292053,1841.982788 520.801758,1845.103882 523.560303,1851.402954 
	C528.322144,1862.276245 528.120422,1873.436890 522.873596,1884.120972 
	C520.007507,1889.957153 514.760071,1892.631714 508.141846,1892.485962 
	C501.499237,1892.339722 496.316711,1889.399780 493.994843,1883.333374 
	C492.018188,1878.169067 491.433075,1872.472290 490.238495,1866.155151 
M514.219360,1867.009521 
	C513.695984,1863.094482 513.428162,1859.117432 512.500977,1855.300537 
	C512.204468,1854.079956 510.015411,1852.344360 508.951599,1852.510132 
	C507.293915,1852.768066 504.940033,1854.152222 504.480255,1855.575562 
	C501.968292,1863.351562 502.012482,1871.301514 504.695374,1879.051514 
	C505.118988,1880.275269 507.277069,1881.876465 508.328094,1881.679077 
	C509.958862,1881.372681 512.155090,1879.946899 512.636414,1878.503662 
	C513.663391,1875.424072 513.743835,1872.028687 514.219360,1867.009521 
z"/>
<path fill="#F4EBFD" opacity="1.000000" stroke="none" 
	d="
M426.028809,1891.876099 
	C419.773743,1891.876099 414.466125,1891.876099 409.217926,1891.876099 
	C402.342834,1882.711792 416.656250,1880.336670 414.699829,1872.400879 
	C413.569611,1872.019775 412.057495,1871.596924 410.613922,1871.006348 
	C406.652496,1869.385986 406.846771,1865.741089 409.229858,1864.058105 
	C412.382385,1861.831665 411.993866,1859.217896 412.406097,1856.359009 
	C413.401306,1849.457642 417.237549,1844.736572 424.001190,1842.882324 
	C431.151245,1840.921997 437.653564,1841.828857 443.099976,1848.484985 
	C440.312805,1851.584351 438.880737,1854.811157 433.505646,1853.645264 
	C426.622314,1852.152466 425.885162,1853.481812 426.504608,1862.168457 
	C429.316467,1862.555664 432.204559,1862.953491 435.795532,1863.447998 
	C436.009186,1865.515625 436.229553,1867.648193 436.507477,1870.337769 
	C430.938782,1871.131104 425.199219,1871.728638 426.594849,1879.843262 
	C431.672638,1880.076782 436.910339,1880.317749 442.980347,1880.596924 
	C442.980347,1884.147949 442.980347,1887.483521 442.980347,1891.876099 
	C437.465363,1891.876099 432.220795,1891.876099 426.028809,1891.876099 
z"/>
<path fill="#F7F0FE" opacity="1.000000" stroke="none" 
	d="
M567.742615,1875.608887 
	C564.355469,1890.048462 555.515625,1893.281494 548.248169,1892.386475 
	C539.533142,1891.313354 533.401978,1884.264282 532.539612,1872.253540 
	C532.099121,1866.118042 532.833679,1859.618774 534.478699,1853.683350 
	C536.559326,1846.176025 542.901794,1842.184570 550.122375,1842.062500 
	C557.338074,1841.940552 563.891541,1845.672241 565.909851,1853.333862 
	C567.718567,1860.199585 567.309387,1867.649780 567.742615,1875.608887 
M554.557068,1855.349243 
	C549.343811,1851.613647 546.862549,1851.682129 546.140076,1856.456665 
	C545.162048,1862.920654 545.323669,1869.637451 545.784668,1876.190308 
	C545.924927,1878.183838 548.424255,1881.269409 550.269897,1881.622314 
	C554.058105,1882.346436 555.328369,1878.580444 555.467834,1875.720825 
	C555.773621,1869.452026 555.361206,1863.148071 554.557068,1855.349243 
z"/>
<path fill="#F7F0FE" opacity="1.000000" stroke="none" 
	d="
M698.063721,1890.036133 
	C684.356934,1894.843384 678.308411,1890.934937 677.820312,1877.546143 
	C677.603027,1871.584229 677.740906,1865.608643 677.769104,1859.639526 
	C677.776855,1857.996704 677.970581,1856.354614 678.124878,1854.016357 
	C682.064819,1854.016357 685.870605,1854.016357 691.015930,1854.016357 
	C691.083679,1859.400513 691.144043,1864.889160 691.226440,1870.377563 
	C691.256287,1872.365967 690.825562,1874.567017 691.539429,1876.282104 
	C692.275146,1878.049438 694.149109,1879.342896 695.525146,1880.843628 
	C697.068604,1879.372559 699.755371,1878.034424 699.944946,1876.405762 
	C700.554626,1871.166504 700.217285,1865.819702 700.299927,1860.515137 
	C700.330383,1858.560059 700.513306,1856.607422 700.665222,1853.989990 
	C705.023438,1853.989990 709.136658,1853.989990 713.432617,1853.989990 
	C713.432617,1866.713989 713.432617,1878.857910 713.432617,1891.109497 
	C708.683899,1892.043335 704.491638,1893.125732 701.303833,1888.690430 
	C701.158447,1888.488403 699.591492,1889.308228 698.063721,1890.036133 
z"/>
<path fill="#F4EBFD" opacity="1.000000" stroke="none" 
	d="
M326.997131,1885.890137 
	C326.933929,1889.919800 325.456818,1891.475342 322.074036,1891.440796 
	C312.476654,1891.342896 302.877655,1891.406494 293.516357,1891.406494 
	C290.670074,1886.607788 291.995148,1883.406616 295.269409,1880.332275 
	C299.138733,1876.699463 302.807892,1872.847168 306.455597,1868.987671 
	C307.812866,1867.551514 308.998993,1865.907837 310.026154,1864.214966 
	C311.995636,1860.968994 313.478119,1857.303589 310.625458,1854.071533 
	C307.578888,1850.619629 304.017517,1852.189209 300.771149,1854.337769 
	C300.220306,1854.702393 299.638000,1855.019531 298.486115,1855.707642 
	C296.476685,1853.967651 294.310883,1852.092163 292.363770,1850.406128 
	C292.664551,1849.178223 292.624268,1848.414185 292.985870,1848.007935 
	C296.987732,1843.512451 302.072388,1841.572754 308.050201,1841.634033 
	C320.844116,1841.765259 328.115570,1852.580322 322.813202,1864.290039 
	C320.545776,1869.297485 317.089539,1873.766602 313.546387,1879.494019 
	C317.046204,1879.671143 319.851257,1879.958252 322.651703,1879.918823 
	C326.351410,1879.866821 327.056458,1882.097534 326.997131,1885.890137 
z"/>
<path fill="#F7F0FE" opacity="1.000000" stroke="none" 
	d="
M826.520508,1892.128906 
	C810.661499,1892.487549 802.437866,1885.800293 802.152649,1873.018066 
	C801.892029,1861.338135 810.868164,1851.834961 821.713562,1852.308716 
	C832.942871,1852.799194 838.764282,1861.605103 836.743530,1875.995850 
	C830.464966,1876.285278 824.014221,1876.582520 816.535706,1876.927246 
	C820.635742,1885.202759 826.749634,1881.026611 832.336426,1881.625000 
	C833.312256,1883.445923 834.485168,1885.634766 836.067871,1888.588135 
	C832.674866,1889.911987 829.967041,1890.968628 826.520508,1892.128906 
M816.980652,1864.319092 
	C817.106567,1865.391602 817.161072,1867.381348 817.369141,1867.397583 
	C820.065125,1867.607300 822.782898,1867.536621 826.404419,1867.536621 
	C824.244568,1862.432495 821.799011,1861.498535 816.980652,1864.319092 
z"/>
<path fill="#F7F0FE" opacity="1.000000" stroke="none" 
	d="
M632.681213,1875.182861 
	C632.689087,1872.427002 632.562134,1870.390503 632.990601,1868.478516 
	C635.294678,1858.197876 643.184448,1851.786621 652.706787,1852.288696 
	C662.750427,1852.818237 670.395081,1860.751831 670.982483,1871.255127 
	C671.552551,1881.448730 665.330811,1890.163574 656.118530,1892.075562 
	C645.848816,1894.206909 637.590027,1889.363403 633.601501,1878.840576 
	C633.249756,1877.912598 633.065002,1876.921387 632.681213,1875.182861 
M656.105957,1878.955933 
	C656.489624,1877.690796 657.108643,1876.444824 657.213867,1875.156982 
	C657.564148,1870.868530 658.089539,1866.308105 653.481628,1863.819702 
	C652.358582,1863.213379 650.125854,1863.670654 648.905640,1864.437866 
	C646.180237,1866.151245 645.245850,1873.271851 646.833069,1877.471558 
	C646.949829,1877.780640 647.080017,1878.088501 647.240967,1878.376221 
	C649.230591,1881.931030 651.782288,1883.071411 656.105957,1878.955933 
z"/>
<path fill="#F7F0FE" opacity="1.000000" stroke="none" 
	d="
M460.575287,1891.848633 
	C457.080078,1891.711426 454.495178,1891.574585 451.271912,1891.403809 
	C451.105621,1888.057861 450.965576,1885.240601 450.806946,1882.049072 
	C454.470276,1881.162964 457.547394,1880.418579 461.000793,1879.583252 
	C461.000793,1872.133545 461.000793,1864.930298 461.000793,1857.182983 
	C458.374084,1856.440308 455.617889,1855.661011 452.503784,1854.780396 
	C452.503784,1852.656982 452.503784,1850.459351 452.503784,1848.083496 
	C459.621307,1845.920288 465.774292,1841.022949 474.276550,1843.892944 
	C474.276550,1855.301880 474.276550,1866.829712 474.276550,1878.616333 
	C476.167358,1879.467896 477.546570,1880.189819 478.997894,1880.711426 
	C480.218628,1881.150269 481.523224,1881.355713 483.230743,1881.771606 
	C483.230743,1884.771240 483.230743,1887.641357 483.230743,1891.848877 
	C475.874603,1891.848877 468.680115,1891.848877 460.575287,1891.848633 
z"/>
<path fill="#F4EBFD" opacity="1.000000" stroke="none" 
	d="
M356.784180,1867.753662 
	C354.045746,1863.125244 351.712158,1859.110229 349.364136,1855.070312 
	C358.436035,1851.059692 359.888794,1851.563232 368.744965,1861.885254 
	C370.116333,1859.159546 371.398865,1856.610352 372.876984,1853.672607 
	C374.568390,1853.419312 376.494110,1852.970093 378.435669,1852.885742 
	C380.390015,1852.800537 382.360199,1853.078003 386.027161,1853.299683 
	C382.451447,1860.132690 379.329498,1866.098511 375.833893,1872.778320 
	C379.046997,1878.189941 382.387665,1883.816528 385.758392,1889.493652 
	C375.112488,1893.259888 374.091797,1892.841431 366.367310,1881.057983 
	C364.434692,1884.481934 362.758362,1887.451904 360.785492,1890.947144 
	C357.198364,1890.947144 353.315948,1890.947144 347.623596,1890.947144 
	C350.568726,1885.846802 353.048340,1881.708984 355.366516,1877.482666 
	C356.909180,1874.670166 359.579620,1871.998901 356.784180,1867.753662 
z"/>
<path fill="#F7F0FE" opacity="1.000000" stroke="none" 
	d="
M725.164795,1859.314453 
	C736.049072,1850.745850 742.226257,1850.229370 751.728210,1856.885132 
	C749.376648,1860.171387 748.447693,1864.115234 742.464172,1863.665161 
	C736.580688,1863.222778 733.728821,1867.429199 734.188721,1873.336060 
	C734.656982,1879.350098 737.855835,1881.975342 744.066162,1881.333984 
	C745.295349,1881.207031 746.490540,1880.751343 747.945251,1880.385986 
	C749.461365,1882.929199 750.775757,1885.134033 751.947510,1887.099731 
	C751.453552,1888.133667 751.333252,1889.004395 750.878174,1889.246826 
	C741.615967,1894.181763 732.247620,1893.411499 726.126709,1887.288940 
	C719.300720,1880.461304 718.777893,1870.680908 725.164795,1859.314453 
z"/>
<path fill="#F4EBFD" opacity="1.000000" stroke="none" 
	d="
M867.888306,1864.037109 
	C858.904480,1866.781006 858.360596,1867.322754 858.142029,1874.802368 
	C857.988159,1880.068359 858.112244,1885.342529 858.112244,1891.239502 
	C853.403442,1891.239502 849.596252,1891.239502 845.107056,1891.239502 
	C845.107056,1878.911133 845.107056,1866.770142 845.107056,1854.221191 
	C849.737000,1853.064331 854.201294,1851.475586 857.086365,1857.538330 
	C861.386841,1854.811157 865.335022,1850.642212 871.624634,1853.110718 
	C872.130493,1857.302734 872.377380,1861.097412 867.888306,1864.037109 
z"/>
<path fill="#78BD22" opacity="1.000000" stroke="none" 
	d="
M619.876709,2330.089355 
	C626.777893,2334.273926 625.148682,2340.096924 623.519958,2345.354004 
	C622.993225,2347.054199 619.616333,2348.550293 617.416138,2348.751709 
	C616.393738,2348.845459 613.916809,2345.492676 614.092163,2343.925293 
	C614.642822,2339.000732 610.483887,2332.091064 619.876709,2330.089355 
z"/>
<path fill="#78BD22" opacity="1.000000" stroke="none" 
	d="
M472.389740,2342.977539 
	C477.550690,2342.296143 477.077362,2345.461670 475.598480,2347.513428 
	C474.689423,2348.774658 470.915741,2349.665283 469.930298,2348.867676 
	C466.659973,2346.219727 469.625153,2344.662354 472.389740,2342.977539 
z"/>
<path fill="#78BD22" opacity="1.000000" stroke="none" 
	d="
M364.338074,2342.734375 
	C369.146515,2343.352783 368.453400,2346.151855 366.526642,2347.961670 
	C365.376373,2349.042480 361.584290,2349.353516 360.853455,2348.466553 
	C358.356262,2345.436035 361.438477,2344.208008 364.338074,2342.734375 
z"/>
<path fill="#78BD22" opacity="1.000000" stroke="none" 
	d="
M324.963623,2334.277832 
	C322.281128,2334.252441 320.352386,2334.134766 316.053741,2333.872803 
	C319.050018,2331.446777 320.503082,2329.333252 321.911377,2329.362793 
	C323.752472,2329.401123 325.558167,2331.134521 327.379059,2332.138672 
	C326.825165,2332.820801 326.271271,2333.502930 324.963623,2334.277832 
z"/>
<path fill="#78BD22" opacity="1.000000" stroke="none" 
	d="
M662.756470,2329.602051 
	C666.386780,2328.582031 668.394958,2329.633057 670.319275,2333.244385 
	C667.973145,2333.707031 666.288757,2334.246826 664.586304,2334.311279 
	C663.127502,2334.366699 661.648132,2333.877441 659.024780,2333.433838 
	C660.546875,2331.659912 661.306213,2330.774902 662.756470,2329.602051 
z"/>
<path fill="#8516EE" opacity="1.000000" stroke="none" 
	d="
M514.215698,1867.886108 
	C513.743835,1872.028687 513.663391,1875.424072 512.636414,1878.503662 
	C512.155090,1879.946899 509.958862,1881.372681 508.328094,1881.679077 
	C507.277069,1881.876465 505.118988,1880.275269 504.695374,1879.051514 
	C502.012482,1871.301514 501.968292,1863.351562 504.480255,1855.575562 
	C504.940033,1854.152222 507.293915,1852.768066 508.951599,1852.510132 
	C510.015411,1852.344360 512.204468,1854.079956 512.500977,1855.300537 
	C513.428162,1859.117432 513.695984,1863.094482 514.215698,1867.886108 
z"/>
<path fill="#8516EE" opacity="1.000000" stroke="none" 
	d="
M554.899597,1856.103882 
	C555.361206,1863.148071 555.773621,1869.452026 555.467834,1875.720825 
	C555.328369,1878.580444 554.058105,1882.346436 550.269897,1881.622314 
	C548.424255,1881.269409 545.924927,1878.183838 545.784668,1876.190308 
	C545.323669,1869.637451 545.162048,1862.920654 546.140076,1856.456665 
	C546.862549,1851.682129 549.343811,1851.613647 554.899597,1856.103882 
z"/>
<path fill="#8516EE" opacity="1.000000" stroke="none" 
	d="
M817.576660,1863.865479 
	C821.799011,1861.498535 824.244568,1862.432495 826.404419,1867.536621 
	C822.782898,1867.536621 820.065125,1867.607300 817.369141,1867.397583 
	C817.161072,1867.381348 817.106567,1865.391602 817.576660,1863.865479 
z"/>
<path fill="#8516EE" opacity="1.000000" stroke="none" 
	d="
M655.678345,1879.589478 
	C651.782288,1883.071411 649.230591,1881.931030 647.240967,1878.376221 
	C647.080017,1878.088501 646.949829,1877.780640 646.833069,1877.471558 
	C645.245850,1873.271851 646.180237,1866.151245 648.905640,1864.437866 
	C650.125854,1863.670654 652.358582,1863.213379 653.481628,1863.819702 
	C658.089539,1866.308105 657.564148,1870.868530 657.213867,1875.156982 
	C657.108643,1876.444824 656.489624,1877.690796 655.678345,1879.589478 
z"/>
</svg>