<svg width="402.15" height="111.15" viewBox="0 0 402.15 111.15" xmlns="http://www.w3.org/2000/svg">
	<g id="svgGroup" stroke-linecap="round" fill-rule="evenodd" font-size="9pt" stroke="#000" stroke-width="0.25mm" fill="none" style="stroke:#000;stroke-width:0.25mm;fill:none">
		<path d="M 1.05 109.5 L 1.35 107.85 A 6.818 6.818 0 0 0 1.897 106.255 Q 3.047 101.536 3.9 85.875 Q 4.95 66.6 4.95 49.875 A 711.673 711.673 0 0 0 4.908 41.925 Q 4.799 32.209 4.41 25.234 A 204.593 204.593 0 0 0 4.275 23.025 Q 3.6 12.9 0.6 8.4 Q 0 7.65 0 6.6 A 1.295 1.295 0 0 1 0.332 5.753 Q 0.696 5.32 1.457 4.953 A 6.953 6.953 0 0 1 1.8 4.8 Q 14.1 0 35.25 0 A 44.742 44.742 0 0 1 41.261 0.426 A 59.128 59.128 0 0 1 46.65 1.425 A 58.017 58.017 0 0 1 50.957 2.589 Q 53.04 3.244 54.792 4.003 A 28.415 28.415 0 0 1 56.775 4.95 A 19.365 19.365 0 0 1 61.231 8.237 A 26.056 26.056 0 0 1 63.975 11.4 A 18.775 18.775 0 0 1 67.38 19.536 A 23.472 23.472 0 0 1 67.65 21.75 A 39.108 39.108 0 0 1 66.661 30.932 Q 63.678 43.256 51.691 46.352 A 29.262 29.262 0 0 1 49.65 46.8 A 3.917 3.917 0 0 0 49.344 46.915 Q 48.843 47.131 48.764 47.381 A 0.313 0.313 0 0 0 48.75 47.475 A 0.481 0.481 0 0 0 48.827 47.723 Q 48.99 47.994 49.5 48.3 A 30.527 30.527 0 0 1 59.132 51.475 A 27.348 27.348 0 0 1 65.1 55.8 A 16.64 16.64 0 0 1 67.378 58.381 Q 68.378 59.758 69.308 61.504 A 39.924 39.924 0 0 1 70.8 64.65 Q 73.35 70.65 73.35 78.45 A 34.087 34.087 0 0 1 68.208 96.371 A 41.25 41.25 0 0 1 67.5 97.5 A 25.549 25.549 0 0 1 56.171 106.972 A 32.714 32.714 0 0 1 53.55 108 Q 48.45 109.8 42.15 109.8 A 37.756 37.756 0 0 1 35.199 109.211 Q 31.518 108.519 28.77 107.016 A 14.4 14.4 0 0 1 22.2 99.75 Q 22.13 99.539 22.026 99.427 A 0.364 0.364 0 0 0 21.75 99.3 L 21.15 99.9 Q 18 110.4 3.15 110.85 Q 1.683 110.85 1.241 110.191 A 1.212 1.212 0 0 1 1.05 109.5 Z M 23.1 39.9 L 23.25 58.65 L 22.65 84.6 A 1.994 1.994 0 0 0 22.716 84.817 Q 22.798 85.033 22.909 85.127 A 0.289 0.289 0 0 0 23.1 85.2 A 0.464 0.464 0 0 0 23.355 85.13 Q 23.44 85.076 23.503 84.981 A 0.738 0.738 0 0 0 23.55 84.9 A 11.74 11.74 0 0 1 25.672 82.596 A 8.172 8.172 0 0 1 30.975 80.7 Q 34.48 80.7 35.209 81.829 A 1.21 1.21 0 0 1 35.4 82.5 Q 35.4 86.241 36.337 88.851 A 10.052 10.052 0 0 0 37.575 91.275 Q 39.75 94.35 43.725 94.35 Q 47.7 94.35 51.375 88.95 A 19.538 19.538 0 0 0 54.013 83.097 Q 55.05 79.331 55.05 74.55 Q 55.05 71.55 53.85 67.35 A 21.827 21.827 0 0 0 51.764 62.333 A 14.546 14.546 0 0 0 44.85 56.1 A 19.339 19.339 0 0 0 41.675 55.157 Q 38.196 54.406 32.992 54.215 A 102.327 102.327 0 0 0 29.25 54.15 A 1.218 1.218 0 0 1 28.683 54.027 Q 28.178 53.765 28.076 52.948 A 3.628 3.628 0 0 1 28.05 52.5 A 35.844 35.844 0 0 1 28.147 49.743 Q 28.589 44.046 31.05 43.8 A 17.718 17.718 0 0 0 35.749 43.136 A 24.4 24.4 0 0 0 39.6 41.7 Q 48.6 37.5 48.6 24.45 A 17.465 17.465 0 0 0 47.68 18.531 Q 44.895 10.782 33.677 10.373 A 35.041 35.041 0 0 0 32.4 10.35 L 27.75 10.65 Q 25.428 11.166 24.881 12.458 A 2.087 2.087 0 0 0 24.75 12.9 L 24.75 13.35 A 27.029 27.029 0 0 0 24.107 16.671 Q 23.326 22.234 23.151 33.136 A 421.867 421.867 0 0 0 23.1 39.9 Z" id="0" vector-effect="non-scaling-stroke"/>
		<path d="M 131.1 106.2 L 131.7 108.15 A 1.614 1.614 0 0 1 130.727 109.693 Q 130.005 110.052 128.746 110.094 A 10.294 10.294 0 0 1 128.4 110.1 A 31.295 31.295 0 0 1 123.968 109.813 Q 118.99 109.097 116.752 106.596 A 6.917 6.917 0 0 1 115.2 103.65 Q 115.05 102.9 114.525 102.9 A 0.964 0.964 0 0 0 113.988 103.069 Q 113.84 103.167 113.698 103.321 A 2.327 2.327 0 0 0 113.55 103.5 A 14.851 14.851 0 0 1 105.031 108.98 Q 102.368 109.65 99.15 109.65 A 24.082 24.082 0 0 1 92.579 108.698 A 31.9 31.9 0 0 1 87.9 106.95 A 11.727 11.727 0 0 1 83.63 103.564 A 16.066 16.066 0 0 1 82.05 101.175 Q 79.8 97.05 79.8 91.05 L 82.05 58.2 Q 82.05 47.85 79.95 43.5 A 28.109 28.109 0 0 1 79.695 42.924 Q 79.328 42.064 79.233 41.641 A 1.15 1.15 0 0 1 79.2 41.4 A 1.653 1.653 0 0 1 79.259 40.941 A 1.099 1.099 0 0 1 79.95 40.2 A 14.341 14.341 0 0 1 81.94 39.743 Q 83.756 39.45 86.1 39.45 Q 99.057 39.45 100.476 48.966 A 16.853 16.853 0 0 1 100.65 51.45 Q 100.65 54.495 98.623 63.866 A 359.406 359.406 0 0 1 97.575 68.55 A 234.984 234.984 0 0 0 96.23 74.742 Q 94.538 83.117 94.501 87.336 A 21.288 21.288 0 0 0 94.5 87.525 A 20.547 20.547 0 0 0 94.742 90.784 Q 95.273 94.088 96.975 96.15 A 8.081 8.081 0 0 0 102.411 99.061 A 11.697 11.697 0 0 0 103.875 99.15 A 9.981 9.981 0 0 0 107.046 98.669 A 8.124 8.124 0 0 0 110.85 96 Q 113.4 92.85 113.85 89.7 L 114.3 86.55 Q 114.9 81.3 114.9 68.1 A 340.73 340.73 0 0 0 114.871 63.49 Q 114.774 56.373 114.355 53.037 A 16.524 16.524 0 0 0 114.075 51.375 A 102.307 102.307 0 0 1 113.795 50.146 Q 113.384 48.288 113.283 47.415 A 4.21 4.21 0 0 1 113.25 46.95 Q 113.25 43.2 119.25 41.025 A 41.617 41.617 0 0 1 123.927 39.617 Q 126.356 39.048 128.552 38.901 A 22.469 22.469 0 0 1 130.05 38.85 A 4.129 4.129 0 0 1 130.871 38.924 Q 132.138 39.183 132.282 40.339 A 2.521 2.521 0 0 1 132.3 40.65 A 170.137 170.137 0 0 0 130.708 53.437 Q 129.6 65.852 129.6 81.9 Q 129.6 97.816 130.716 104.356 A 23.244 23.244 0 0 0 131.1 106.2 Z" id="1" vector-effect="non-scaling-stroke"/>
		<path d="M 142.95 102.9 L 144.6 67.95 A 85.434 85.434 0 0 0 144.433 62.386 Q 143.91 54.41 141.75 51 A 7.972 7.972 0 0 0 140.905 49.831 Q 140.326 49.173 139.651 48.751 A 3.564 3.564 0 0 0 139.65 48.75 Q 138.816 48.472 138.755 47.678 A 1.676 1.676 0 0 1 138.75 47.55 Q 138.75 44.85 146.4 42.3 Q 152.078 40.408 155.483 39.92 A 14.95 14.95 0 0 1 157.575 39.75 A 10.44 10.44 0 0 1 158.778 39.813 Q 161.128 40.088 161.25 41.55 A 52.19 52.19 0 0 1 161.221 43.063 Q 161.095 47.18 160.425 58.575 A 485.073 485.073 0 0 0 159.652 80.414 A 558.915 558.915 0 0 0 159.6 88.05 A 212.395 212.395 0 0 0 159.663 93.433 Q 159.874 101.718 160.788 105.433 A 9.552 9.552 0 0 0 161.4 107.25 A 3.341 3.341 0 0 1 161.723 107.953 A 2.611 2.611 0 0 1 161.85 108.75 A 1.309 1.309 0 0 1 161.146 109.88 Q 160.052 110.57 157.262 110.679 A 28.438 28.438 0 0 1 156.15 110.7 A 23.858 23.858 0 0 1 148.724 109.469 A 31.2 31.2 0 0 1 144.45 107.7 A 1.95 1.95 0 0 1 143.635 106.867 Q 142.979 105.689 142.951 103.129 A 21.114 21.114 0 0 1 142.95 102.9 Z M 154.95 27.15 L 151.35 27 A 13.059 13.059 0 0 0 149.608 27.107 Q 147.019 27.457 146.1 28.95 A 1.229 1.229 0 0 1 145.898 29.187 A 0.799 0.799 0 0 1 145.35 29.4 A 1.22 1.22 0 0 1 144.311 28.732 Q 143.4 27.288 143.4 22.725 Q 143.4 16.389 145.225 14.445 A 3.099 3.099 0 0 1 145.425 14.25 Q 147.215 12.659 151.348 12.474 A 25.25 25.25 0 0 1 152.475 12.45 A 22.92 22.92 0 0 1 154.753 12.555 Q 157.943 12.875 159.3 14.175 A 5.007 5.007 0 0 1 160.465 15.96 Q 161.06 17.446 161.098 19.653 A 17.65 17.65 0 0 1 161.1 19.95 Q 161.1 23.175 160.244 24.83 A 3.867 3.867 0 0 1 159.75 25.575 Q 158.4 27.15 154.95 27.15 Z" id="2" vector-effect="non-scaling-stroke"/>
		<path d="M 191.25 21.6 L 190.35 76.65 Q 190.35 101.909 191.932 107.327 A 8.082 8.082 0 0 0 192 107.55 A 4.334 4.334 0 0 1 192.364 108.563 A 3.675 3.675 0 0 1 192.45 109.35 A 1.325 1.325 0 0 1 191.704 110.532 Q 190.695 111.123 188.319 111.149 A 20.232 20.232 0 0 1 188.1 111.15 A 20.704 20.704 0 0 1 183.808 110.672 Q 181.254 110.131 178.425 108.975 Q 173.1 106.8 173.1 103.35 Q 176.1 82.35 176.1 47.25 L 175.5 24.3 A 24.717 24.717 0 0 0 175.022 20.855 Q 174.577 18.788 173.775 17.1 A 21.129 21.129 0 0 0 173.067 15.731 Q 172.013 13.875 171 13.2 L 169.8 12.45 Q 168.778 11.866 168.751 11.14 A 1.064 1.064 0 0 1 168.75 11.1 A 2.028 2.028 0 0 1 169.207 9.92 Q 170.226 8.528 173.52 6.796 A 44.978 44.978 0 0 1 175.275 5.925 A 33.794 33.794 0 0 1 181.706 3.619 A 26.418 26.418 0 0 1 187.95 2.85 A 5.229 5.229 0 0 1 188.892 2.928 Q 189.38 3.017 189.736 3.211 A 1.747 1.747 0 0 1 190.65 4.5 A 30.251 30.251 0 0 1 190.884 6.651 Q 191.25 11.288 191.25 21.6 Z" id="3" vector-effect="non-scaling-stroke"/>
		<path d="M 238.65 41.4 L 239.55 40.65 L 238.95 24.3 A 23.32 23.32 0 0 0 238.458 20.855 Q 238.037 18.981 237.305 17.42 A 14.158 14.158 0 0 0 237.15 17.1 A 26.538 26.538 0 0 0 236.419 15.731 Q 235.35 13.875 234.45 13.2 L 233.1 12.45 Q 232.2 11.85 232.2 11.1 A 2.11 2.11 0 0 1 232.707 9.833 Q 234.08 8.041 239.175 5.85 A 60.969 60.969 0 0 1 242.47 4.538 Q 247.125 2.85 250.05 2.85 Q 253.605 2.85 254.169 4.221 A 1.381 1.381 0 0 1 254.25 4.5 A 44.403 44.403 0 0 1 254.56 7.397 Q 254.897 11.654 254.976 19.081 A 457.327 457.327 0 0 1 255 23.925 Q 255 38.25 254.325 52.05 A 534.917 534.917 0 0 0 253.841 65.795 Q 253.65 74.041 253.65 83.325 A 218.376 218.376 0 0 0 253.729 89.422 Q 254.072 101.644 255.9 105.3 A 5.384 5.384 0 0 1 256.264 106.063 Q 256.426 106.491 256.477 106.892 A 2.855 2.855 0 0 1 256.5 107.25 Q 256.5 109.5 250.05 109.5 Q 237.75 109.5 237.75 103.65 Q 237.521 101.82 237.467 98.462 A 138.799 138.799 0 0 1 237.45 96.225 A 89.562 89.562 0 0 1 237.504 93.392 Q 237.679 87.983 238.425 77.475 A 601.591 601.591 0 0 0 238.852 71.006 Q 239.271 64.03 239.37 59.13 A 140.18 140.18 0 0 0 239.4 56.325 A 10.689 10.689 0 0 0 239.032 53.387 Q 238.088 50.092 234.725 49.217 A 10.939 10.939 0 0 0 231.975 48.9 Q 224.682 48.9 220.79 57.293 A 26.35 26.35 0 0 0 220.65 57.6 A 44.458 44.458 0 0 0 217.232 68.883 A 39.237 39.237 0 0 0 216.75 75 Q 216.75 85.972 220.039 90.419 A 7.1 7.1 0 0 0 226.05 93.45 Q 227.4 93.45 228.675 92.925 A 26.319 26.319 0 0 1 229.119 92.747 Q 229.987 92.408 230.239 92.4 A 0.373 0.373 0 0 1 230.25 92.4 A 1.721 1.721 0 0 1 231.579 93.023 Q 231.885 93.367 232.125 93.9 A 7.643 7.643 0 0 1 232.717 95.845 A 6.74 6.74 0 0 1 232.8 96.9 A 10.876 10.876 0 0 1 229.358 104.965 A 14.356 14.356 0 0 1 228.75 105.525 A 14.269 14.269 0 0 1 220.108 109.008 A 18.489 18.489 0 0 1 218.85 109.05 Q 209.85 109.05 205.275 101.175 Q 201.041 93.886 200.725 83.321 A 57.704 57.704 0 0 1 200.7 81.6 Q 200.7 66.75 207.75 54 Q 211.35 47.7 217.5 43.875 A 25.523 25.523 0 0 1 230.002 40.084 A 30.903 30.903 0 0 1 231.45 40.05 A 18.612 18.612 0 0 1 234.133 40.235 A 14.384 14.384 0 0 1 236.325 40.725 A 194.474 194.474 0 0 0 236.837 40.883 Q 238.367 41.353 238.614 41.396 A 0.237 0.237 0 0 0 238.65 41.4 Z" id="4" vector-effect="non-scaling-stroke"/>
		<path d="M 309.655 94.438 A 23.614 23.614 0 0 0 310.2 89.25 Q 310.2 88.35 309.6 86.7 A 6.146 6.146 0 0 0 309.51 86.466 Q 308.928 85.05 308.025 85.05 A 1.407 1.407 0 0 0 307.272 85.262 Q 306.798 85.555 306.45 86.25 A 19.923 19.923 0 0 1 305.751 87.644 A 16.753 16.753 0 0 1 302.55 91.8 Q 298.05 96 291.6 96 Q 285.15 96 281.85 91.8 A 15.125 15.125 0 0 1 281.599 91.411 Q 281.062 90.549 280.571 89.514 A 26.685 26.685 0 0 1 279.675 87.375 Q 278.7 84.75 278.7 83.4 Q 278.7 82.572 279.447 82.397 A 1.996 1.996 0 0 1 279.9 82.35 A 74.022 74.022 0 0 0 280.979 82.231 Q 289.003 81.281 295.05 78.75 A 59.955 59.955 0 0 0 295.317 78.637 Q 299.37 76.918 302.03 75.077 A 17.849 17.849 0 0 0 304.5 73.05 Q 307.5 70.05 309.3 66.3 Q 311.1 62.55 311.4 60.675 A 15.222 15.222 0 0 0 311.442 60.396 Q 311.613 59.183 311.671 57.459 A 56.558 56.558 0 0 0 311.7 55.575 Q 311.7 52.35 309.75 48.75 A 16.077 16.077 0 0 0 305.471 43.409 Q 302.475 41.004 298.182 40.007 A 29.776 29.776 0 0 0 291.45 39.3 A 34.185 34.185 0 0 0 286.565 39.637 A 23.932 23.932 0 0 0 269.175 50.7 A 44.786 44.786 0 0 0 264.507 60.098 A 49.048 49.048 0 0 0 261.75 76.725 Q 261.75 83.809 263.158 89.679 A 36.423 36.423 0 0 0 267.75 100.8 A 19.214 19.214 0 0 0 278.792 109.233 A 26.463 26.463 0 0 0 286.35 110.25 Q 290.85 110.25 295.8 108.75 A 28.453 28.453 0 0 0 298.366 107.828 A 22.934 22.934 0 0 0 302.625 105.525 A 12.485 12.485 0 0 0 303.858 104.548 Q 305.008 103.515 306.057 102.102 A 24.343 24.343 0 0 0 307.875 99.225 A 18.42 18.42 0 0 0 309.655 94.438 Z M 277.5 69.3 L 277.65 73.05 Q 277.65 73.833 278.558 73.935 A 2.625 2.625 0 0 0 278.85 73.95 Q 283.65 73.5 287.25 71.475 A 21.165 21.165 0 0 0 289.788 69.813 Q 291.057 68.836 291.98 67.759 A 11.594 11.594 0 0 0 292.65 66.9 A 36.124 36.124 0 0 0 294.537 63.657 Q 296.307 60.183 296.542 57.406 A 10.458 10.458 0 0 0 296.55 57.3 L 296.7 55.5 A 14.93 14.93 0 0 0 296.434 52.544 Q 295.503 47.959 291.318 47.461 A 9.043 9.043 0 0 0 290.25 47.4 Q 285.45 47.4 282.45 51.6 A 23.166 23.166 0 0 0 278.699 59.464 Q 277.802 62.735 277.576 66.616 A 46.18 46.18 0 0 0 277.5 69.3 Z" id="5" vector-effect="non-scaling-stroke"/>
		<path d="M 337.2 21.6 L 336.3 76.65 Q 336.3 101.909 337.882 107.327 A 8.082 8.082 0 0 0 337.95 107.55 A 4.334 4.334 0 0 1 338.314 108.563 A 3.675 3.675 0 0 1 338.4 109.35 A 1.325 1.325 0 0 1 337.654 110.532 Q 336.645 111.123 334.269 111.149 A 20.232 20.232 0 0 1 334.05 111.15 A 20.704 20.704 0 0 1 329.758 110.672 Q 327.204 110.131 324.375 108.975 Q 319.05 106.8 319.05 103.35 Q 322.05 82.35 322.05 47.25 L 321.45 24.3 A 24.717 24.717 0 0 0 320.972 20.855 Q 320.527 18.788 319.725 17.1 A 21.129 21.129 0 0 0 319.017 15.731 Q 317.963 13.875 316.95 13.2 L 315.75 12.45 Q 314.728 11.866 314.701 11.14 A 1.064 1.064 0 0 1 314.7 11.1 A 2.028 2.028 0 0 1 315.157 9.92 Q 316.176 8.528 319.47 6.796 A 44.978 44.978 0 0 1 321.225 5.925 A 33.794 33.794 0 0 1 327.656 3.619 A 26.418 26.418 0 0 1 333.9 2.85 A 5.229 5.229 0 0 1 334.842 2.928 Q 335.33 3.017 335.686 3.211 A 1.747 1.747 0 0 1 336.6 4.5 A 30.251 30.251 0 0 1 336.834 6.651 Q 337.2 11.288 337.2 21.6 Z" id="6" vector-effect="non-scaling-stroke"/>
		<path d="M 397.5 62.4 L 397.2 81.6 Q 397.2 101.55 401.55 105.6 A 2.211 2.211 0 0 1 401.938 106.112 A 1.739 1.739 0 0 1 402.15 106.95 A 1.277 1.277 0 0 1 401.411 108.022 Q 399.476 109.2 392.475 109.2 Q 382.8 109.2 382.2 103.5 A 14.584 14.584 0 0 1 382.142 102.773 Q 382.071 101.593 382.055 99.393 A 193.821 193.821 0 0 1 382.05 97.95 L 382.65 73.95 A 1.307 1.307 0 0 0 382.582 73.509 Q 382.375 72.932 381.544 72.902 A 2.582 2.582 0 0 0 381.45 72.9 Q 374.25 72.9 367.95 76.95 Q 361.65 81 361.65 87.3 A 10.024 10.024 0 0 0 361.995 89.987 A 7.919 7.919 0 0 0 363.45 92.85 A 6.499 6.499 0 0 0 364.949 94.243 A 5.216 5.216 0 0 0 367.875 95.1 Q 370.088 95.1 371.662 94.354 A 6.162 6.162 0 0 0 372.225 94.05 A 228.955 228.955 0 0 1 372.822 93.688 Q 374.006 92.972 374.25 92.85 Q 376.8 93.15 376.8 98.175 A 8.962 8.962 0 0 1 373.611 105.16 A 13.089 13.089 0 0 1 372.15 106.275 Q 367.5 109.35 362.4 109.35 A 24.224 24.224 0 0 1 358.245 109.012 Q 355.707 108.57 353.625 107.55 Q 349.95 105.75 348.3 103.5 A 20.118 20.118 0 0 1 346.015 99.448 A 23.19 23.19 0 0 1 345.6 98.4 A 29.094 29.094 0 0 1 344.96 95.939 Q 344.704 94.723 344.608 93.645 A 14.033 14.033 0 0 1 344.55 92.4 A 27.031 27.031 0 0 1 345.537 84.907 A 20.447 20.447 0 0 1 351.15 75.6 Q 357.75 69.3 368.1 66.6 A 144.184 144.184 0 0 0 372.407 65.685 Q 380.46 63.834 382.009 62.206 A 1.323 1.323 0 0 0 382.35 61.65 Q 382.8 60 382.8 56.1 Q 382.8 49.787 377.693 48.487 A 12.157 12.157 0 0 0 374.7 48.15 Q 371.25 48.15 368.55 50.325 Q 365.85 52.5 365.85 55.8 L 366.75 59.4 A 2.529 2.529 0 0 1 365.531 61.255 Q 364.48 61.951 362.538 62.257 A 17.589 17.589 0 0 1 361.35 62.4 L 359.7 62.55 A 14.608 14.608 0 0 1 356.828 62.284 Q 355.088 61.935 353.731 61.128 A 8.241 8.241 0 0 1 352.575 60.3 A 7.374 7.374 0 0 1 349.969 54.934 A 10.187 10.187 0 0 1 349.95 54.3 Q 349.95 51.9 351.525 48.975 Q 353.1 46.05 355.5 44.25 Q 357.9 42.45 362.925 41.025 Q 367.95 39.6 372.6 39.6 A 120.999 120.999 0 0 1 374.794 39.619 Q 377.888 39.675 379.8 39.9 A 30.637 30.637 0 0 1 381.552 40.164 Q 383.411 40.493 385.932 41.114 A 115.693 115.693 0 0 1 386.775 41.325 A 15.26 15.26 0 0 1 391.99 43.712 A 14.365 14.365 0 0 1 394.125 45.6 A 13.536 13.536 0 0 1 395.998 48.118 A 9.583 9.583 0 0 1 397.275 52.275 A 80.585 80.585 0 0 1 397.373 54.23 Q 397.46 56.444 397.488 59.475 A 326.916 326.916 0 0 1 397.5 62.4 Z" id="7" vector-effect="non-scaling-stroke"/>
	</g>
</svg>