<svg version="1.1" id="Layer_1" xmlns="http://www.w3.org/2000/svg" xmlns:xlink="http://www.w3.org/1999/xlink" x="0px" y="0px"
	 width="100%" viewBox="0 0 2550 3300" enable-background="new 0 0 2550 3300" xml:space="preserve">
<path fill="#FFFFFF" opacity="1.000000" stroke="none" 
	d="
M1250.000000,3302.000000 
	C833.333435,3302.000000 417.666809,3302.000000 2.000167,3302.000000 
	C2.000112,2202.000244 2.000112,1102.000488 2.000056,2.000610 
	C851.999573,2.000407 1701.999146,2.000407 2551.999023,2.000203 
	C2551.999512,1101.999390 2551.999512,2201.998779 2551.999756,3301.999023 
	C2118.333252,3302.000000 1684.666626,3302.000000 1250.000000,3302.000000 
M2443.705566,2062.401611 
	C2443.523193,2050.188721 2443.340820,2037.975708 2443.358154,2023.931885 
	C2443.373047,1841.682373 2443.395752,1659.432983 2443.361328,1477.183472 
	C2443.360352,1472.200928 2442.893555,1467.203857 2442.397461,1462.238159 
	C2436.993164,1408.160645 2410.778320,1366.895752 2364.848389,1338.373901 
	C2338.456543,1321.984863 2309.286865,1315.505615 2278.171875,1315.526978 
	C1939.660278,1315.759644 1601.148682,1315.736206 1262.637085,1315.796387 
	C1259.309082,1315.796997 1255.980957,1315.980835 1250.715942,1315.774658 
	C1246.384521,1315.747070 1242.053101,1315.692993 1237.721680,1315.695557 
	C965.455750,1315.857788 693.189880,1316.030640 420.923950,1316.186890 
	C364.937317,1316.219116 308.950409,1316.120605 252.964111,1316.261719 
	C243.666733,1316.285156 234.314728,1316.751709 225.085739,1317.841553 
	C190.537430,1321.921143 160.522217,1336.192505 135.350494,1360.024780 
	C101.115463,1392.437988 84.465805,1432.793091 84.439919,1479.713379 
	C84.296669,1739.318237 84.369415,1998.923218 84.369148,2258.528076 
	C84.369133,2273.857666 84.155998,2289.191406 84.428520,2304.516357 
	C84.986069,2335.868408 92.877853,2365.306152 110.546509,2391.316895 
	C143.177582,2439.354004 188.547043,2464.458496 247.101410,2464.531006 
	C477.033813,2464.815186 706.966125,2465.206543 936.898621,2465.310547 
	C1039.528442,2465.356689 1142.158569,2464.816162 1244.788452,2464.540283 
	C1246.454468,2464.535645 1248.122314,2464.549316 1249.786011,2464.478271 
	C1250.779419,2464.436279 1251.766479,2464.244873 1254.518066,2464.240967 
	C1323.489990,2464.348877 1392.462036,2464.533936 1461.433960,2464.550781 
	C1732.329712,2464.616943 2003.225586,2464.630371 2274.121338,2464.655029 
	C2279.118652,2464.655518 2284.125977,2464.736084 2289.111572,2464.464111 
	C2344.604492,2461.437256 2387.514893,2436.265869 2418.018311,2390.143555 
	C2435.783691,2363.281006 2443.372070,2333.180420 2443.393555,2301.125977 
	C2443.444580,2224.822021 2443.414307,2148.518066 2443.402832,2072.214111 
	C2443.402344,2069.552246 2443.243652,2066.890381 2443.705566,2062.401611 
z"/>
<path fill="#F1D72C" opacity="1.000000" stroke="none" 
	d="
M1252.756470,2464.120361 
	C1251.766479,2464.244873 1250.779419,2464.436279 1249.786011,2464.478271 
	C1248.122314,2464.549316 1246.454468,2464.535645 1244.788452,2464.540283 
	C1142.158569,2464.816162 1039.528442,2465.356689 936.898621,2465.310547 
	C706.966125,2465.206543 477.033813,2464.815186 247.101410,2464.531006 
	C188.547043,2464.458496 143.177582,2439.354004 110.546509,2391.316895 
	C92.877853,2365.306152 84.986069,2335.868408 84.428520,2304.516357 
	C84.155998,2289.191406 84.369133,2273.857666 84.369148,2258.528076 
	C84.369415,1998.923218 84.296669,1739.318237 84.439919,1479.713379 
	C84.465805,1432.793091 101.115463,1392.437988 135.350494,1360.024780 
	C160.522217,1336.192505 190.537430,1321.921143 225.085739,1317.841553 
	C234.314728,1316.751709 243.666733,1316.285156 252.964111,1316.261719 
	C308.950409,1316.120605 364.937317,1316.219116 420.923950,1316.186890 
	C693.189880,1316.030640 965.455750,1315.857788 1237.721680,1315.695557 
	C1242.053101,1315.692993 1246.384521,1315.747070 1251.626953,1316.858643 
	C1252.517578,1319.608032 1252.479736,1321.273193 1252.479736,1322.938477 
	C1252.477051,1700.339233 1252.476318,2077.739990 1252.488525,2455.140625 
	C1252.488647,2458.133789 1252.663330,2461.127197 1252.756470,2464.120361 
M567.227722,1950.204346 
	C553.802917,1940.380615 543.166931,1928.188965 536.120850,1913.057373 
	C532.312073,1904.877930 532.441711,1904.698120 538.684509,1898.475464 
	C546.309448,1890.875000 552.830688,1882.545410 556.625671,1872.316040 
	C566.958557,1844.463623 550.122375,1817.327881 520.607361,1816.010132 
	C493.665619,1814.807251 466.651031,1815.230835 439.668121,1814.984131 
	C439.095703,1814.978882 438.518127,1815.537964 437.069733,1816.282715 
	C434.927002,1827.385620 432.634491,1839.085449 430.448730,1850.805176 
	C430.157745,1852.365601 430.408722,1854.026978 430.408722,1856.705811 
	C433.875732,1856.705811 437.110352,1856.709351 440.344940,1856.704956 
	C456.341187,1856.683350 472.337524,1856.631714 488.333679,1856.659546 
	C491.659180,1856.665405 495.024353,1856.691528 498.302002,1857.176514 
	C508.957245,1858.752808 512.562744,1867.647095 505.625336,1875.964233 
	C502.481201,1879.733276 498.561951,1883.248413 494.288086,1885.588867 
	C488.158966,1888.945190 487.204498,1893.498779 488.249237,1899.675903 
	C490.343628,1912.059448 495.323761,1923.241699 501.863892,1933.796021 
	C514.294312,1953.855713 530.720703,1970.305542 548.541687,1985.542114 
	C552.275757,1988.734497 555.375000,1988.383911 559.383362,1986.497925 
	C570.229370,1981.394531 581.239685,1976.641357 592.148926,1971.670410 
	C594.426636,1970.632568 596.549988,1969.256104 599.653442,1967.530273 
	C589.659851,1962.679565 580.762024,1958.360840 572.576965,1952.408936 
	C576.204468,1952.137817 579.831360,1951.641113 583.459595,1951.631592 
	C609.457947,1951.563599 635.456604,1951.609619 661.455139,1951.573853 
	C664.376404,1951.569824 667.297363,1951.281616 670.740417,1951.097412 
	C674.990234,1937.527222 679.129700,1924.309448 683.611328,1909.999268 
	C666.414673,1909.999268 650.465515,1910.009277 634.516357,1909.990845 
	C631.518921,1909.987427 628.414551,1910.310791 625.570923,1909.616943 
	C624.219849,1909.287354 623.366211,1906.919312 620.847961,1903.547363 
	C635.254150,1903.547363 647.108765,1903.547363 659.164551,1903.547363 
	C663.522644,1889.723877 667.584534,1876.840088 672.083679,1862.569214 
	C655.165283,1862.569214 639.677246,1862.569214 624.548584,1862.569214 
	C622.198059,1857.106201 624.095703,1855.468018 628.408386,1855.468384 
	C639.074341,1855.469360 649.740356,1855.447876 660.406311,1855.439819 
	C666.649597,1855.435181 672.892883,1855.438965 680.475159,1855.438965 
	C676.521545,1841.073364 672.938293,1828.053711 669.351929,1815.022583 
	C636.220032,1815.022583 603.766968,1815.022583 570.486450,1815.022583 
	C570.486450,1819.347290 570.481506,1822.953125 570.487305,1826.559082 
	C570.548279,1864.556885 570.673218,1902.554810 570.573547,1940.552246 
	C570.563904,1944.224854 572.549927,1948.706299 567.227722,1950.204346 
M691.367798,1865.877319 
	C698.360962,1894.270386 705.354126,1922.663452 712.340942,1951.030762 
	C728.873657,1951.030762 744.668396,1951.030762 760.748901,1951.030762 
	C764.087341,1935.183838 767.300049,1919.933960 770.512756,1904.684082 
	C771.165771,1904.692017 771.818726,1904.699951 772.471741,1904.708008 
	C775.128052,1916.369751 777.784302,1928.031616 780.440613,1939.693359 
	C786.237366,1921.223511 790.219666,1902.674316 795.466980,1884.490356 
	C799.919434,1869.060547 800.693787,1853.890503 797.236694,1838.277954 
	C795.540833,1830.619263 794.633240,1822.785889 793.415955,1815.320312 
	C778.537415,1815.320312 764.737732,1815.320312 750.949036,1815.320312 
	C746.273865,1833.400391 743.572632,1851.236206 738.897827,1868.562744 
	C738.179260,1868.502686 737.460693,1868.442627 736.742126,1868.382446 
	C733.157349,1850.640259 729.572510,1832.897949 725.997070,1815.201904 
	C710.036621,1815.201904 694.916016,1815.201904 678.851196,1815.201904 
	C682.992249,1832.111572 686.933472,1848.205566 691.367798,1865.877319 
M276.998413,1814.491943 
	C267.337585,1814.480713 257.673889,1814.315552 248.016617,1814.494873 
	C234.250320,1814.750366 225.767822,1823.593872 225.828766,1837.344482 
	C225.865234,1845.571167 228.440445,1853.048828 232.733582,1859.973877 
	C240.102615,1871.860718 247.516769,1883.719482 254.905029,1895.594360 
	C255.959534,1897.289062 257.170013,1898.921875 257.971893,1900.732300 
	C260.280365,1905.944336 258.591614,1909.237305 253.093872,1910.024658 
	C250.478256,1910.399170 247.774750,1910.186523 245.110947,1910.192749 
	C238.262466,1910.208618 231.413925,1910.197998 223.649078,1910.197998 
	C226.572891,1924.941895 229.197418,1938.176636 231.865402,1951.630615 
	C254.611542,1951.630615 276.252869,1951.869995 297.885132,1951.530396 
	C308.832458,1951.358643 316.615204,1944.836792 320.122040,1934.490601 
	C322.912994,1926.256592 320.847687,1918.777832 316.865387,1911.507446 
	C308.547852,1896.322632 300.243622,1881.130127 292.042267,1865.882568 
	C290.758789,1863.496460 290.044922,1860.804199 288.445068,1856.628174 
	C299.469696,1856.628174 308.615601,1856.628174 319.072815,1856.628174 
	C316.342590,1842.020386 313.862030,1828.748535 311.197510,1814.492310 
	C300.172028,1814.492310 289.583588,1814.492310 276.998413,1814.491943 
M396.138641,1907.625610 
	C382.136292,1902.352905 373.233551,1893.157104 372.825745,1877.392090 
	C372.506775,1865.063477 378.663116,1857.864624 390.998962,1856.975952 
	C398.285400,1856.451050 405.632385,1856.812500 412.948822,1856.636230 
	C415.733856,1856.569214 418.509491,1856.112915 421.801605,1855.782715 
	C418.842224,1841.404785 416.118805,1828.173584 413.310303,1814.528809 
	C397.537292,1814.383789 382.598999,1812.773438 367.813934,1816.032471 
	C347.471588,1820.516113 333.755310,1832.592651 328.947571,1853.009033 
	C326.927094,1861.589111 326.147675,1870.934204 327.137054,1879.667236 
	C331.140961,1915.008911 352.877960,1936.101318 384.882996,1947.933350 
	C393.250214,1951.026489 402.120758,1952.862183 411.832794,1951.174438 
	C415.783539,1938.259277 419.737457,1925.333740 423.516968,1912.978394 
	C414.414368,1911.265015 406.028870,1909.686646 396.138641,1907.625610 
M982.542908,1935.529175 
	C992.030029,1925.450073 1001.517151,1915.370972 1011.794922,1904.452026 
	C1013.752563,1908.241333 1015.030579,1910.468628 1016.084290,1912.797363 
	C1021.027222,1923.720703 1025.905884,1934.672974 1030.813354,1945.612427 
	C1032.191406,1948.684204 1033.447876,1951.770386 1037.729980,1951.703857 
	C1044.902710,1951.592407 1052.078369,1951.673462 1060.354126,1951.673462 
	C1059.085083,1948.035278 1058.485107,1945.847656 1057.580200,1943.794434 
	C1049.924683,1926.423950 1042.409546,1908.986694 1034.405029,1891.777710 
	C1031.843384,1886.270142 1031.784912,1882.435059 1036.302490,1877.713379 
	C1050.808228,1862.552124 1064.785522,1846.885864 1078.995239,1831.440674 
	C1083.589233,1826.447388 1088.317017,1821.568848 1093.073120,1814.206909 
	C1084.782349,1814.206909 1078.530762,1814.509033 1072.323608,1814.113403 
	C1067.156494,1813.784058 1063.576050,1815.727295 1060.112427,1819.380859 
	C1048.652100,1831.469971 1036.942993,1843.323975 1025.268188,1855.208130 
	C1023.958191,1856.541626 1022.258667,1857.492432 1019.826355,1859.299072 
	C1013.395142,1843.984253 1007.264160,1829.384277 1000.966431,1814.387207 
	C992.490967,1814.409912 984.413391,1813.549927 975.111084,1815.046387 
	C977.316711,1820.544312 978.963013,1824.830811 980.746338,1829.059570 
	C986.698242,1843.173340 992.560608,1857.327759 998.751160,1871.336670 
	C1001.158447,1876.784424 1001.615479,1881.400269 996.693909,1885.697388 
	C994.455017,1887.652344 992.719116,1890.175659 990.697327,1892.388306 
	C974.741394,1909.849243 958.751404,1927.279053 942.837341,1944.778076 
	C941.247986,1946.525879 940.095215,1948.670898 937.989258,1951.717285 
	C941.688416,1951.717285 943.720581,1951.432861 945.647827,1951.762329 
	C960.899231,1954.368530 972.943909,1949.555176 982.542908,1935.529175 
M451.313538,1861.274658 
	C446.419495,1861.274658 441.525452,1861.274658 436.621094,1861.274658 
	C436.621094,1891.961182 436.621094,1921.389038 436.621094,1951.131714 
	C452.455872,1951.131714 467.597809,1951.131714 483.315063,1951.131714 
	C483.315063,1921.184692 483.315063,1891.761719 483.315063,1861.275513 
	C473.081146,1861.275513 463.159241,1861.275513 451.313538,1861.274658 
M917.971802,1868.778931 
	C910.886902,1896.026001 903.802063,1923.273071 896.539185,1951.204590 
	C906.098022,1951.204590 914.568726,1951.204590 923.588379,1951.204590 
	C935.097595,1905.824463 946.496399,1860.879761 958.122070,1815.040527 
	C948.893127,1815.040527 940.813232,1815.040527 931.890625,1815.040527 
	C927.313477,1832.571533 922.797119,1849.869751 917.971802,1868.778931 
M840.081116,1911.338989 
	C840.752747,1907.939819 841.424316,1904.540527 842.208252,1900.572754 
	C827.777710,1900.572754 814.605347,1900.572754 800.664612,1900.572754 
	C796.660522,1917.357544 792.711121,1933.913086 788.624023,1951.045898 
	C803.426331,1951.045898 816.875183,1951.045898 830.843750,1951.045898 
	C833.880920,1938.102905 836.824951,1925.557129 840.081116,1911.338989 
M890.829224,1814.346558 
	C867.317627,1814.346558 843.806030,1814.346558 819.423218,1814.346558 
	C818.815613,1821.309692 815.242310,1826.795898 816.794800,1833.491211 
	C845.799988,1833.491211 874.214905,1833.491211 903.156067,1833.491211 
	C904.815186,1827.191650 906.351501,1821.358032 908.197876,1814.347168 
	C901.957825,1814.347168 897.356934,1814.347168 890.829224,1814.346558 
M862.958496,1873.614624 
	C844.113708,1873.614624 825.268921,1873.614624 806.063171,1873.614624 
	C804.516846,1880.064453 803.236267,1885.405640 801.771729,1891.514160 
	C829.003357,1891.514160 855.095276,1891.514160 881.678589,1891.514160 
	C883.335083,1885.832031 884.881287,1880.528198 886.896912,1873.614014 
	C878.696655,1873.614014 871.819153,1873.614014 862.958496,1873.614624 
M850.015991,1840.437012 
	C838.172668,1840.437012 826.329407,1840.437012 814.201721,1840.437012 
	C811.989441,1848.755615 810.059448,1856.012695 807.924255,1864.041504 
	C822.254211,1864.041504 835.606873,1864.041504 849.123474,1864.041504 
	C851.340332,1857.196167 853.423157,1850.916870 855.397705,1844.603760 
	C856.399414,1841.401001 854.552856,1840.465332 850.015991,1840.437012 
z"/>
<path fill="#7A01ED" opacity="1.000000" stroke="none" 
	d="
M1253.637207,2464.180664 
	C1252.663330,2461.127197 1252.488647,2458.133789 1252.488525,2455.140625 
	C1252.476318,2077.739990 1252.477051,1700.339233 1252.479736,1322.938477 
	C1252.479736,1321.273193 1252.517578,1319.608032 1252.595459,1317.010986 
	C1255.980957,1315.980835 1259.309082,1315.796997 1262.637085,1315.796387 
	C1601.148682,1315.736206 1939.660278,1315.759644 2278.171875,1315.526978 
	C2309.286865,1315.505615 2338.456543,1321.984863 2364.848389,1338.373901 
	C2410.778320,1366.895752 2436.993164,1408.160645 2442.397461,1462.238159 
	C2442.893555,1467.203857 2443.360352,1472.200928 2443.361328,1477.183472 
	C2443.395752,1659.432983 2443.373047,1841.682373 2442.603760,2024.624512 
	C2439.089355,2016.577026 2436.462402,2007.791992 2433.531738,1999.109619 
	C2430.558838,1990.301880 2426.713867,1981.753784 2424.240479,1972.818115 
	C2411.665039,1927.380859 2399.478516,1881.836060 2387.026855,1836.364258 
	C2369.313232,1771.674683 2351.044434,1707.132935 2333.916504,1642.289185 
	C2326.624023,1614.681030 2311.666748,1594.869629 2285.674316,1582.556641 
	C2266.154297,1573.309570 2247.447754,1562.340210 2228.419189,1552.062744 
	C2188.612061,1530.562134 2148.839111,1508.998291 2109.036865,1487.488647 
	C2090.596191,1477.523193 2072.101562,1467.657715 2053.664062,1457.686523 
	C2022.354614,1440.753784 1991.150269,1423.624146 1959.740479,1406.879761 
	C1945.290527,1399.176514 1930.104248,1396.812134 1913.518799,1399.698608 
	C1879.924316,1405.545166 1854.530640,1437.542725 1854.918335,1467.840576 
	C1832.255005,1470.629761 1810.100708,1471.497803 1788.721191,1476.025146 
	C1643.589478,1506.759521 1541.003784,1590.764771 1480.230347,1725.751343 
	C1463.744385,1762.368896 1454.051025,1801.115967 1449.907715,1841.117676 
	C1449.356567,1846.438354 1447.167236,1849.056763 1442.534546,1851.569580 
	C1437.105591,1854.514282 1432.494141,1859.039551 1427.731689,1863.117065 
	C1423.598877,1866.655518 1423.694458,1870.935669 1425.716919,1875.788086 
	C1429.191772,1884.125122 1434.658325,1890.570435 1442.545654,1894.850220 
	C1446.324463,1896.900635 1448.168823,1899.331421 1445.428345,1904.748047 
	C1440.688965,1901.513306 1436.076538,1898.482788 1431.592896,1895.272217 
	C1426.846680,1891.873779 1422.223022,1888.304199 1418.677002,1885.654541 
	C1414.905151,1905.157837 1423.456177,1919.713623 1448.841187,1933.472168 
	C1449.088745,1934.557983 1449.430420,1935.828247 1449.664307,1937.117920 
	C1453.042480,1955.759644 1455.081299,1974.770020 1460.104980,1992.956177 
	C1466.551392,2016.292725 1475.394165,2038.967407 1482.376221,2061.979492 
	C1473.955444,2064.484863 1466.444824,2067.237793 1458.754150,2069.329834 
	C1442.125000,2073.853516 1428.339844,2082.452881 1418.380493,2096.666992 
	C1408.541626,2110.708984 1403.060791,2126.425781 1404.573975,2143.514160 
	C1406.303345,2163.041992 1414.757324,2179.590088 1429.637573,2192.983887 
	C1455.090088,2215.894287 1480.085938,2239.311768 1505.276611,2262.513184 
	C1522.152100,2278.056152 1539.039673,2293.586182 1555.908813,2309.135742 
	C1581.824585,2333.024658 1607.776367,2356.874756 1633.623901,2380.836914 
	C1655.576538,2401.188721 1677.206665,2421.892822 1699.353516,2442.029297 
	C1714.745605,2456.024170 1733.135376,2462.870850 1754.106689,2461.881348 
	C1760.048828,2461.601074 1765.968262,2460.191650 1771.889893,2460.242920 
	C1790.910767,2460.407471 1808.783813,2456.246094 1825.568237,2447.313477 
	C1856.698975,2430.746338 1887.841675,2414.201660 1918.976074,2397.641357 
	C1950.404785,2380.925049 1981.830933,2364.203857 2013.255249,2347.479004 
	C2055.252930,2325.127197 2097.250488,2302.775391 2139.243164,2280.414062 
	C2168.606934,2264.777832 2197.937500,2249.078857 2227.327637,2233.492676 
	C2264.659668,2213.694824 2302.060303,2194.026123 2339.383301,2174.211426 
	C2353.188232,2166.882324 2366.996094,2159.540283 2380.561523,2151.782227 
	C2413.065430,2133.192627 2432.523438,2105.146729 2440.144043,2068.629639 
	C2440.479248,2067.022949 2442.123779,2065.689453 2443.158691,2064.228516 
	C2443.243652,2066.890381 2443.402344,2069.552246 2443.402832,2072.214111 
	C2443.414307,2148.518066 2443.444580,2224.822021 2443.393555,2301.125977 
	C2443.372070,2333.180420 2435.783691,2363.281006 2418.018311,2390.143555 
	C2387.514893,2436.265869 2344.604492,2461.437256 2289.111572,2464.464111 
	C2284.125977,2464.736084 2279.118652,2464.655518 2274.121338,2464.655029 
	C2003.225586,2464.630371 1732.329712,2464.616943 1461.433960,2464.550781 
	C1392.462036,2464.533936 1323.489990,2464.348877 1253.637207,2464.180664 
z"/>
<path fill="#9959D6" opacity="1.000000" stroke="none" 
	d="
M2443.432129,2063.314941 
	C2442.123779,2065.689453 2440.479248,2067.022949 2440.144043,2068.629639 
	C2432.523438,2105.146729 2413.065430,2133.192627 2380.561523,2151.782227 
	C2366.996094,2159.540283 2353.188232,2166.882324 2339.383301,2174.211426 
	C2302.060303,2194.026123 2264.659668,2213.694824 2227.327637,2233.492676 
	C2197.937500,2249.078857 2168.606934,2264.777832 2139.243164,2280.414062 
	C2097.250488,2302.775391 2055.252930,2325.127197 2013.255249,2347.479004 
	C1981.830933,2364.203857 1950.404785,2380.925049 1918.976074,2397.641357 
	C1887.841675,2414.201660 1856.698975,2430.746338 1825.568237,2447.313477 
	C1808.783813,2456.246094 1790.910767,2460.407471 1771.889893,2460.242920 
	C1765.968262,2460.191650 1760.048828,2461.601074 1754.106689,2461.881348 
	C1733.135376,2462.870850 1714.745605,2456.024170 1699.353516,2442.029297 
	C1677.206665,2421.892822 1655.576538,2401.188721 1633.623901,2380.836914 
	C1607.776367,2356.874756 1581.824585,2333.024658 1555.908813,2309.135742 
	C1539.039673,2293.586182 1522.152100,2278.056152 1505.276611,2262.513184 
	C1480.085938,2239.311768 1455.090088,2215.894287 1429.637573,2192.983887 
	C1414.757324,2179.590088 1406.303345,2163.041992 1404.573975,2143.514160 
	C1403.060791,2126.425781 1408.541626,2110.708984 1418.380493,2096.666992 
	C1428.339844,2082.452881 1442.125000,2073.853516 1458.754150,2069.329834 
	C1466.444824,2067.237793 1473.955444,2064.484863 1482.771484,2062.490479 
	C1514.111816,2128.387939 1557.448730,2183.370361 1615.227783,2226.449219 
	C1698.553467,2288.574951 1792.249146,2316.624512 1896.180054,2310.350830 
	C1935.026367,2308.006348 1972.694580,2300.244629 2009.258057,2287.195557 
	C2080.142822,2261.897461 2140.148682,2220.561768 2189.040771,2163.376465 
	C2234.694580,2109.979004 2265.398193,2048.962891 2280.240723,1980.189697 
	C2283.597656,1964.634155 2286.019775,1948.877075 2288.843018,1933.373169 
	C2314.529541,1921.501343 2326.637695,1901.478638 2319.418701,1881.939819 
	C2312.184326,1892.903564 2301.831787,1899.317871 2290.902832,1905.656982 
	C2288.978027,1899.692017 2291.021484,1897.201172 2295.329346,1895.134277 
	C2304.063721,1890.943481 2310.136230,1884.068848 2313.825928,1875.023682 
	C2315.804443,1870.172607 2315.706299,1865.781006 2311.467773,1862.421875 
	C2304.278320,1856.723877 2296.850586,1851.326172 2288.131592,1844.753174 
	C2286.781250,1835.687622 2285.640137,1824.411133 2283.374023,1813.365479 
	C2255.919189,1679.538818 2182.197998,1579.812500 2061.815430,1515.207520 
	C2012.530029,1488.757690 1959.531372,1473.801880 1903.644897,1469.759033 
	C1887.723511,1468.607300 1871.740479,1468.304443 1855.785767,1467.612427 
	C1854.530640,1437.542725 1879.924316,1405.545166 1913.518799,1399.698608 
	C1930.104248,1396.812134 1945.290527,1399.176514 1959.740479,1406.879761 
	C1991.150269,1423.624146 2022.354614,1440.753784 2053.664062,1457.686523 
	C2072.101562,1467.657715 2090.596191,1477.523193 2109.036865,1487.488647 
	C2148.839111,1508.998291 2188.612061,1530.562134 2228.419189,1552.062744 
	C2247.447754,1562.340210 2266.154297,1573.309570 2285.674316,1582.556641 
	C2311.666748,1594.869629 2326.624023,1614.681030 2333.916504,1642.289185 
	C2351.044434,1707.132935 2369.313232,1771.674683 2387.026855,1836.364258 
	C2399.478516,1881.836060 2411.665039,1927.380859 2424.240479,1972.818115 
	C2426.713867,1981.753784 2430.558838,1990.301880 2433.531738,1999.109619 
	C2436.462402,2007.791992 2439.089355,2016.577026 2442.503906,2025.539917 
	C2443.340820,2037.975708 2443.523193,2050.188721 2443.432129,2063.314941 
z"/>
<path fill="#07579C" opacity="1.000000" stroke="none" 
	d="
M568.050415,1951.477783 
	C572.549927,1948.706299 570.563904,1944.224854 570.573547,1940.552246 
	C570.673218,1902.554810 570.548279,1864.556885 570.487305,1826.559082 
	C570.481506,1822.953125 570.486450,1819.347290 570.486450,1815.022583 
	C603.766968,1815.022583 636.220032,1815.022583 669.351929,1815.022583 
	C672.938293,1828.053711 676.521545,1841.073364 680.475159,1855.438965 
	C672.892883,1855.438965 666.649597,1855.435181 660.406311,1855.439819 
	C649.740356,1855.447876 639.074341,1855.469360 628.408386,1855.468384 
	C624.095703,1855.468018 622.198059,1857.106201 624.548584,1862.569214 
	C639.677246,1862.569214 655.165283,1862.569214 672.083679,1862.569214 
	C667.584534,1876.840088 663.522644,1889.723877 659.164551,1903.547363 
	C647.108765,1903.547363 635.254150,1903.547363 620.847961,1903.547363 
	C623.366211,1906.919312 624.219849,1909.287354 625.570923,1909.616943 
	C628.414551,1910.310791 631.518921,1909.987427 634.516357,1909.990845 
	C650.465515,1910.009277 666.414673,1909.999268 683.611328,1909.999268 
	C679.129700,1924.309448 674.990234,1937.527222 670.740417,1951.097412 
	C667.297363,1951.281616 664.376404,1951.569824 661.455139,1951.573853 
	C635.456604,1951.609619 609.457947,1951.563599 583.459595,1951.631592 
	C579.831360,1951.641113 576.204468,1952.137817 571.701294,1953.182983 
	C569.900574,1953.130615 568.975464,1952.304199 568.050415,1951.477783 
z"/>
<path fill="#05569D" opacity="1.000000" stroke="none" 
	d="
M691.121216,1865.088379 
	C686.933472,1848.205566 682.992249,1832.111572 678.851196,1815.201904 
	C694.916016,1815.201904 710.036621,1815.201904 725.997070,1815.201904 
	C729.572510,1832.897949 733.157349,1850.640259 736.742126,1868.382446 
	C737.460693,1868.442627 738.179260,1868.502686 738.897827,1868.562744 
	C743.572632,1851.236206 746.273865,1833.400391 750.949036,1815.320312 
	C764.737732,1815.320312 778.537415,1815.320312 793.415955,1815.320312 
	C794.633240,1822.785889 795.540833,1830.619263 797.236694,1838.277954 
	C800.693787,1853.890503 799.919434,1869.060547 795.466980,1884.490356 
	C790.219666,1902.674316 786.237366,1921.223511 780.440613,1939.693359 
	C777.784302,1928.031616 775.128052,1916.369751 772.471741,1904.708008 
	C771.818726,1904.699951 771.165771,1904.692017 770.512756,1904.684082 
	C767.300049,1919.933960 764.087341,1935.183838 760.748901,1951.030762 
	C744.668396,1951.030762 728.873657,1951.030762 712.340942,1951.030762 
	C705.354126,1922.663452 698.360962,1894.270386 691.121216,1865.088379 
z"/>
<path fill="#04559D" opacity="1.000000" stroke="none" 
	d="
M567.639038,1950.841064 
	C568.975464,1952.304199 569.900574,1953.130615 571.344971,1953.999512 
	C580.762024,1958.360840 589.659851,1962.679565 599.653442,1967.530273 
	C596.549988,1969.256104 594.426636,1970.632568 592.148926,1971.670410 
	C581.239685,1976.641357 570.229370,1981.394531 559.383362,1986.497925 
	C555.375000,1988.383911 552.275757,1988.734497 548.541687,1985.542114 
	C530.720703,1970.305542 514.294312,1953.855713 501.863892,1933.796021 
	C495.323761,1923.241699 490.343628,1912.059448 488.249237,1899.675903 
	C487.204498,1893.498779 488.158966,1888.945190 494.288086,1885.588867 
	C498.561951,1883.248413 502.481201,1879.733276 505.625336,1875.964233 
	C512.562744,1867.647095 508.957245,1858.752808 498.302002,1857.176514 
	C495.024353,1856.691528 491.659180,1856.665405 488.333679,1856.659546 
	C472.337524,1856.631714 456.341187,1856.683350 440.344940,1856.704956 
	C437.110352,1856.709351 433.875732,1856.705811 430.408722,1856.705811 
	C430.408722,1854.026978 430.157745,1852.365601 430.448730,1850.805176 
	C432.634491,1839.085449 434.927002,1827.385620 437.069733,1816.282715 
	C438.518127,1815.537964 439.095703,1814.978882 439.668121,1814.984131 
	C466.651031,1815.230835 493.665619,1814.807251 520.607361,1816.010132 
	C550.122375,1817.327881 566.958557,1844.463623 556.625671,1872.316040 
	C552.830688,1882.545410 546.309448,1890.875000 538.684509,1898.475464 
	C532.441711,1904.698120 532.312073,1904.877930 536.120850,1913.057373 
	C543.166931,1928.188965 553.802917,1940.380615 567.639038,1950.841064 
z"/>
<path fill="#05569D" opacity="1.000000" stroke="none" 
	d="
M277.996765,1814.492188 
	C289.583588,1814.492310 300.172028,1814.492310 311.197510,1814.492310 
	C313.862030,1828.748535 316.342590,1842.020386 319.072815,1856.628174 
	C308.615601,1856.628174 299.469696,1856.628174 288.445068,1856.628174 
	C290.044922,1860.804199 290.758789,1863.496460 292.042267,1865.882568 
	C300.243622,1881.130127 308.547852,1896.322632 316.865387,1911.507446 
	C320.847687,1918.777832 322.912994,1926.256592 320.122040,1934.490601 
	C316.615204,1944.836792 308.832458,1951.358643 297.885132,1951.530396 
	C276.252869,1951.869995 254.611542,1951.630615 231.865402,1951.630615 
	C229.197418,1938.176636 226.572891,1924.941895 223.649078,1910.197998 
	C231.413925,1910.197998 238.262466,1910.208618 245.110947,1910.192749 
	C247.774750,1910.186523 250.478256,1910.399170 253.093872,1910.024658 
	C258.591614,1909.237305 260.280365,1905.944336 257.971893,1900.732300 
	C257.170013,1898.921875 255.959534,1897.289062 254.905029,1895.594360 
	C247.516769,1883.719482 240.102615,1871.860718 232.733582,1859.973877 
	C228.440445,1853.048828 225.865234,1845.571167 225.828766,1837.344482 
	C225.767822,1823.593872 234.250320,1814.750366 248.016617,1814.494873 
	C257.673889,1814.315552 267.337585,1814.480713 277.996765,1814.492188 
z"/>
<path fill="#05569D" opacity="1.000000" stroke="none" 
	d="
M396.890991,1907.866943 
	C406.028870,1909.686646 414.414368,1911.265015 423.516968,1912.978394 
	C419.737457,1925.333740 415.783539,1938.259277 411.832794,1951.174438 
	C402.120758,1952.862183 393.250214,1951.026489 384.882996,1947.933350 
	C352.877960,1936.101318 331.140961,1915.008911 327.137054,1879.667236 
	C326.147675,1870.934204 326.927094,1861.589111 328.947571,1853.009033 
	C333.755310,1832.592651 347.471588,1820.516113 367.813934,1816.032471 
	C382.598999,1812.773438 397.537292,1814.383789 413.310303,1814.528809 
	C416.118805,1828.173584 418.842224,1841.404785 421.801605,1855.782715 
	C418.509491,1856.112915 415.733856,1856.569214 412.948822,1856.636230 
	C405.632385,1856.812500 398.285400,1856.451050 390.998962,1856.975952 
	C378.663116,1857.864624 372.506775,1865.063477 372.825745,1877.392090 
	C373.233551,1893.157104 382.136292,1902.352905 396.890991,1907.866943 
z"/>
<path fill="#EE2224" opacity="1.000000" stroke="none" 
	d="
M982.042969,1936.035889 
	C972.943909,1949.555176 960.899231,1954.368530 945.647827,1951.762329 
	C943.720581,1951.432861 941.688416,1951.717285 937.989258,1951.717285 
	C940.095215,1948.670898 941.247986,1946.525879 942.837341,1944.778076 
	C958.751404,1927.279053 974.741394,1909.849243 990.697327,1892.388306 
	C992.719116,1890.175659 994.455017,1887.652344 996.693909,1885.697388 
	C1001.615479,1881.400269 1001.158447,1876.784424 998.751160,1871.336670 
	C992.560608,1857.327759 986.698242,1843.173340 980.746338,1829.059570 
	C978.963013,1824.830811 977.316711,1820.544312 975.111084,1815.046387 
	C984.413391,1813.549927 992.490967,1814.409912 1000.966431,1814.387207 
	C1007.264160,1829.384277 1013.395142,1843.984253 1019.826355,1859.299072 
	C1022.258667,1857.492432 1023.958191,1856.541626 1025.268188,1855.208130 
	C1036.942993,1843.323975 1048.652100,1831.469971 1060.112427,1819.380859 
	C1063.576050,1815.727295 1067.156494,1813.784058 1072.323608,1814.113403 
	C1078.530762,1814.509033 1084.782349,1814.206909 1093.073120,1814.206909 
	C1088.317017,1821.568848 1083.589233,1826.447388 1078.995239,1831.440674 
	C1064.785522,1846.885864 1050.808228,1862.552124 1036.302490,1877.713379 
	C1031.784912,1882.435059 1031.843384,1886.270142 1034.405029,1891.777710 
	C1042.409546,1908.986694 1049.924683,1926.423950 1057.580200,1943.794434 
	C1058.485107,1945.847656 1059.085083,1948.035278 1060.354126,1951.673462 
	C1052.078369,1951.673462 1044.902710,1951.592407 1037.729980,1951.703857 
	C1033.447876,1951.770386 1032.191406,1948.684204 1030.813354,1945.612427 
	C1025.905884,1934.672974 1021.027222,1923.720703 1016.084290,1912.797363 
	C1015.030579,1910.468628 1013.752563,1908.241333 1011.794922,1904.452026 
	C1001.517151,1915.370972 992.030029,1925.450073 982.042969,1936.035889 
z"/>
<path fill="#05569D" opacity="1.000000" stroke="none" 
	d="
M452.275452,1861.275146 
	C463.159241,1861.275513 473.081146,1861.275513 483.315063,1861.275513 
	C483.315063,1891.761719 483.315063,1921.184692 483.315063,1951.131714 
	C467.597809,1951.131714 452.455872,1951.131714 436.621094,1951.131714 
	C436.621094,1921.389038 436.621094,1891.961182 436.621094,1861.274658 
	C441.525452,1861.274658 446.419495,1861.274658 452.275452,1861.275146 
z"/>
<path fill="#EE2224" opacity="1.000000" stroke="none" 
	d="
M918.126221,1867.973389 
	C922.797119,1849.869751 927.313477,1832.571533 931.890625,1815.040527 
	C940.813232,1815.040527 948.893127,1815.040527 958.122070,1815.040527 
	C946.496399,1860.879761 935.097595,1905.824463 923.588379,1951.204590 
	C914.568726,1951.204590 906.098022,1951.204590 896.539185,1951.204590 
	C903.802063,1923.273071 910.886902,1896.026001 918.126221,1867.973389 
z"/>
<path fill="#07579C" opacity="1.000000" stroke="none" 
	d="
M839.925049,1912.175049 
	C836.824951,1925.557129 833.880920,1938.102905 830.843750,1951.045898 
	C816.875183,1951.045898 803.426331,1951.045898 788.624023,1951.045898 
	C792.711121,1933.913086 796.660522,1917.357544 800.664612,1900.572754 
	C814.605347,1900.572754 827.777710,1900.572754 842.208252,1900.572754 
	C841.424316,1904.540527 840.752747,1907.939819 839.925049,1912.175049 
z"/>
<path fill="#EE2724" opacity="1.000000" stroke="none" 
	d="
M891.792603,1814.346924 
	C897.356934,1814.347168 901.957825,1814.347168 908.197876,1814.347168 
	C906.351501,1821.358032 904.815186,1827.191650 903.156067,1833.491211 
	C874.214905,1833.491211 845.799988,1833.491211 816.794800,1833.491211 
	C815.242310,1826.795898 818.815613,1821.309692 819.423218,1814.346558 
	C843.806030,1814.346558 867.317627,1814.346558 891.792603,1814.346924 
z"/>
<path fill="#EE2224" opacity="1.000000" stroke="none" 
	d="
M863.950073,1873.614258 
	C871.819153,1873.614014 878.696655,1873.614014 886.896912,1873.614014 
	C884.881287,1880.528198 883.335083,1885.832031 881.678589,1891.514160 
	C855.095276,1891.514160 829.003357,1891.514160 801.771729,1891.514160 
	C803.236267,1885.405640 804.516846,1880.064453 806.063171,1873.614624 
	C825.268921,1873.614624 844.113708,1873.614624 863.950073,1873.614258 
z"/>
<path fill="#07579C" opacity="1.000000" stroke="none" 
	d="
M850.893433,1840.446289 
	C854.552856,1840.465332 856.399414,1841.401001 855.397705,1844.603760 
	C853.423157,1850.916870 851.340332,1857.196167 849.123474,1864.041504 
	C835.606873,1864.041504 822.254211,1864.041504 807.924255,1864.041504 
	C810.059448,1856.012695 811.989441,1848.755615 814.201721,1840.437012 
	C826.329407,1840.437012 838.172668,1840.437012 850.893433,1840.446289 
z"/>
<path fill="#EFD330" opacity="1.000000" stroke="none" 
	d="
M1854.918335,1467.840576 
	C1871.740479,1468.304443 1887.723511,1468.607300 1903.644897,1469.759033 
	C1959.531372,1473.801880 2012.530029,1488.757690 2061.815430,1515.207520 
	C2182.197998,1579.812500 2255.919189,1679.538818 2283.374023,1813.365479 
	C2285.640137,1824.411133 2286.781250,1835.687622 2288.131592,1844.753174 
	C2296.850586,1851.326172 2304.278320,1856.723877 2311.467773,1862.421875 
	C2315.706299,1865.781006 2315.804443,1870.172607 2313.825928,1875.023682 
	C2310.136230,1884.068848 2304.063721,1890.943481 2295.329346,1895.134277 
	C2291.021484,1897.201172 2288.978027,1899.692017 2290.902832,1905.656982 
	C2301.831787,1899.317871 2312.184326,1892.903564 2319.418701,1881.939819 
	C2326.637695,1901.478638 2314.529541,1921.501343 2288.843018,1933.373169 
	C2286.019775,1948.877075 2283.597656,1964.634155 2280.240723,1980.189697 
	C2265.398193,2048.962891 2234.694580,2109.979004 2189.040771,2163.376465 
	C2140.148682,2220.561768 2080.142822,2261.897461 2009.258057,2287.195557 
	C1972.694580,2300.244629 1935.026367,2308.006348 1896.180054,2310.350830 
	C1792.249146,2316.624512 1698.553467,2288.574951 1615.227783,2226.449219 
	C1557.448730,2183.370361 1514.111816,2128.387939 1483.599854,2062.438477 
	C1475.394165,2038.967407 1466.551392,2016.292725 1460.104980,1992.956177 
	C1455.081299,1974.770020 1453.042480,1955.759644 1449.664307,1937.117920 
	C1449.430420,1935.828247 1449.088745,1934.557983 1448.841187,1933.472168 
	C1423.456177,1919.713623 1414.905151,1905.157837 1418.677002,1885.654541 
	C1422.223022,1888.304199 1426.846680,1891.873779 1431.592896,1895.272217 
	C1436.076538,1898.482788 1440.688965,1901.513306 1445.428345,1904.748047 
	C1448.168823,1899.331421 1446.324463,1896.900635 1442.545654,1894.850220 
	C1434.658325,1890.570435 1429.191772,1884.125122 1425.716919,1875.788086 
	C1423.694458,1870.935669 1423.598877,1866.655518 1427.731689,1863.117065 
	C1432.494141,1859.039551 1437.105591,1854.514282 1442.534546,1851.569580 
	C1447.167236,1849.056763 1449.356567,1846.438354 1449.907715,1841.117676 
	C1454.051025,1801.115967 1463.744385,1762.368896 1480.230347,1725.751343 
	C1541.003784,1590.764771 1643.589478,1506.759521 1788.721191,1476.025146 
	C1810.100708,1471.497803 1832.255005,1470.629761 1854.918335,1467.840576 
M1511.564941,2056.466064 
	C1512.760498,2059.205078 1513.837646,2062.003418 1515.169189,2064.674561 
	C1538.343872,2111.171143 1568.931030,2152.141846 1608.530762,2185.797852 
	C1711.785522,2273.555176 1830.252563,2303.638916 1962.000366,2272.488281 
	C2111.810547,2237.066406 2225.138672,2117.127441 2255.459961,1966.544189 
	C2257.810059,1954.873169 2259.152832,1942.999268 2260.864502,1931.866943 
	C2237.962402,1915.437256 2230.177246,1899.762085 2235.806885,1882.908569 
	C2248.798096,1896.630737 2253.020508,1899.832031 2261.806152,1902.603516 
	C2263.713135,1898.199463 2261.358643,1896.015747 2257.817871,1893.884644 
	C2250.180176,1889.287476 2244.693359,1882.819946 2241.435791,1874.362061 
	C2239.793945,1870.099487 2239.997070,1866.496826 2243.281494,1863.411987 
	C2248.577637,1858.437378 2254.052490,1853.653320 2260.563477,1847.787231 
	C2259.934570,1842.876221 2259.268799,1836.631348 2258.320312,1830.429810 
	C2245.409424,1746.030273 2208.622559,1673.455688 2148.960205,1612.686157 
	C2099.091309,1561.891724 2039.372070,1527.302002 1970.641357,1508.701050 
	C1933.133911,1498.550171 1894.896729,1493.815308 1854.134766,1495.805176 
	C1829.725830,1495.995483 1805.677856,1499.415527 1781.974243,1504.870850 
	C1627.263672,1540.477173 1510.163330,1662.184814 1480.596436,1817.990601 
	C1478.636230,1828.320679 1477.539917,1838.814941 1476.260498,1847.712036 
	C1482.988892,1852.779175 1488.675049,1856.327637 1493.453979,1860.837402 
	C1500.146973,1867.153442 1500.241333,1870.041382 1496.180054,1878.520996 
	C1492.440796,1886.328491 1486.630981,1892.213989 1478.806641,1895.729492 
	C1474.024048,1897.878418 1473.343628,1900.906250 1475.184448,1905.909424 
	C1485.873901,1899.580444 1496.487549,1893.572144 1503.277832,1881.947876 
	C1507.499878,1889.497559 1505.332642,1896.390259 1503.552856,1902.908325 
	C1499.627808,1917.283203 1489.455811,1926.517090 1476.454468,1932.416138 
	C1480.813843,1972.649414 1490.967041,2010.375854 1506.693359,2046.612549 
	C1507.988403,2049.596680 1510.025146,2052.258545 1511.564941,2056.466064 
z"/>
<path fill="#9A5BD3" opacity="1.000000" stroke="none" 
	d="
M1855.956299,1496.096069 
	C1894.896729,1493.815308 1933.133911,1498.550171 1970.641357,1508.701050 
	C2039.372070,1527.302002 2099.091309,1561.891724 2148.960205,1612.686157 
	C2208.622559,1673.455688 2245.409424,1746.030273 2258.320312,1830.429810 
	C2259.268799,1836.631348 2259.934570,1842.876221 2260.563477,1847.787231 
	C2254.052490,1853.653320 2248.577637,1858.437378 2243.281494,1863.411987 
	C2239.997070,1866.496826 2239.793945,1870.099487 2241.435791,1874.362061 
	C2244.693359,1882.819946 2250.180176,1889.287476 2257.817871,1893.884644 
	C2261.358643,1896.015747 2263.713135,1898.199463 2261.806152,1902.603516 
	C2253.020508,1899.832031 2248.798096,1896.630737 2235.806885,1882.908569 
	C2230.177246,1899.762085 2237.962402,1915.437256 2260.864502,1931.866943 
	C2259.152832,1942.999268 2257.810059,1954.873169 2255.459961,1966.544189 
	C2225.138672,2117.127441 2111.810547,2237.066406 1962.000366,2272.488281 
	C1830.252563,2303.638916 1711.785522,2273.555176 1608.530762,2185.797852 
	C1568.931030,2152.141846 1538.343872,2111.171143 1515.169189,2064.674561 
	C1513.837646,2062.003418 1512.760498,2059.205078 1511.974487,2055.036621 
	C1523.469238,2050.333252 1534.554443,2047.059326 1546.143066,2044.310059 
	C1567.570801,2086.702637 1594.486206,2124.133057 1629.764526,2155.101074 
	C1716.046021,2230.841064 1816.492310,2259.695312 1929.322876,2241.035645 
	C2016.541748,2226.611816 2088.639404,2183.473389 2144.109619,2114.578857 
	C2210.136963,2032.572510 2235.174561,1938.406494 2219.072266,1834.596436 
	C2205.007080,1743.918823 2160.713135,1669.568604 2089.032959,1612.114990 
	C2037.404785,1570.733765 1978.474487,1545.829346 1912.704224,1537.912109 
	C1894.562988,1535.728394 1876.206421,1535.333618 1857.904663,1533.246338 
	C1857.225952,1520.281982 1856.591187,1508.188965 1855.956299,1496.096069 
z"/>
<path fill="#7C04E9" opacity="1.000000" stroke="none" 
	d="
M1545.639648,2043.785400 
	C1534.554443,2047.059326 1523.469238,2050.333252 1512.050781,2054.338379 
	C1510.025146,2052.258545 1507.988403,2049.596680 1506.693359,2046.612549 
	C1490.967041,2010.375854 1480.813843,1972.649414 1476.454468,1932.416138 
	C1489.455811,1926.517090 1499.627808,1917.283203 1503.552856,1902.908325 
	C1505.332642,1896.390259 1507.499878,1889.497559 1503.277832,1881.947876 
	C1496.487549,1893.572144 1485.873901,1899.580444 1475.184448,1905.909424 
	C1473.343628,1900.906250 1474.024048,1897.878418 1478.806641,1895.729492 
	C1486.630981,1892.213989 1492.440796,1886.328491 1496.180054,1878.520996 
	C1500.241333,1870.041382 1500.146973,1867.153442 1493.453979,1860.837402 
	C1488.675049,1856.327637 1482.988892,1852.779175 1476.260498,1847.712036 
	C1477.539917,1838.814941 1478.636230,1828.320679 1480.596436,1817.990601 
	C1510.163330,1662.184814 1627.263672,1540.477173 1781.974243,1504.870850 
	C1805.677856,1499.415527 1829.725830,1495.995483 1855.045654,1495.950684 
	C1856.591187,1508.188965 1857.225952,1520.281982 1857.154419,1533.566162 
	C1835.664551,1537.297241 1814.541138,1538.251953 1794.149780,1542.622070 
	C1587.893066,1586.825684 1464.502441,1797.306519 1529.151855,1999.992554 
	C1533.885498,2014.833252 1540.108887,2029.198853 1545.639648,2043.785400 
z"/>
<path fill="#EFD42F" opacity="1.000000" stroke="none" 
	d="
M1546.143066,2044.309937 
	C1540.108887,2029.198853 1533.885498,2014.833252 1529.151855,1999.992554 
	C1464.502441,1797.306519 1587.893066,1586.825684 1794.149780,1542.622070 
	C1814.541138,1538.251953 1835.664551,1537.297241 1857.198364,1534.437622 
	C1876.206421,1535.333618 1894.562988,1535.728394 1912.704224,1537.912109 
	C1978.474487,1545.829346 2037.404785,1570.733765 2089.032959,1612.114990 
	C2160.713135,1669.568604 2205.007080,1743.918823 2219.072266,1834.596436 
	C2235.174561,1938.406494 2210.136963,2032.572510 2144.109619,2114.578857 
	C2088.639404,2183.473389 2016.541748,2226.611816 1929.322876,2241.035645 
	C1816.492310,2259.695312 1716.046021,2230.841064 1629.764526,2155.101074 
	C1594.486206,2124.133057 1567.570801,2086.702637 1546.143066,2044.309937 
M1746.263428,2178.905029 
	C1805.116211,2203.404297 1866.000488,2209.956055 1928.426270,2197.504639 
	C2101.083252,2163.065674 2214.846680,1992.837891 2171.180176,1815.083008 
	C2130.571045,1649.774658 1965.071289,1548.494019 1798.619751,1585.743164 
	C1642.385620,1620.705933 1527.309204,1774.557007 1560.975220,1949.425171 
	C1581.684326,2056.992920 1645.088013,2132.907471 1746.263428,2178.905029 
z"/>
<path fill="#7B02ED" opacity="1.000000" stroke="none" 
	d="
M1745.568115,2178.584961 
	C1645.088013,2132.907471 1581.684326,2056.992920 1560.975220,1949.425171 
	C1527.309204,1774.557007 1642.385620,1620.705933 1798.619751,1585.743164 
	C1965.071289,1548.494019 2130.571045,1649.774658 2171.180176,1815.083008 
	C2214.846680,1992.837891 2101.083252,2163.065674 1928.426270,2197.504639 
	C1866.000488,2209.956055 1805.116211,2203.404297 1745.568115,2178.584961 
M1989.577271,1952.173950 
	C1989.577271,1948.425171 1989.577271,1944.676270 1989.577271,1940.927490 
	C1992.818115,1943.578369 1993.890503,1946.609863 1995.441895,1949.372437 
	C1997.451050,1952.950073 2001.026367,1952.988525 2003.145020,1949.506104 
	C2004.608032,1947.101440 2005.666260,1944.450439 2006.905518,1941.909546 
	C2007.424561,1942.006714 2007.943726,1942.103760 2008.462891,1942.200928 
	C2008.874146,1946.291870 2009.285278,1950.382812 2009.736450,1954.869995 
	C2012.851562,1954.869995 2015.613770,1954.869995 2018.860840,1954.869995 
	C2018.860840,1941.440063 2018.860840,1928.633301 2018.860840,1915.930664 
	C2007.955811,1913.628174 2007.893066,1913.656250 2004.602051,1922.689941 
	C2003.173218,1926.612549 2001.763794,1930.542236 1999.673950,1936.328247 
	C1996.261230,1927.827637 1993.715698,1921.486816 1991.259399,1915.368652 
	C1987.230591,1915.368652 1983.786865,1915.368652 1980.370972,1915.368652 
	C1980.370972,1928.984253 1980.370972,1941.797363 1980.370972,1955.932373 
	C1983.889038,1955.066284 1986.527710,1954.416870 1989.577271,1952.173950 
M1777.671631,1955.027710 
	C1782.499268,1945.569702 1783.309814,1935.218872 1785.879639,1924.653198 
	C1781.822754,1924.653198 1779.283691,1924.653198 1776.455811,1924.653198 
	C1775.092163,1929.409546 1773.819824,1933.847290 1772.547363,1938.285156 
	C1772.051270,1938.209717 1771.555176,1938.134277 1771.058960,1938.058838 
	C1769.799805,1933.738403 1768.540527,1929.417969 1767.196289,1924.805664 
	C1764.047852,1924.805664 1761.243286,1924.805664 1758.461792,1924.805664 
	C1756.960327,1929.569458 1755.635010,1933.774902 1753.598755,1940.235962 
	C1751.760498,1933.465698 1750.597168,1929.181152 1749.408691,1924.804199 
	C1746.155762,1924.804199 1743.342773,1924.804199 1739.174805,1924.804199 
	C1741.734619,1935.434082 1744.089355,1945.212036 1746.398804,1954.802246 
	C1751.256470,1954.802246 1755.047974,1954.802246 1758.888428,1954.802246 
	C1759.442993,1952.521240 1759.734253,1950.894653 1760.244141,1949.339478 
	C1760.828857,1947.555908 1761.607544,1945.835693 1762.700317,1943.085693 
	C1764.342041,1947.812134 1765.588501,1951.400757 1766.997803,1955.457886 
	C1770.242310,1955.457886 1773.193481,1955.457886 1777.671631,1955.027710 
M1592.552368,1952.906128 
	C1595.678711,1953.919922 1598.742676,1955.486572 1601.942749,1955.848389 
	C1613.694458,1957.177368 1618.277710,1952.931519 1618.151123,1941.261230 
	C1618.120117,1938.387939 1617.767700,1935.518188 1617.552979,1932.505493 
	C1612.309204,1932.505493 1607.813110,1932.505493 1603.900024,1932.505493 
	C1598.409668,1939.419434 1608.905640,1940.087158 1607.739502,1945.383423 
	C1603.681885,1947.601318 1599.996216,1946.583008 1597.451416,1943.035400 
	C1594.294067,1938.634033 1594.582153,1933.506470 1596.794556,1928.802368 
	C1598.698364,1924.754395 1602.574463,1922.780029 1606.752197,1924.333374 
	C1612.579224,1926.500244 1615.158081,1924.554932 1616.485962,1918.995605 
	C1611.153442,1914.778320 1605.645142,1913.368164 1599.406128,1914.911987 
	C1583.011475,1918.968750 1578.742065,1938.349121 1592.552368,1952.906128 
M2133.883789,1950.196655 
	C2133.890625,1946.540649 2133.891357,1942.884521 2133.906250,1939.228516 
	C2133.917725,1936.436523 2134.228027,1933.461914 2137.828125,1933.605469 
	C2141.525879,1933.752930 2141.261963,1937.023804 2141.307373,1939.627686 
	C2141.393799,1944.551270 2141.332520,1949.477539 2141.332520,1954.734863 
	C2145.399658,1954.734863 2148.461670,1954.734863 2151.491455,1954.734863 
	C2151.810303,1953.066650 2152.139160,1952.110840 2152.151855,1951.150757 
	C2152.213623,1946.498413 2152.296143,1941.842407 2152.176758,1937.192505 
	C2151.861328,1924.904175 2148.148926,1922.184204 2135.810059,1924.983765 
	C2135.386963,1925.079834 2134.831055,1924.588989 2134.228760,1924.324219 
	C2133.938721,1920.501221 2133.645264,1916.630127 2133.341553,1912.625244 
	C2129.631104,1912.625244 2126.546387,1912.625244 2123.333984,1912.625244 
	C2123.333984,1927.129883 2123.333984,1940.918091 2123.333984,1955.188599 
	C2127.562012,1954.754395 2131.972168,1957.910645 2133.883789,1950.196655 
M2023.915527,1854.410889 
	C2023.880615,1849.422485 2024.163452,1844.407104 2023.741821,1839.451538 
	C2022.972412,1830.408936 2018.875244,1827.568970 2009.663940,1829.119873 
	C2008.502075,1829.315430 2007.319336,1829.385620 2005.974243,1829.532837 
	C2005.518311,1825.077026 2005.124878,1821.232910 2004.649902,1816.590820 
	C2000.947632,1816.788696 1997.850952,1816.954102 1994.823730,1817.115845 
	C1994.823730,1831.883179 1994.823730,1845.665039 1994.823730,1859.548218 
	C1998.449829,1859.548218 2001.347290,1859.548218 2005.424316,1859.548218 
	C2005.424316,1855.199829 2005.222778,1851.282837 2005.481323,1847.396362 
	C2005.736084,1843.567139 2003.739624,1838.078003 2012.094238,1838.322876 
	C2012.439453,1845.431396 2012.781738,1852.481567 2013.164185,1860.357788 
	C2017.687744,1858.915527 2022.542358,1862.796143 2023.915527,1854.410889 
M1789.431030,1851.848022 
	C1781.718262,1849.329224 1781.718262,1849.329224 1779.103271,1855.777466 
	C1785.972168,1860.401489 1790.833374,1861.577393 1796.682495,1860.030151 
	C1802.987427,1858.362427 1807.198120,1853.230957 1807.272461,1847.123901 
	C1807.345459,1841.123535 1804.173584,1837.347656 1797.360718,1835.212158 
	C1795.375854,1834.590088 1793.442139,1833.805176 1791.484863,1833.094971 
	C1791.498291,1832.404907 1791.511719,1831.714966 1791.525024,1831.025024 
	C1796.076294,1830.358765 1800.627563,1829.692627 1805.752075,1828.942505 
	C1805.364746,1825.951050 1805.048706,1823.510620 1804.746094,1821.172729 
	C1796.827881,1821.172729 1789.682251,1821.172729 1782.050415,1821.172729 
	C1781.694580,1826.063599 1781.292969,1830.341431 1781.091064,1834.628906 
	C1780.724731,1842.406860 1781.189331,1842.601562 1789.049438,1842.910400 
	C1791.284424,1842.998291 1794.625366,1844.241089 1795.405151,1845.912598 
	C1796.985352,1849.300293 1794.635498,1851.426514 1789.431030,1851.848022 
M1891.698242,1821.081421 
	C1888.572510,1820.594238 1885.446777,1820.107178 1881.743774,1819.530029 
	C1879.507568,1828.684082 1877.477417,1836.995117 1875.447266,1845.306152 
	C1874.903564,1845.405151 1874.359741,1845.504028 1873.816040,1845.603027 
	C1871.541138,1837.152466 1869.266235,1828.701782 1867.030640,1820.396973 
	C1863.111694,1820.396973 1859.927612,1820.396973 1855.958618,1820.396973 
	C1858.011230,1827.504883 1859.781616,1833.877197 1861.697754,1840.205444 
	C1863.688232,1846.779175 1865.819580,1853.310303 1867.747192,1859.410767 
	C1872.757812,1859.410767 1876.627930,1859.410767 1880.961304,1859.410767 
	C1884.652832,1846.927734 1888.227417,1834.840210 1891.698242,1821.081421 
M1871.803345,1948.365234 
	C1872.925537,1956.163818 1872.925537,1956.163818 1882.011963,1953.939941 
	C1882.315674,1950.754150 1882.626953,1947.489502 1882.972778,1943.861816 
	C1886.700317,1943.120117 1890.339722,1942.723511 1893.763184,1941.643311 
	C1899.923462,1939.699341 1903.435303,1934.222900 1903.109497,1927.836914 
	C1902.795898,1921.690918 1899.341431,1916.946411 1892.831299,1916.156128 
	C1886.101929,1915.339111 1879.196045,1915.974487 1871.802246,1915.974487 
	C1871.802246,1926.576538 1871.802246,1936.538086 1871.803345,1948.365234 
M1933.236084,1859.284180 
	C1941.275635,1859.284180 1949.315186,1859.284180 1957.422363,1859.284180 
	C1957.422363,1848.946167 1957.422363,1839.468262 1957.422363,1829.594238 
	C1953.768921,1829.594238 1950.661621,1829.594238 1946.649536,1829.594238 
	C1946.649536,1835.121948 1946.687744,1840.032349 1946.634644,1844.941772 
	C1946.605103,1847.670166 1946.325562,1850.847290 1942.753784,1850.391602 
	C1941.539062,1850.236572 1939.997192,1847.075439 1939.850220,1845.190796 
	C1939.449219,1840.048462 1939.712280,1834.854370 1939.712280,1828.873779 
	C1935.117188,1829.152710 1932.000244,1829.341797 1928.049683,1829.581665 
	C1929.566040,1839.817627 1925.503784,1849.673096 1933.236084,1859.284180 
M1840.365845,1847.080566 
	C1841.752930,1840.399414 1841.407837,1833.867554 1838.394653,1827.660889 
	C1836.018799,1822.766968 1832.081665,1820.081055 1826.542969,1820.070801 
	C1821.447388,1820.061401 1817.383423,1822.331299 1815.135010,1826.768921 
	C1810.492920,1835.931030 1810.220337,1845.427002 1815.534058,1854.338257 
	C1820.474487,1862.623535 1831.589844,1862.736084 1837.168457,1854.891968 
	C1838.480713,1853.046509 1839.122803,1850.724365 1840.365845,1847.080566 
M1768.948730,1842.700684 
	C1769.840332,1840.213745 1769.855591,1838.122803 1766.662109,1837.363403 
	C1764.550659,1836.861206 1762.457153,1836.284546 1760.483032,1835.774048 
	C1760.109375,1830.680664 1762.220703,1828.590942 1766.349609,1829.548828 
	C1770.559204,1830.525513 1772.554443,1828.631836 1773.976318,1825.225464 
	C1765.262329,1817.408325 1753.952026,1819.018433 1750.557739,1828.615234 
	C1748.989990,1833.047363 1747.828369,1837.623169 1746.396362,1842.423340 
	C1748.208984,1843.419312 1750.070435,1844.442017 1751.612427,1845.289185 
	C1752.235352,1851.069946 1742.494019,1852.817749 1747.243652,1859.575195 
	C1756.102051,1859.575195 1764.972168,1859.575195 1774.913696,1859.575195 
	C1774.661987,1856.455444 1774.450439,1853.833130 1774.254395,1851.402222 
	C1769.229736,1850.941772 1765.392578,1850.590088 1761.873291,1850.267578 
	C1760.875854,1844.532837 1764.031738,1843.842041 1768.948730,1842.700684 
M1823.406128,1931.408813 
	C1826.494141,1939.376099 1829.582153,1947.343506 1832.591797,1955.108398 
	C1828.812256,1958.888794 1821.283325,1959.213135 1825.113159,1966.323242 
	C1834.883545,1966.924072 1838.339355,1965.426880 1841.622559,1957.152832 
	C1845.543945,1947.270142 1848.627686,1937.054199 1852.002563,1926.958618 
	C1852.161865,1926.481934 1851.624390,1925.772217 1851.300537,1924.858643 
	C1848.573242,1924.858643 1845.758301,1924.858643 1843.006836,1924.858643 
	C1841.207886,1930.322266 1839.595337,1935.219849 1837.434082,1941.783936 
	C1834.995850,1934.893188 1833.237427,1929.923340 1831.398193,1924.725586 
	C1828.170532,1924.725586 1825.308228,1924.725586 1821.865479,1924.725586 
	C1822.225220,1926.841797 1822.489380,1928.396240 1823.406128,1931.408813 
M1664.356079,1842.684814 
	C1661.189941,1848.365601 1652.034058,1850.094238 1653.241577,1859.191895 
	C1662.733276,1859.191895 1671.813477,1859.191895 1680.965942,1859.191895 
	C1680.965942,1856.254883 1680.965942,1854.062134 1680.965942,1851.535889 
	C1677.710083,1850.979614 1674.893799,1850.498413 1671.206421,1849.868286 
	C1673.334839,1846.486450 1675.177490,1843.811523 1676.762573,1840.991943 
	C1681.194092,1833.108154 1679.773315,1825.759399 1673.186035,1821.885620 
	C1666.418091,1817.905273 1658.992920,1819.855957 1653.746582,1827.017822 
	C1655.573242,1830.203247 1657.379639,1831.644653 1661.689087,1829.955444 
	C1667.358032,1827.733398 1669.838379,1830.481445 1668.211304,1836.298950 
	C1667.691528,1838.158081 1666.349609,1839.787231 1664.356079,1842.684814 
M2080.067627,1951.916260 
	C2081.964355,1957.912476 2086.235596,1954.772461 2090.168701,1954.942749 
	C2090.481689,1952.580688 2090.940186,1950.662842 2090.950195,1948.742676 
	C2090.975830,1943.760986 2091.174072,1938.737549 2090.629883,1933.805054 
	C2089.675537,1925.149170 2085.169922,1921.924805 2076.962646,1924.498657 
	C2073.564697,1925.564331 2070.965820,1925.638428 2067.784668,1924.323608 
	C2066.266357,1923.696045 2064.155762,1924.501343 2062.443115,1924.646484 
	C2062.443115,1935.245850 2062.443115,1945.024902 2062.443115,1955.468140 
	C2066.042236,1955.200317 2068.846436,1954.991577 2072.453613,1954.723145 
	C2072.453613,1948.400269 2072.203857,1942.770508 2072.633057,1937.192627 
	C2072.737549,1935.831787 2075.069824,1934.642212 2076.378174,1933.374023 
	C2077.555664,1934.651855 2079.594482,1935.833496 2079.750000,1937.225464 
	C2080.227051,1941.496460 2079.981934,1945.848267 2080.067627,1951.916260 
M1799.056030,1955.943848 
	C1804.700439,1955.444336 1810.344849,1954.944702 1816.396240,1954.409058 
	C1816.396240,1947.765869 1816.849976,1941.442627 1816.283936,1935.212158 
	C1815.537842,1926.997314 1811.179199,1923.366821 1802.872070,1923.930298 
	C1798.790161,1924.207031 1794.798950,1925.821167 1789.671509,1927.104004 
	C1791.517578,1930.275146 1792.593262,1932.122803 1793.405518,1933.518066 
	C1797.226196,1934.694824 1800.751465,1930.229492 1804.064819,1934.249634 
	C1791.532715,1939.329346 1788.862671,1941.386597 1788.996704,1946.571411 
	C1789.135864,1951.956177 1792.037231,1955.190796 1799.056030,1955.943848 
M1907.333740,1860.495850 
	C1909.906860,1860.015869 1912.680420,1859.992920 1915.015137,1858.969238 
	C1921.749756,1856.016968 1925.152344,1848.186401 1923.380493,1840.655762 
	C1921.667236,1833.375122 1915.725464,1828.446289 1908.515259,1828.324707 
	C1900.968750,1828.197388 1894.812988,1833.383545 1893.182251,1841.242798 
	C1891.297363,1850.326172 1895.472168,1856.593384 1907.333740,1860.495850 
M1706.598389,1945.526978 
	C1706.349976,1950.899780 1708.750977,1955.182617 1714.002930,1955.571045 
	C1720.518066,1956.053223 1727.152588,1954.924683 1734.198486,1954.461426 
	C1734.198486,1948.250366 1734.440918,1942.644409 1734.145386,1937.066895 
	C1733.614746,1927.054077 1728.499390,1922.733765 1718.524048,1924.003540 
	C1715.097046,1924.439819 1711.807373,1925.954468 1708.370239,1927.002319 
	C1711.166992,1933.728271 1711.161499,1933.668701 1715.551025,1933.260498 
	C1717.388794,1933.089600 1719.255737,1933.231934 1721.109375,1933.231934 
	C1716.065063,1937.439331 1709.109009,1937.213867 1706.598389,1945.526978 
M1692.241089,1923.961914 
	C1685.236450,1923.001709 1679.822754,1925.467896 1676.327148,1931.644287 
	C1672.571289,1938.279907 1673.800049,1947.112183 1678.965576,1951.891602 
	C1684.709717,1957.206177 1692.310913,1957.306519 1700.721680,1952.088867 
	C1700.188965,1948.977905 1699.501099,1946.220093 1695.152344,1947.347046 
	C1691.925781,1948.183350 1688.786011,1948.318237 1685.884399,1944.145996 
	C1691.947144,1943.659302 1697.000366,1943.253784 1702.162720,1942.839478 
	C1703.684814,1934.133301 1701.954834,1927.736328 1692.241089,1923.961914 
M1905.848267,1940.834961 
	C1908.854004,1955.644287 1919.016724,1960.090454 1931.863647,1952.110474 
	C1931.637695,1947.760864 1929.441040,1946.672241 1925.279297,1947.570557 
	C1922.574097,1948.154541 1919.264648,1948.584595 1918.381714,1943.978882 
	C1923.604980,1943.650879 1928.463379,1943.345947 1933.326904,1943.040527 
	C1934.637085,1935.534790 1933.949829,1929.557495 1927.570190,1925.642578 
	C1922.859741,1922.751953 1915.653687,1922.894897 1911.855957,1927.160645 
	C1908.979248,1930.391846 1907.790161,1935.125610 1905.848267,1940.834961 
M2055.604736,1943.848755 
	C2055.617432,1941.213745 2056.047852,1938.498901 2055.562500,1935.958984 
	C2054.234131,1929.007690 2048.617188,1924.214111 2041.800049,1923.725830 
	C2034.221191,1923.182861 2028.040405,1927.363281 2025.935425,1934.456055 
	C2023.659912,1942.123535 2026.299072,1949.894165 2032.460938,1953.672241 
	C2038.336304,1957.274658 2045.843262,1956.734009 2050.825439,1951.916748 
	C2052.657471,1950.145386 2053.718506,1947.576294 2055.604736,1943.848755 
M1719.766113,1828.585205 
	C1717.641357,1830.377319 1715.516602,1832.169556 1713.425171,1833.933594 
	C1707.851929,1827.606445 1707.851929,1827.606445 1699.272827,1830.152222 
	C1701.525513,1834.575195 1705.591064,1838.990234 1705.483643,1843.301270 
	C1705.364502,1848.082031 1701.409180,1852.756226 1699.204224,1857.513916 
	C1698.995728,1857.963867 1699.356812,1858.677856 1699.427246,1859.109131 
	C1706.459961,1862.438110 1709.994995,1857.916626 1713.231079,1851.618896 
	C1716.191895,1859.437500 1720.664917,1861.855103 1728.022339,1858.740601 
	C1725.428101,1853.890137 1722.981201,1849.315186 1720.536621,1844.744385 
	C1723.076538,1839.546387 1725.489624,1834.607788 1728.243652,1828.971313 
	C1725.187988,1828.741455 1723.254761,1828.596069 1719.766113,1828.585205 
M2055.927734,1847.474243 
	C2058.606445,1840.061157 2057.001953,1833.786011 2051.552979,1830.367310 
	C2046.145508,1826.974243 2039.016357,1827.883667 2034.163696,1832.585205 
	C2028.229614,1838.334473 2027.639404,1849.119751 2032.921387,1855.291382 
	C2038.457642,1861.760498 2047.999512,1862.098511 2055.651123,1856.031982 
	C2054.383301,1846.992554 2043.268433,1856.560059 2041.096802,1847.832886 
	C2045.741821,1847.832886 2050.016357,1847.832886 2055.927734,1847.474243 
M1664.244629,1949.357666 
	C1666.745117,1941.470215 1669.245605,1933.582764 1671.996216,1924.906372 
	C1668.049072,1924.906372 1664.992188,1924.906372 1661.808350,1924.906372 
	C1660.090942,1930.615479 1658.553101,1935.727783 1657.015137,1940.840088 
	C1656.372437,1940.764648 1655.729614,1940.689331 1655.086914,1940.613892 
	C1653.464233,1935.386841 1651.841431,1930.159668 1650.009399,1924.258423 
	C1646.727051,1924.416016 1643.649170,1924.563843 1639.587646,1924.758789 
	C1643.163452,1935.629883 1646.348755,1945.313477 1649.607666,1955.221313 
	C1655.293701,1954.812500 1661.158569,1958.425415 1664.244629,1949.357666 
M2112.729248,1955.957153 
	C2117.609375,1953.826904 2119.299072,1950.069702 2116.230469,1948.944214 
	C2108.014893,1945.931152 2110.273926,1939.908936 2110.454834,1933.838867 
	C2112.115723,1933.333496 2113.878418,1933.189453 2115.160645,1932.329590 
	C2118.301758,1930.222534 2118.199463,1924.736084 2115.138428,1924.708740 
	C2108.470703,1924.649414 2111.451904,1918.390991 2107.874756,1915.896240 
	C2106.157959,1916.229980 2103.036377,1915.901245 2101.954834,1917.231323 
	C2099.241943,1920.567749 2097.371094,1924.612793 2095.368164,1928.480103 
	C2095.014404,1929.162842 2095.314209,1930.827759 2095.889160,1931.246216 
	C2100.523438,1934.618652 2099.046143,1939.569336 2099.439453,1944.040039 
	C2100.175293,1952.411011 2101.751465,1954.016235 2112.729248,1955.957153 
M1968.097290,1832.940674 
	C1966.527466,1836.489380 1964.098633,1839.917236 1963.578613,1843.613647 
	C1962.688843,1849.940918 1964.997314,1855.661133 1971.108398,1858.552979 
	C1976.976562,1861.329834 1983.067017,1862.128540 1988.426270,1856.898804 
	C1987.384766,1853.341309 1986.830933,1850.134521 1981.857788,1851.424194 
	C1977.216064,1852.627808 1975.186401,1849.464355 1974.539551,1845.434326 
	C1973.853149,1841.157227 1976.072754,1837.877319 1981.087280,1837.627197 
	C1985.900513,1837.386963 1987.207886,1835.075684 1988.049927,1830.964233 
	C1981.252075,1826.710205 1975.189941,1828.049194 1968.097290,1832.940674 
M1939.351196,1951.429810 
	C1941.089600,1958.280396 1945.564575,1955.020630 1950.211914,1954.750244 
	C1950.211914,1950.234741 1950.261475,1946.298950 1950.198608,1942.364868 
	C1950.127319,1937.915405 1951.390625,1934.415649 1956.375488,1933.661499 
	C1962.178223,1932.783691 1961.193604,1928.703735 1961.401367,1923.195312 
	C1953.900391,1926.976685 1946.839478,1924.407959 1939.303345,1924.722778 
	C1939.303345,1933.829834 1939.303345,1941.771729 1939.351196,1951.429810 
M2063.208008,1843.254761 
	C2063.208008,1848.538086 2063.208008,1853.821533 2063.208008,1859.956665 
	C2067.275391,1859.749756 2070.385254,1859.591675 2074.090332,1859.403198 
	C2074.090332,1854.869263 2074.166748,1851.237183 2074.071289,1847.609375 
	C2073.946045,1842.843384 2074.983887,1838.937622 2080.492432,1837.976196 
	C2086.325439,1836.958252 2085.228027,1832.958130 2084.885498,1827.453979 
	C2080.701904,1829.118408 2077.491211,1831.435791 2074.327637,1831.372925 
	C2070.911377,1831.305054 2067.767334,1826.777344 2063.209229,1831.184937 
	C2063.209229,1834.196655 2063.209229,1837.826660 2063.208008,1843.254761 
M1625.141724,1951.468506 
	C1626.951416,1958.157837 1631.306763,1955.096313 1635.935303,1954.697754 
	C1635.935303,1949.205566 1635.935425,1944.316528 1635.935425,1939.427368 
	C1635.935425,1934.594116 1635.935303,1929.760986 1635.935303,1924.728027 
	C1631.736816,1924.728027 1628.895142,1924.728027 1625.080688,1924.728027 
	C1625.080688,1933.380127 1625.080688,1941.560669 1625.141724,1951.468506 
M1630.974976,1920.586060 
	C1635.340088,1919.665039 1637.331543,1917.202026 1635.434570,1912.853027 
	C1634.101562,1909.797119 1629.862305,1909.088623 1626.998779,1911.123535 
	C1623.428101,1913.661255 1624.225342,1916.529663 1630.974976,1920.586060 
z"/>
<path fill="#F1E5FD" opacity="1.000000" stroke="none" 
	d="
M1989.371826,1952.970703 
	C1986.527710,1954.416870 1983.889038,1955.066284 1980.370972,1955.932373 
	C1980.370972,1941.797363 1980.370972,1928.984253 1980.370972,1915.368652 
	C1983.786865,1915.368652 1987.230591,1915.368652 1991.259399,1915.368652 
	C1993.715698,1921.486816 1996.261230,1927.827637 1999.673950,1936.328247 
	C2001.763794,1930.542236 2003.173218,1926.612549 2004.602051,1922.689941 
	C2007.893066,1913.656250 2007.955811,1913.628174 2018.860840,1915.930664 
	C2018.860840,1928.633301 2018.860840,1941.440063 2018.860840,1954.869995 
	C2015.613770,1954.869995 2012.851562,1954.869995 2009.736450,1954.869995 
	C2009.285278,1950.382812 2008.874146,1946.291870 2008.462891,1942.200928 
	C2007.943726,1942.103760 2007.424561,1942.006714 2006.905518,1941.909546 
	C2005.666260,1944.450439 2004.608032,1947.101440 2003.145020,1949.506104 
	C2001.026367,1952.988525 1997.451050,1952.950073 1995.441895,1949.372437 
	C1993.890503,1946.609863 1992.818115,1943.578369 1989.577271,1940.927490 
	C1989.577271,1944.676270 1989.577271,1948.425171 1989.371826,1952.970703 
z"/>
<path fill="#F1E5FD" opacity="1.000000" stroke="none" 
	d="
M1776.908203,1955.242798 
	C1773.193481,1955.457886 1770.242310,1955.457886 1766.997803,1955.457886 
	C1765.588501,1951.400757 1764.342041,1947.812134 1762.700317,1943.085693 
	C1761.607544,1945.835693 1760.828857,1947.555908 1760.244141,1949.339478 
	C1759.734253,1950.894653 1759.442993,1952.521240 1758.888428,1954.802246 
	C1755.047974,1954.802246 1751.256470,1954.802246 1746.398804,1954.802246 
	C1744.089355,1945.212036 1741.734619,1935.434082 1739.174805,1924.804199 
	C1743.342773,1924.804199 1746.155762,1924.804199 1749.408691,1924.804199 
	C1750.597168,1929.181152 1751.760498,1933.465698 1753.598755,1940.235962 
	C1755.635010,1933.774902 1756.960327,1929.569458 1758.461792,1924.805664 
	C1761.243286,1924.805664 1764.047852,1924.805664 1767.196289,1924.805664 
	C1768.540527,1929.417969 1769.799805,1933.738403 1771.058960,1938.058838 
	C1771.555176,1938.134277 1772.051270,1938.209717 1772.547363,1938.285156 
	C1773.819824,1933.847290 1775.092163,1929.409546 1776.455811,1924.653198 
	C1779.283691,1924.653198 1781.822754,1924.653198 1785.879639,1924.653198 
	C1783.309814,1935.218872 1782.499268,1945.569702 1776.908203,1955.242798 
z"/>
<path fill="#F3E8FD" opacity="1.000000" stroke="none" 
	d="
M1591.890625,1952.484253 
	C1578.742065,1938.349121 1583.011475,1918.968750 1599.406128,1914.911987 
	C1605.645142,1913.368164 1611.153442,1914.778320 1616.485962,1918.995605 
	C1615.158081,1924.554932 1612.579224,1926.500244 1606.752197,1924.333374 
	C1602.574463,1922.780029 1598.698364,1924.754395 1596.794556,1928.802368 
	C1594.582153,1933.506470 1594.294067,1938.634033 1597.451416,1943.035400 
	C1599.996216,1946.583008 1603.681885,1947.601318 1607.739502,1945.383423 
	C1608.905640,1940.087158 1598.409668,1939.419434 1603.900024,1932.505493 
	C1607.813110,1932.505493 1612.309204,1932.505493 1617.552979,1932.505493 
	C1617.767700,1935.518188 1618.120117,1938.387939 1618.151123,1941.261230 
	C1618.277710,1952.931519 1613.694458,1957.177368 1601.942749,1955.848389 
	C1598.742676,1955.486572 1595.678711,1953.919922 1591.890625,1952.484253 
z"/>
<path fill="#F3E8FD" opacity="1.000000" stroke="none" 
	d="
M2133.856934,1951.070068 
	C2131.972168,1957.910645 2127.562012,1954.754395 2123.333984,1955.188599 
	C2123.333984,1940.918091 2123.333984,1927.129883 2123.333984,1912.625244 
	C2126.546387,1912.625244 2129.631104,1912.625244 2133.341553,1912.625244 
	C2133.645264,1916.630127 2133.938721,1920.501221 2134.228760,1924.324219 
	C2134.831055,1924.588989 2135.386963,1925.079834 2135.810059,1924.983765 
	C2148.148926,1922.184204 2151.861328,1924.904175 2152.176758,1937.192505 
	C2152.296143,1941.842407 2152.213623,1946.498413 2152.151855,1951.150757 
	C2152.139160,1952.110840 2151.810303,1953.066650 2151.491455,1954.734863 
	C2148.461670,1954.734863 2145.399658,1954.734863 2141.332520,1954.734863 
	C2141.332520,1949.477539 2141.393799,1944.551270 2141.307373,1939.627686 
	C2141.261963,1937.023804 2141.525879,1933.752930 2137.828125,1933.605469 
	C2134.228027,1933.461914 2133.917725,1936.436523 2133.906250,1939.228516 
	C2133.891357,1942.884521 2133.890625,1946.540649 2133.856934,1951.070068 
z"/>
<path fill="#F1E5FD" opacity="1.000000" stroke="none" 
	d="
M2023.893311,1855.310791 
	C2022.542358,1862.796143 2017.687744,1858.915527 2013.164185,1860.357788 
	C2012.781738,1852.481567 2012.439453,1845.431396 2012.094238,1838.322876 
	C2003.739624,1838.078003 2005.736084,1843.567139 2005.481323,1847.396362 
	C2005.222778,1851.282837 2005.424316,1855.199829 2005.424316,1859.548218 
	C2001.347290,1859.548218 1998.449829,1859.548218 1994.823730,1859.548218 
	C1994.823730,1845.665039 1994.823730,1831.883179 1994.823730,1817.115845 
	C1997.850952,1816.954102 2000.947632,1816.788696 2004.649902,1816.590820 
	C2005.124878,1821.232910 2005.518311,1825.077026 2005.974243,1829.532837 
	C2007.319336,1829.385620 2008.502075,1829.315430 2009.663940,1829.119873 
	C2018.875244,1827.568970 2022.972412,1830.408936 2023.741821,1839.451538 
	C2024.163452,1844.407104 2023.880615,1849.422485 2023.893311,1855.310791 
z"/>
<path fill="#F3E8FD" opacity="1.000000" stroke="none" 
	d="
M1790.230225,1851.869263 
	C1794.635498,1851.426514 1796.985352,1849.300293 1795.405151,1845.912598 
	C1794.625366,1844.241089 1791.284424,1842.998291 1789.049438,1842.910400 
	C1781.189331,1842.601562 1780.724731,1842.406860 1781.091064,1834.628906 
	C1781.292969,1830.341431 1781.694580,1826.063599 1782.050415,1821.172729 
	C1789.682251,1821.172729 1796.827881,1821.172729 1804.746094,1821.172729 
	C1805.048706,1823.510620 1805.364746,1825.951050 1805.752075,1828.942505 
	C1800.627563,1829.692627 1796.076294,1830.358765 1791.525024,1831.025024 
	C1791.511719,1831.714966 1791.498291,1832.404907 1791.484863,1833.094971 
	C1793.442139,1833.805176 1795.375854,1834.590088 1797.360718,1835.212158 
	C1804.173584,1837.347656 1807.345459,1841.123535 1807.272461,1847.123901 
	C1807.198120,1853.230957 1802.987427,1858.362427 1796.682495,1860.030151 
	C1790.833374,1861.577393 1785.972168,1860.401489 1779.103271,1855.777466 
	C1781.718262,1849.329224 1781.718262,1849.329224 1790.230225,1851.869263 
z"/>
<path fill="#F5ECFD" opacity="1.000000" stroke="none" 
	d="
M1891.750122,1821.917114 
	C1888.227417,1834.840210 1884.652832,1846.927734 1880.961304,1859.410767 
	C1876.627930,1859.410767 1872.757812,1859.410767 1867.747192,1859.410767 
	C1865.819580,1853.310303 1863.688232,1846.779175 1861.697754,1840.205444 
	C1859.781616,1833.877197 1858.011230,1827.504883 1855.958618,1820.396973 
	C1859.927612,1820.396973 1863.111694,1820.396973 1867.030640,1820.396973 
	C1869.266235,1828.701782 1871.541138,1837.152466 1873.816040,1845.603027 
	C1874.359741,1845.504028 1874.903564,1845.405151 1875.447266,1845.306152 
	C1877.477417,1836.995117 1879.507568,1828.684082 1881.743774,1819.530029 
	C1885.446777,1820.107178 1888.572510,1820.594238 1891.750122,1821.917114 
z"/>
<path fill="#F7F0FE" opacity="1.000000" stroke="none" 
	d="
M1871.802734,1947.432495 
	C1871.802246,1936.538086 1871.802246,1926.576538 1871.802246,1915.974487 
	C1879.196045,1915.974487 1886.101929,1915.339111 1892.831299,1916.156128 
	C1899.341431,1916.946411 1902.795898,1921.690918 1903.109497,1927.836914 
	C1903.435303,1934.222900 1899.923462,1939.699341 1893.763184,1941.643311 
	C1890.339722,1942.723511 1886.700317,1943.120117 1882.972778,1943.861816 
	C1882.626953,1947.489502 1882.315674,1950.754150 1882.011963,1953.939941 
	C1872.925537,1956.163818 1872.925537,1956.163818 1871.802734,1947.432495 
M1885.262817,1923.888306 
	C1880.080933,1926.493896 1882.517944,1930.193726 1883.305298,1933.660522 
	C1887.347778,1934.597290 1890.790649,1934.637207 1892.006104,1930.502075 
	C1893.197510,1926.449097 1891.097534,1924.193359 1885.262817,1923.888306 
z"/>
<path fill="#F1E5FD" opacity="1.000000" stroke="none" 
	d="
M1932.656006,1858.808105 
	C1925.503784,1849.673096 1929.566040,1839.817627 1928.049683,1829.581665 
	C1932.000244,1829.341797 1935.117188,1829.152710 1939.712280,1828.873779 
	C1939.712280,1834.854370 1939.449219,1840.048462 1939.850220,1845.190796 
	C1939.997192,1847.075439 1941.539062,1850.236572 1942.753784,1850.391602 
	C1946.325562,1850.847290 1946.605103,1847.670166 1946.634644,1844.941772 
	C1946.687744,1840.032349 1946.649536,1835.121948 1946.649536,1829.594238 
	C1950.661621,1829.594238 1953.768921,1829.594238 1957.422363,1829.594238 
	C1957.422363,1839.468262 1957.422363,1848.946167 1957.422363,1859.284180 
	C1949.315186,1859.284180 1941.275635,1859.284180 1932.656006,1858.808105 
z"/>
<path fill="#F5ECFD" opacity="1.000000" stroke="none" 
	d="
M1840.219482,1847.851074 
	C1839.122803,1850.724365 1838.480713,1853.046509 1837.168457,1854.891968 
	C1831.589844,1862.736084 1820.474487,1862.623535 1815.534058,1854.338257 
	C1810.220337,1845.427002 1810.492920,1835.931030 1815.135010,1826.768921 
	C1817.383423,1822.331299 1821.447388,1820.061401 1826.542969,1820.070801 
	C1832.081665,1820.081055 1836.018799,1822.766968 1838.394653,1827.660889 
	C1841.407837,1833.867554 1841.752930,1840.399414 1840.219482,1847.851074 
M1824.057007,1829.926636 
	C1821.294434,1837.755493 1820.318726,1845.364258 1825.947998,1852.981079 
	C1832.418823,1845.817017 1833.068970,1834.589600 1827.976562,1829.152466 
	C1827.495117,1828.638428 1826.144043,1828.938599 1824.057007,1829.926636 
z"/>
<path fill="#F5ECFD" opacity="1.000000" stroke="none" 
	d="
M1768.282959,1843.149780 
	C1764.031738,1843.842041 1760.875854,1844.532837 1761.873291,1850.267578 
	C1765.392578,1850.590088 1769.229736,1850.941772 1774.254395,1851.402222 
	C1774.450439,1853.833130 1774.661987,1856.455444 1774.913696,1859.575195 
	C1764.972168,1859.575195 1756.102051,1859.575195 1747.243652,1859.575195 
	C1742.494019,1852.817749 1752.235352,1851.069946 1751.612427,1845.289185 
	C1750.070435,1844.442017 1748.208984,1843.419312 1746.396362,1842.423340 
	C1747.828369,1837.623169 1748.989990,1833.047363 1750.557739,1828.615234 
	C1753.952026,1819.018433 1765.262329,1817.408325 1773.976318,1825.225464 
	C1772.554443,1828.631836 1770.559204,1830.525513 1766.349609,1829.548828 
	C1762.220703,1828.590942 1760.109375,1830.680664 1760.483032,1835.774048 
	C1762.457153,1836.284546 1764.550659,1836.861206 1766.662109,1837.363403 
	C1769.855591,1838.122803 1769.840332,1840.213745 1768.282959,1843.149780 
z"/>
<path fill="#F3E8FD" opacity="1.000000" stroke="none" 
	d="
M1823.079834,1930.679688 
	C1822.489380,1928.396240 1822.225220,1926.841797 1821.865479,1924.725586 
	C1825.308228,1924.725586 1828.170532,1924.725586 1831.398193,1924.725586 
	C1833.237427,1929.923340 1834.995850,1934.893188 1837.434082,1941.783936 
	C1839.595337,1935.219849 1841.207886,1930.322266 1843.006836,1924.858643 
	C1845.758301,1924.858643 1848.573242,1924.858643 1851.300537,1924.858643 
	C1851.624390,1925.772217 1852.161865,1926.481934 1852.002563,1926.958618 
	C1848.627686,1937.054199 1845.543945,1947.270142 1841.622559,1957.152832 
	C1838.339355,1965.426880 1834.883545,1966.924072 1825.113159,1966.323242 
	C1821.283325,1959.213135 1828.812256,1958.888794 1832.591797,1955.108398 
	C1829.582153,1947.343506 1826.494141,1939.376099 1823.079834,1930.679688 
z"/>
<path fill="#F3E8FD" opacity="1.000000" stroke="none" 
	d="
M1664.869995,1842.103271 
	C1666.349609,1839.787231 1667.691528,1838.158081 1668.211304,1836.298950 
	C1669.838379,1830.481445 1667.358032,1827.733398 1661.689087,1829.955444 
	C1657.379639,1831.644653 1655.573242,1830.203247 1653.746582,1827.017822 
	C1658.992920,1819.855957 1666.418091,1817.905273 1673.186035,1821.885620 
	C1679.773315,1825.759399 1681.194092,1833.108154 1676.762573,1840.991943 
	C1675.177490,1843.811523 1673.334839,1846.486450 1671.206421,1849.868286 
	C1674.893799,1850.498413 1677.710083,1850.979614 1680.965942,1851.535889 
	C1680.965942,1854.062134 1680.965942,1856.254883 1680.965942,1859.191895 
	C1671.813477,1859.191895 1662.733276,1859.191895 1653.241577,1859.191895 
	C1652.034058,1850.094238 1661.189941,1848.365601 1664.869995,1842.103271 
z"/>
<path fill="#F7F0FE" opacity="1.000000" stroke="none" 
	d="
M2080.042480,1951.042480 
	C2079.981934,1945.848267 2080.227051,1941.496460 2079.750000,1937.225464 
	C2079.594482,1935.833496 2077.555664,1934.651855 2076.378174,1933.374023 
	C2075.069824,1934.642212 2072.737549,1935.831787 2072.633057,1937.192627 
	C2072.203857,1942.770508 2072.453613,1948.400269 2072.453613,1954.723145 
	C2068.846436,1954.991577 2066.042236,1955.200317 2062.443115,1955.468140 
	C2062.443115,1945.024902 2062.443115,1935.245850 2062.443115,1924.646484 
	C2064.155762,1924.501343 2066.266357,1923.696045 2067.784668,1924.323608 
	C2070.965820,1925.638428 2073.564697,1925.564331 2076.962646,1924.498657 
	C2085.169922,1921.924805 2089.675537,1925.149170 2090.629883,1933.805054 
	C2091.174072,1938.737549 2090.975830,1943.760986 2090.950195,1948.742676 
	C2090.940186,1950.662842 2090.481689,1952.580688 2090.168701,1954.942749 
	C2086.235596,1954.772461 2081.964355,1957.912476 2080.042480,1951.042480 
z"/>
<path fill="#F5ECFD" opacity="1.000000" stroke="none" 
	d="
M1798.270386,1955.944458 
	C1792.037231,1955.190796 1789.135864,1951.956177 1788.996704,1946.571411 
	C1788.862671,1941.386597 1791.532715,1939.329346 1804.064819,1934.249634 
	C1800.751465,1930.229492 1797.226196,1934.694824 1793.405518,1933.518066 
	C1792.593262,1932.122803 1791.517578,1930.275146 1789.671509,1927.104004 
	C1794.798950,1925.821167 1798.790161,1924.207031 1802.872070,1923.930298 
	C1811.179199,1923.366821 1815.537842,1926.997314 1816.283936,1935.212158 
	C1816.849976,1941.442627 1816.396240,1947.765869 1816.396240,1954.409058 
	C1810.344849,1954.944702 1804.700439,1955.444336 1798.270386,1955.944458 
M1804.226562,1947.417603 
	C1804.469604,1945.820679 1804.712646,1944.223633 1804.955688,1942.626709 
	C1803.363159,1943.153076 1801.770752,1943.679443 1800.178223,1944.205933 
	C1801.035278,1945.443237 1801.892212,1946.680542 1804.226562,1947.417603 
z"/>
<path fill="#F5ECFD" opacity="1.000000" stroke="none" 
	d="
M1906.617920,1860.417236 
	C1895.472168,1856.593384 1891.297363,1850.326172 1893.182251,1841.242798 
	C1894.812988,1833.383545 1900.968750,1828.197388 1908.515259,1828.324707 
	C1915.725464,1828.446289 1921.667236,1833.375122 1923.380493,1840.655762 
	C1925.152344,1848.186401 1921.749756,1856.016968 1915.015137,1858.969238 
	C1912.680420,1859.992920 1909.906860,1860.015869 1906.617920,1860.417236 
M1904.223755,1848.036377 
	C1908.739624,1852.495483 1910.972656,1852.447998 1912.244995,1847.865845 
	C1913.510010,1843.310181 1911.900269,1837.577148 1909.077393,1837.651001 
	C1903.166382,1837.805664 1904.100952,1842.518677 1904.223755,1848.036377 
z"/>
<path fill="#F5ECFD" opacity="1.000000" stroke="none" 
	d="
M1706.776123,1944.800293 
	C1709.109009,1937.213867 1716.065063,1937.439331 1721.109375,1933.231934 
	C1719.255737,1933.231934 1717.388794,1933.089600 1715.551025,1933.260498 
	C1711.161499,1933.668701 1711.166992,1933.728271 1708.370239,1927.002319 
	C1711.807373,1925.954468 1715.097046,1924.439819 1718.524048,1924.003540 
	C1728.499390,1922.733765 1733.614746,1927.054077 1734.145386,1937.066895 
	C1734.440918,1942.644409 1734.198486,1948.250366 1734.198486,1954.461426 
	C1727.152588,1954.924683 1720.518066,1956.053223 1714.002930,1955.571045 
	C1708.750977,1955.182617 1706.349976,1950.899780 1706.776123,1944.800293 
M1722.959351,1946.182861 
	C1724.054321,1943.920288 1723.679199,1942.062134 1720.899536,1942.309204 
	C1719.701538,1942.415527 1717.740723,1944.224976 1717.721069,1945.290405 
	C1717.670288,1948.027832 1719.704590,1948.187134 1722.959351,1946.182861 
z"/>
<path fill="#F1E5FD" opacity="1.000000" stroke="none" 
	d="
M1693.013062,1924.127197 
	C1701.954834,1927.736328 1703.684814,1934.133301 1702.162720,1942.839478 
	C1697.000366,1943.253784 1691.947144,1943.659302 1685.884399,1944.145996 
	C1688.786011,1948.318237 1691.925781,1948.183350 1695.152344,1947.347046 
	C1699.501099,1946.220093 1700.188965,1948.977905 1700.721680,1952.088867 
	C1692.310913,1957.306519 1684.709717,1957.206177 1678.965576,1951.891602 
	C1673.800049,1947.112183 1672.571289,1938.279907 1676.327148,1931.644287 
	C1679.822754,1925.467896 1685.236450,1923.001709 1693.013062,1924.127197 
M1692.207764,1935.117676 
	C1690.201538,1930.388184 1688.223877,1931.901855 1685.381714,1935.507935 
	C1687.753174,1935.702026 1689.285767,1935.827515 1692.207764,1935.117676 
z"/>
<path fill="#F3E8FD" opacity="1.000000" stroke="none" 
	d="
M1905.849121,1940.012817 
	C1907.790161,1935.125610 1908.979248,1930.391846 1911.855957,1927.160645 
	C1915.653687,1922.894897 1922.859741,1922.751953 1927.570190,1925.642578 
	C1933.949829,1929.557495 1934.637085,1935.534790 1933.326904,1943.040527 
	C1928.463379,1943.345947 1923.604980,1943.650879 1918.381714,1943.978882 
	C1919.264648,1948.584595 1922.574097,1948.154541 1925.279297,1947.570557 
	C1929.441040,1946.672241 1931.637695,1947.760864 1931.863647,1952.110474 
	C1919.016724,1960.090454 1908.854004,1955.644287 1905.849121,1940.012817 
M1923.614380,1933.650146 
	C1920.682983,1931.023438 1918.652954,1931.662476 1916.635498,1936.302124 
	C1919.636475,1935.793457 1921.728271,1935.438843 1923.614380,1933.650146 
z"/>
<path fill="#F7F0FE" opacity="1.000000" stroke="none" 
	d="
M2055.368164,1944.609863 
	C2053.718506,1947.576294 2052.657471,1950.145386 2050.825439,1951.916748 
	C2045.843262,1956.734009 2038.336304,1957.274658 2032.460938,1953.672241 
	C2026.299072,1949.894165 2023.659912,1942.123535 2025.935425,1934.456055 
	C2028.040405,1927.363281 2034.221191,1923.182861 2041.800049,1923.725830 
	C2048.617188,1924.214111 2054.234131,1929.007690 2055.562500,1935.958984 
	C2056.047852,1938.498901 2055.617432,1941.213745 2055.368164,1944.609863 
M2036.119385,1942.157227 
	C2037.730591,1943.865845 2039.341797,1945.574585 2040.953125,1947.283447 
	C2042.271606,1945.580444 2044.236328,1944.060425 2044.780518,1942.138184 
	C2046.105591,1937.458252 2043.783203,1932.087769 2040.817627,1932.373901 
	C2035.787109,1932.859131 2036.189941,1937.023438 2036.119385,1942.157227 
z"/>
<path fill="#F1E5FD" opacity="1.000000" stroke="none" 
	d="
M1720.543945,1828.517944 
	C1723.254761,1828.596069 1725.187988,1828.741455 1728.243652,1828.971313 
	C1725.489624,1834.607788 1723.076538,1839.546387 1720.536621,1844.744385 
	C1722.981201,1849.315186 1725.428101,1853.890137 1728.022339,1858.740601 
	C1720.664917,1861.855103 1716.191895,1859.437500 1713.231079,1851.618896 
	C1709.994995,1857.916626 1706.459961,1862.438110 1699.427246,1859.109131 
	C1699.356812,1858.677856 1698.995728,1857.963867 1699.204224,1857.513916 
	C1701.409180,1852.756226 1705.364502,1848.082031 1705.483643,1843.301270 
	C1705.591064,1838.990234 1701.525513,1834.575195 1699.272827,1830.152222 
	C1707.851929,1827.606445 1707.851929,1827.606445 1713.425171,1833.933594 
	C1715.516602,1832.169556 1717.641357,1830.377319 1720.543945,1828.517944 
z"/>
<path fill="#F5ECFD" opacity="1.000000" stroke="none" 
	d="
M2055.109375,1847.653564 
	C2050.016357,1847.832886 2045.741821,1847.832886 2041.096802,1847.832886 
	C2043.268433,1856.560059 2054.383301,1846.992554 2055.651123,1856.031982 
	C2047.999512,1862.098511 2038.457642,1861.760498 2032.921387,1855.291382 
	C2027.639404,1849.119751 2028.229614,1838.334473 2034.163696,1832.585205 
	C2039.016357,1827.883667 2046.145508,1826.974243 2051.552979,1830.367310 
	C2057.001953,1833.786011 2058.606445,1840.061157 2055.109375,1847.653564 
M2040.795654,1840.562256 
	C2043.590942,1841.716919 2046.343872,1842.695068 2048.333252,1838.709106 
	C2045.280640,1835.446167 2042.760254,1835.374512 2040.795654,1840.562256 
z"/>
<path fill="#F1E5FD" opacity="1.000000" stroke="none" 
	d="
M1664.041748,1950.114990 
	C1661.158569,1958.425415 1655.293701,1954.812500 1649.607666,1955.221313 
	C1646.348755,1945.313477 1643.163452,1935.629883 1639.587646,1924.758789 
	C1643.649170,1924.563843 1646.727051,1924.416016 1650.009399,1924.258423 
	C1651.841431,1930.159668 1653.464233,1935.386841 1655.086914,1940.613892 
	C1655.729614,1940.689331 1656.372437,1940.764648 1657.015137,1940.840088 
	C1658.553101,1935.727783 1660.090942,1930.615479 1661.808350,1924.906372 
	C1664.992188,1924.906372 1668.049072,1924.906372 1671.996216,1924.906372 
	C1669.245605,1933.582764 1666.745117,1941.470215 1664.041748,1950.114990 
z"/>
<path fill="#F7F0FE" opacity="1.000000" stroke="none" 
	d="
M2111.924805,1955.965820 
	C2101.751465,1954.016235 2100.175293,1952.411011 2099.439453,1944.040039 
	C2099.046143,1939.569336 2100.523438,1934.618652 2095.889160,1931.246216 
	C2095.314209,1930.827759 2095.014404,1929.162842 2095.368164,1928.480103 
	C2097.371094,1924.612793 2099.241943,1920.567749 2101.954834,1917.231323 
	C2103.036377,1915.901245 2106.157959,1916.229980 2107.874756,1915.896240 
	C2111.451904,1918.390991 2108.470703,1924.649414 2115.138428,1924.708740 
	C2118.199463,1924.736084 2118.301758,1930.222534 2115.160645,1932.329590 
	C2113.878418,1933.189453 2112.115723,1933.333496 2110.454834,1933.838867 
	C2110.273926,1939.908936 2108.014893,1945.931152 2116.230469,1948.944214 
	C2119.299072,1950.069702 2117.609375,1953.826904 2111.924805,1955.965820 
z"/>
<path fill="#F5ECFD" opacity="1.000000" stroke="none" 
	d="
M1968.670654,1832.446289 
	C1975.189941,1828.049194 1981.252075,1826.710205 1988.049927,1830.964233 
	C1987.207886,1835.075684 1985.900513,1837.386963 1981.087280,1837.627197 
	C1976.072754,1837.877319 1973.853149,1841.157227 1974.539551,1845.434326 
	C1975.186401,1849.464355 1977.216064,1852.627808 1981.857788,1851.424194 
	C1986.830933,1850.134521 1987.384766,1853.341309 1988.426270,1856.898804 
	C1983.067017,1862.128540 1976.976562,1861.329834 1971.108398,1858.552979 
	C1964.997314,1855.661133 1962.688843,1849.940918 1963.578613,1843.613647 
	C1964.098633,1839.917236 1966.527466,1836.489380 1968.670654,1832.446289 
z"/>
<path fill="#F3E8FD" opacity="1.000000" stroke="none" 
	d="
M1939.327271,1950.571655 
	C1939.303345,1941.771729 1939.303345,1933.829834 1939.303345,1924.722778 
	C1946.839478,1924.407959 1953.900391,1926.976685 1961.401367,1923.195312 
	C1961.193604,1928.703735 1962.178223,1932.783691 1956.375488,1933.661499 
	C1951.390625,1934.415649 1950.127319,1937.915405 1950.198608,1942.364868 
	C1950.261475,1946.298950 1950.211914,1950.234741 1950.211914,1954.750244 
	C1945.564575,1955.020630 1941.089600,1958.280396 1939.327271,1950.571655 
z"/>
<path fill="#F7F0FE" opacity="1.000000" stroke="none" 
	d="
M2063.208496,1842.355713 
	C2063.209229,1837.826660 2063.209229,1834.196655 2063.209229,1831.184937 
	C2067.767334,1826.777344 2070.911377,1831.305054 2074.327637,1831.372925 
	C2077.491211,1831.435791 2080.701904,1829.118408 2084.885498,1827.453979 
	C2085.228027,1832.958130 2086.325439,1836.958252 2080.492432,1837.976196 
	C2074.983887,1838.937622 2073.946045,1842.843384 2074.071289,1847.609375 
	C2074.166748,1851.237183 2074.090332,1854.869263 2074.090332,1859.403198 
	C2070.385254,1859.591675 2067.275391,1859.749756 2063.208008,1859.956665 
	C2063.208008,1853.821533 2063.208008,1848.538086 2063.208496,1842.355713 
z"/>
<path fill="#F3E8FD" opacity="1.000000" stroke="none" 
	d="
M1625.111206,1950.604858 
	C1625.080688,1941.560669 1625.080688,1933.380127 1625.080688,1924.728027 
	C1628.895142,1924.728027 1631.736816,1924.728027 1635.935303,1924.728027 
	C1635.935303,1929.760986 1635.935425,1934.594116 1635.935425,1939.427368 
	C1635.935425,1944.316528 1635.935303,1949.205566 1635.935303,1954.697754 
	C1631.306763,1955.096313 1626.951416,1958.157837 1625.111206,1950.604858 
z"/>
<path fill="#F1E5FD" opacity="1.000000" stroke="none" 
	d="
M1630.291016,1920.546875 
	C1624.225342,1916.529663 1623.428101,1913.661255 1626.998779,1911.123535 
	C1629.862305,1909.088623 1634.101562,1909.797119 1635.434570,1912.853027 
	C1637.331543,1917.202026 1635.340088,1919.665039 1630.291016,1920.546875 
z"/>
<path fill="#8A1EEF" opacity="1.000000" stroke="none" 
	d="
M1886.103516,1923.864990 
	C1891.097534,1924.193359 1893.197510,1926.449097 1892.006104,1930.502075 
	C1890.790649,1934.637207 1887.347778,1934.597290 1883.305298,1933.660522 
	C1882.517944,1930.193726 1880.080933,1926.493896 1886.103516,1923.864990 
z"/>
<path fill="#8A1EEF" opacity="1.000000" stroke="none" 
	d="
M1824.626953,1829.393677 
	C1826.144043,1828.938599 1827.495117,1828.638428 1827.976562,1829.152466 
	C1833.068970,1834.589600 1832.418823,1845.817017 1825.947998,1852.981079 
	C1820.318726,1845.364258 1821.294434,1837.755493 1824.626953,1829.393677 
z"/>
<path fill="#9959D6" opacity="1.000000" stroke="none" 
	d="
M1803.487915,1947.667725 
	C1801.892212,1946.680542 1801.035278,1945.443237 1800.178223,1944.205933 
	C1801.770752,1943.679443 1803.363159,1943.153076 1804.955688,1942.626709 
	C1804.712646,1944.223633 1804.469604,1945.820679 1803.487915,1947.667725 
z"/>
<path fill="#8A1EEF" opacity="1.000000" stroke="none" 
	d="
M1904.104004,1847.205078 
	C1904.100952,1842.518677 1903.166382,1837.805664 1909.077393,1837.651001 
	C1911.900269,1837.577148 1913.510010,1843.310181 1912.244995,1847.865845 
	C1910.972656,1852.447998 1908.739624,1852.495483 1904.104004,1847.205078 
z"/>
<path fill="#9959D6" opacity="1.000000" stroke="none" 
	d="
M1722.415039,1946.730347 
	C1719.704590,1948.187134 1717.670288,1948.027832 1717.721069,1945.290405 
	C1717.740723,1944.224976 1719.701538,1942.415527 1720.899536,1942.309204 
	C1723.679199,1942.062134 1724.054321,1943.920288 1722.415039,1946.730347 
z"/>
<path fill="#8A1EEF" opacity="1.000000" stroke="none" 
	d="
M1691.512939,1935.535278 
	C1689.285767,1935.827515 1687.753174,1935.702026 1685.381714,1935.507935 
	C1688.223877,1931.901855 1690.201538,1930.388184 1691.512939,1935.535278 
z"/>
<path fill="#8A1EEF" opacity="1.000000" stroke="none" 
	d="
M1923.717285,1934.367188 
	C1921.728271,1935.438843 1919.636475,1935.793457 1916.635498,1936.302124 
	C1918.652954,1931.662476 1920.682983,1931.023438 1923.717285,1934.367188 
z"/>
<path fill="#8A1EEF" opacity="1.000000" stroke="none" 
	d="
M2036.075806,1941.392212 
	C2036.189941,1937.023438 2035.787109,1932.859131 2040.817627,1932.373901 
	C2043.783203,1932.087769 2046.105591,1937.458252 2044.780518,1942.138184 
	C2044.236328,1944.060425 2042.271606,1945.580444 2040.953125,1947.283447 
	C2039.341797,1945.574585 2037.730591,1943.865845 2036.075806,1941.392212 
z"/>
<path fill="#9959D6" opacity="1.000000" stroke="none" 
	d="
M2040.598877,1839.864258 
	C2042.760254,1835.374512 2045.280640,1835.446167 2048.333252,1838.709106 
	C2046.343872,1842.695068 2043.590942,1841.716919 2040.598877,1839.864258 
z"/>
</svg>