<svg xmlns="http://www.w3.org/2000/svg" xmlns:xlink="http://www.w3.org/1999/xlink" width="250" zoomAndPan="magnify" viewBox="0 0 187.5 187.499992" height="250" preserveAspectRatio="xMidYMid meet" version="1.0"><defs><clipPath id="749f3a4d80"><path d="M 10.925781 10.925781 L 176.675781 10.925781 L 176.675781 176.675781 L 10.925781 176.675781 Z M 10.925781 10.925781 " clip-rule="nonzero"/></clipPath><clipPath id="334af1a6fe"><path d="M 63 66 L 119 66 L 119 124 L 63 124 Z M 63 66 " clip-rule="nonzero"/></clipPath><clipPath id="1c5b3d48f1"><path d="M 138.75 86.355469 L 87.980469 141.558594 L 43.816406 100.945312 L 94.585938 45.742188 Z M 138.75 86.355469 " clip-rule="nonzero"/></clipPath><clipPath id="32533824ea"><path d="M 138.75 86.355469 L 87.980469 141.558594 L 43.816406 100.945312 L 94.585938 45.742188 Z M 138.75 86.355469 " clip-rule="nonzero"/></clipPath></defs><g clip-path="url(#749f3a4d80)"><path fill="#545454" d="M 93.800781 10.925781 C 48.03125 10.925781 10.925781 48.03125 10.925781 93.800781 C 10.925781 139.570312 48.03125 176.675781 93.800781 176.675781 C 139.570312 176.675781 176.675781 139.570312 176.675781 93.800781 C 176.675781 48.03125 139.570312 10.925781 93.800781 10.925781 " fill-opacity="1" fill-rule="nonzero"/></g><g clip-path="url(#334af1a6fe)"><g clip-path="url(#1c5b3d48f1)"><g clip-path="url(#32533824ea)"><path fill="#ffffff" d="M 118.503906 108.371094 L 116.636719 66.085938 L 74.339844 67.753906 L 74.582031 73.179688 L 107.609375 71.875 L 63.925781 119.371094 L 67.9375 123.0625 L 111.621094 75.5625 L 113.082031 108.585938 Z M 118.503906 108.371094 " fill-opacity="1" fill-rule="nonzero"/></g></g></g></svg>