<svg xmlns="http://www.w3.org/2000/svg" xmlns:xlink="http://www.w3.org/1999/xlink" width="100" zoomAndPan="magnify" viewBox="0 0 75 74.999997" height="100" preserveAspectRatio="xMidYMid meet" version="1.0"><defs><g/><clipPath id="d090c2c36d"><path d="M 54 37 L 67.5 37 L 67.5 67.5 L 54 67.5 Z M 54 37 " clip-rule="nonzero"/></clipPath><clipPath id="07fd09a69c"><path d="M 44 7.5 L 67.5 7.5 L 67.5 36 L 44 36 Z M 44 7.5 " clip-rule="nonzero"/></clipPath><clipPath id="bfe3111f04"><path d="M 7.5 16 L 53 16 L 53 67.5 L 7.5 67.5 Z M 7.5 16 " clip-rule="nonzero"/></clipPath></defs><g fill="#ffffff" fill-opacity="1"><g transform="translate(21.228515, 58.388754)"><g><path d="M 17.0625 -25.96875 C 19.550781 -25.96875 21.765625 -25.492188 23.703125 -24.546875 C 25.640625 -23.597656 27.160156 -22.207031 28.265625 -20.375 C 29.378906 -18.539062 29.9375 -16.28125 29.9375 -13.59375 C 29.9375 -10.664062 29.328125 -8.140625 28.109375 -6.015625 C 26.898438 -3.890625 25.09375 -2.257812 22.6875 -1.125 C 20.289062 0 17.304688 0.5625 13.734375 0.5625 C 11.597656 0.5625 9.585938 0.378906 7.703125 0.015625 C 5.828125 -0.347656 4.1875 -0.898438 2.78125 -1.640625 L 2.78125 -9.0625 C 4.1875 -8.320312 5.875 -7.695312 7.84375 -7.1875 C 9.820312 -6.675781 11.679688 -6.421875 13.421875 -6.421875 C 15.128906 -6.421875 16.566406 -6.644531 17.734375 -7.09375 C 18.898438 -7.550781 19.785156 -8.253906 20.390625 -9.203125 C 20.992188 -10.160156 21.296875 -11.382812 21.296875 -12.875 C 21.296875 -14.851562 20.628906 -16.367188 19.296875 -17.421875 C 17.960938 -18.484375 15.914062 -19.015625 13.15625 -19.015625 C 12.09375 -19.015625 10.988281 -18.910156 9.84375 -18.703125 C 8.707031 -18.503906 7.757812 -18.300781 7 -18.09375 L 3.59375 -19.9375 L 5.109375 -40.640625 L 27.15625 -40.640625 L 27.15625 -33.359375 L 12.65625 -33.359375 L 11.90625 -25.375 C 12.53125 -25.507812 13.210938 -25.640625 13.953125 -25.765625 C 14.691406 -25.898438 15.726562 -25.96875 17.0625 -25.96875 Z M 17.0625 -25.96875 "/></g></g></g><g clip-path="url(#d090c2c36d)"><path fill="#d10a38" d="M 66.4375 42.378906 L 66.4375 37.546875 L 64.503906 37.546875 L 64.503906 42.378906 L 62.574219 42.378906 L 62.574219 37.546875 L 60.640625 37.546875 L 60.640625 42.378906 L 58.707031 42.378906 L 58.707031 37.546875 L 56.773438 37.546875 L 56.773438 42.378906 C 56.507812 42.378906 56.28125 42.472656 56.09375 42.664062 C 55.902344 42.851562 55.808594 43.078125 55.808594 43.34375 L 55.808594 47.210938 C 55.808594 47.894531 55.929688 48.558594 56.164062 49.199219 C 56.398438 49.84375 56.738281 50.425781 57.179688 50.949219 C 57.621094 51.46875 58.140625 51.902344 58.734375 52.238281 C 59.332031 52.578125 59.964844 52.804688 60.640625 52.917969 L 60.640625 54.042969 C 60.222656 54.105469 59.8125 54.203125 59.410156 54.339844 C 59.007812 54.476562 58.625 54.652344 58.257812 54.863281 C 57.890625 55.070312 57.542969 55.3125 57.222656 55.589844 C 56.898438 55.863281 56.605469 56.164062 56.339844 56.496094 C 56.074219 56.824219 55.839844 57.175781 55.640625 57.550781 C 55.441406 57.925781 55.277344 58.3125 55.152344 58.71875 C 55.027344 59.121094 54.9375 59.535156 54.890625 59.957031 C 54.839844 60.375 54.832031 60.796875 54.863281 61.222656 C 54.890625 61.644531 54.960938 62.058594 55.070312 62.46875 C 55.179688 62.878906 55.324219 63.273438 55.507812 63.65625 C 55.691406 64.039062 55.90625 64.402344 56.15625 64.742188 C 56.410156 65.082031 56.6875 65.398438 57 65.6875 C 57.308594 65.976562 57.644531 66.234375 58 66.457031 C 58.359375 66.683594 58.738281 66.875 59.132812 67.03125 C 59.523438 67.183594 59.929688 67.300781 60.347656 67.382812 C 60.761719 67.460938 61.183594 67.5 61.605469 67.5 L 61.605469 65.566406 C 61.289062 65.566406 60.976562 65.535156 60.664062 65.476562 C 60.351562 65.414062 60.050781 65.320312 59.757812 65.199219 C 59.464844 65.078125 59.1875 64.929688 58.921875 64.753906 C 58.660156 64.578125 58.414062 64.378906 58.191406 64.152344 C 57.964844 63.929688 57.765625 63.683594 57.589844 63.421875 C 57.414062 63.15625 57.265625 62.878906 57.144531 62.585938 C 57.023438 62.292969 56.929688 61.992188 56.867188 61.679688 C 56.804688 61.367188 56.773438 61.054688 56.773438 60.738281 C 56.773438 60.417969 56.804688 60.105469 56.867188 59.792969 C 56.929688 59.484375 57.023438 59.179688 57.144531 58.886719 C 57.265625 58.59375 57.414062 58.316406 57.589844 58.054688 C 57.765625 57.789062 57.964844 57.546875 58.191406 57.320312 C 58.414062 57.097656 58.660156 56.894531 58.921875 56.71875 C 59.1875 56.542969 59.464844 56.394531 59.757812 56.273438 C 60.050781 56.152344 60.351562 56.058594 60.664062 56 C 60.976562 55.9375 61.289062 55.90625 61.605469 55.90625 C 61.875 55.90625 62.101562 55.8125 62.289062 55.621094 C 62.476562 55.433594 62.574219 55.207031 62.574219 54.941406 L 62.574219 52.917969 C 63.246094 52.804688 63.882812 52.578125 64.476562 52.238281 C 65.070312 51.898438 65.589844 51.46875 66.03125 50.949219 C 66.472656 50.425781 66.8125 49.84375 67.046875 49.199219 C 67.285156 48.558594 67.402344 47.894531 67.402344 47.210938 L 67.402344 43.34375 C 67.402344 43.078125 67.308594 42.851562 67.121094 42.664062 C 66.933594 42.472656 66.703125 42.378906 66.4375 42.378906 Z M 65.472656 47.210938 C 65.472656 47.722656 65.371094 48.214844 65.175781 48.6875 C 64.980469 49.164062 64.703125 49.582031 64.339844 49.941406 C 63.976562 50.304688 63.558594 50.585938 63.085938 50.78125 C 62.613281 50.976562 62.117188 51.074219 61.605469 51.074219 C 61.09375 51.074219 60.601562 50.976562 60.128906 50.78125 C 59.652344 50.585938 59.234375 50.304688 58.875 49.941406 C 58.511719 49.582031 58.230469 49.164062 58.035156 48.6875 C 57.839844 48.214844 57.742188 47.722656 57.742188 47.210938 L 57.742188 44.3125 L 65.472656 44.3125 Z M 65.472656 47.210938 " fill-opacity="1" fill-rule="nonzero"/></g><g clip-path="url(#07fd09a69c)"><path fill="#d10a38" d="M 44.71875 19.074219 L 54.558594 24.441406 L 50.097656 34.25 C 50.007812 34.453125 49.988281 34.664062 50.042969 34.882812 C 50.09375 35.097656 50.210938 35.277344 50.386719 35.414062 C 50.566406 35.550781 50.765625 35.617188 50.988281 35.613281 C 51.214844 35.613281 51.414062 35.539062 51.585938 35.398438 L 67.046875 22.839844 C 67.335938 22.601562 67.449219 22.300781 67.390625 21.929688 C 67.328125 21.558594 67.121094 21.3125 66.769531 21.183594 L 56.996094 17.628906 L 59.632812 8.835938 C 59.691406 8.636719 59.6875 8.441406 59.621094 8.246094 C 59.554688 8.050781 59.4375 7.894531 59.269531 7.773438 C 59.101562 7.652344 58.914062 7.59375 58.707031 7.59375 C 58.5 7.59375 58.3125 7.652344 58.144531 7.773438 L 44.617188 17.433594 C 44.484375 17.53125 44.378906 17.65625 44.308594 17.804688 C 44.238281 17.953125 44.207031 18.113281 44.214844 18.277344 C 44.226562 18.445312 44.273438 18.597656 44.363281 18.738281 C 44.453125 18.878906 44.570312 18.988281 44.714844 19.070312 Z M 56.96875 10.992188 L 54.882812 17.949219 C 54.808594 18.191406 54.828125 18.429688 54.945312 18.660156 C 55.058594 18.886719 55.234375 19.046875 55.476562 19.132812 L 64.503906 22.414062 L 53.558594 31.308594 L 56.6875 24.421875 C 56.792969 24.191406 56.804688 23.957031 56.726562 23.714844 C 56.644531 23.476562 56.496094 23.292969 56.273438 23.171875 L 46.996094 18.113281 Z M 56.96875 10.992188 " fill-opacity="1" fill-rule="nonzero"/></g><g clip-path="url(#bfe3111f04)"><path fill="#d10a38" d="M 44.410156 45.300781 L 36.484375 43.539062 L 36.484375 40.148438 C 37.28125 39.4375 37.921875 38.609375 38.414062 37.660156 C 38.902344 36.714844 39.207031 35.710938 39.324219 34.648438 L 39.867188 34.648438 C 40.25 34.652344 40.625 34.585938 40.984375 34.460938 C 41.347656 34.335938 41.679688 34.152344 41.980469 33.914062 C 42.277344 33.675781 42.53125 33.390625 42.734375 33.066406 C 42.9375 32.742188 43.082031 32.390625 43.164062 32.019531 C 43.25 31.644531 43.269531 31.265625 43.226562 30.886719 C 43.179688 30.503906 43.074219 30.140625 42.90625 29.796875 C 42.738281 29.453125 42.519531 29.144531 42.246094 28.875 C 41.972656 28.605469 41.664062 28.390625 41.316406 28.226562 L 41.316406 25.953125 C 41.316406 25.6875 41.222656 25.460938 41.035156 25.269531 C 40.84375 25.082031 40.617188 24.988281 40.351562 24.988281 L 40.285156 24.988281 C 40.089844 23.335938 39.414062 21.914062 38.257812 20.722656 L 39.105469 19.875 L 37.738281 18.507812 L 36.742188 19.5 C 35.695312 18.867188 34.566406 18.472656 33.351562 18.320312 L 33.558594 17.496094 C 33.59375 17.351562 33.597656 17.207031 33.566406 17.0625 C 33.535156 16.914062 33.476562 16.78125 33.382812 16.664062 C 33.292969 16.546875 33.179688 16.457031 33.046875 16.390625 C 32.910156 16.324219 32.769531 16.292969 32.621094 16.292969 L 28.757812 16.292969 C 28.605469 16.292969 28.464844 16.324219 28.332031 16.390625 C 28.199219 16.457031 28.085938 16.546875 27.996094 16.664062 C 27.902344 16.78125 27.839844 16.914062 27.8125 17.058594 C 27.78125 17.203125 27.78125 17.347656 27.820312 17.492188 L 28.011719 18.265625 C 26.773438 18.386719 25.632812 18.78125 24.589844 19.457031 L 23.644531 18.511719 L 22.277344 19.878906 L 23.101562 20.703125 C 21.972656 21.914062 21.300781 23.34375 21.09375 24.988281 L 21.027344 24.988281 C 20.761719 24.988281 20.53125 25.082031 20.34375 25.269531 C 20.15625 25.460938 20.058594 25.6875 20.058594 25.953125 L 20.058594 28.226562 C 19.714844 28.390625 19.402344 28.605469 19.132812 28.875 C 18.859375 29.144531 18.636719 29.453125 18.46875 29.796875 C 18.300781 30.140625 18.195312 30.503906 18.152344 30.886719 C 18.105469 31.265625 18.125 31.644531 18.210938 32.019531 C 18.296875 32.390625 18.441406 32.742188 18.644531 33.066406 C 18.847656 33.390625 19.097656 33.675781 19.398438 33.914062 C 19.699219 34.152344 20.027344 34.335938 20.390625 34.460938 C 20.753906 34.585938 21.125 34.652344 21.507812 34.648438 L 22.050781 34.648438 C 22.167969 35.710938 22.472656 36.710938 22.964844 37.660156 C 23.453125 38.605469 24.097656 39.433594 24.890625 40.144531 L 24.890625 43.539062 L 16.945312 45.308594 C 16.285156 45.46875 15.660156 45.722656 15.074219 46.066406 C 14.484375 46.410156 13.957031 46.828125 13.492188 47.324219 C 13.027344 47.824219 12.644531 48.375 12.339844 48.984375 C 12.035156 49.59375 11.824219 50.234375 11.707031 50.902344 L 7.535156 66.28125 C 7.496094 66.425781 7.488281 66.574219 7.519531 66.71875 C 7.546875 66.867188 7.605469 67 7.699219 67.121094 C 7.789062 67.238281 7.902344 67.332031 8.039062 67.398438 C 8.171875 67.464844 8.316406 67.5 8.464844 67.5 L 51.945312 67.5 C 52.089844 67.5 52.226562 67.46875 52.359375 67.40625 C 52.488281 67.34375 52.601562 67.257812 52.691406 67.144531 C 52.785156 67.03125 52.847656 66.90625 52.882812 66.765625 C 52.917969 66.625 52.917969 66.484375 52.890625 66.339844 L 49.691406 50.996094 C 49.578125 50.316406 49.367188 49.664062 49.0625 49.046875 C 48.757812 48.425781 48.371094 47.863281 47.902344 47.355469 C 47.433594 46.851562 46.902344 46.421875 46.304688 46.074219 C 45.710938 45.722656 45.078125 45.464844 44.410156 45.300781 Z M 38.417969 65.566406 L 22.957031 65.566406 L 22.957031 62.355469 L 27.007812 60.738281 L 34.367188 60.738281 L 38.417969 62.355469 Z M 39.742188 60.804688 L 34.914062 58.871094 C 34.796875 58.828125 34.675781 58.804688 34.554688 58.804688 L 26.824219 58.804688 C 26.699219 58.804688 26.578125 58.828125 26.464844 58.871094 L 21.632812 60.804688 C 21.449219 60.878906 21.304688 60.996094 21.191406 61.160156 C 21.082031 61.324219 21.027344 61.503906 21.027344 61.703125 L 21.027344 65.566406 L 19.09375 65.566406 L 19.09375 46.808594 L 21.027344 46.378906 L 21.027344 55.90625 C 21.027344 56.171875 21.121094 56.398438 21.308594 56.589844 C 21.5 56.777344 21.726562 56.871094 21.992188 56.871094 L 39.382812 56.871094 C 39.652344 56.871094 39.878906 56.777344 40.066406 56.589844 C 40.257812 56.398438 40.351562 56.171875 40.351562 55.90625 L 40.351562 46.378906 L 42.28125 46.808594 L 42.28125 65.566406 L 40.351562 65.566406 L 40.351562 61.703125 C 40.351562 61.503906 40.296875 61.324219 40.183594 61.160156 C 40.074219 60.996094 39.925781 60.878906 39.742188 60.804688 Z M 30.6875 49.878906 C 31.335938 49.878906 31.964844 49.773438 32.574219 49.5625 C 33.1875 49.351562 33.746094 49.046875 34.257812 48.648438 C 34.765625 48.246094 35.195312 47.777344 35.546875 47.234375 C 35.898438 46.691406 36.152344 46.105469 36.308594 45.476562 L 38.417969 45.945312 L 38.417969 54.941406 L 22.957031 54.941406 L 22.957031 45.945312 L 25.066406 45.476562 C 25.222656 46.105469 25.476562 46.691406 25.828125 47.234375 C 26.179688 47.777344 26.609375 48.246094 27.121094 48.648438 C 27.628906 49.046875 28.1875 49.351562 28.800781 49.5625 C 29.414062 49.773438 30.042969 49.878906 30.6875 49.878906 Z M 21.992188 27.886719 L 21.992188 26.921875 L 39.382812 26.921875 L 39.382812 27.886719 Z M 39.867188 32.71875 L 39.382812 32.71875 L 39.382812 29.820312 L 39.867188 29.820312 C 40.058594 29.820312 40.246094 29.855469 40.421875 29.929688 C 40.597656 30.003906 40.757812 30.105469 40.890625 30.242188 C 41.027344 30.378906 41.132812 30.535156 41.207031 30.714844 C 41.28125 30.890625 41.316406 31.074219 41.316406 31.269531 C 41.316406 31.460938 41.28125 31.644531 41.207031 31.824219 C 41.132812 32 41.027344 32.15625 40.890625 32.292969 C 40.757812 32.429688 40.597656 32.535156 40.421875 32.605469 C 40.246094 32.679688 40.058594 32.71875 39.867188 32.71875 Z M 31.382812 18.226562 L 30.898438 20.15625 L 30.476562 20.15625 L 29.992188 18.226562 Z M 24.46875 22.066406 L 25.175781 22.773438 L 26.539062 21.40625 L 25.992188 20.859375 C 26.769531 20.433594 27.601562 20.207031 28.488281 20.171875 L 28.785156 21.359375 C 28.839844 21.574219 28.953125 21.75 29.128906 21.886719 C 29.300781 22.019531 29.5 22.089844 29.722656 22.089844 L 31.65625 22.089844 C 31.875 22.089844 32.074219 22.019531 32.25 21.882812 C 32.425781 21.746094 32.539062 21.570312 32.589844 21.355469 L 32.882812 20.199219 C 33.738281 20.285156 34.550781 20.527344 35.316406 20.921875 L 34.832031 21.40625 L 36.199219 22.773438 L 36.875 22.09375 C 37.65625 22.910156 38.140625 23.875 38.328125 24.988281 L 23.046875 24.988281 C 23.234375 23.875 23.707031 22.898438 24.46875 22.066406 Z M 20.058594 31.269531 C 20.058594 31.074219 20.097656 30.890625 20.171875 30.714844 C 20.246094 30.535156 20.347656 30.378906 20.484375 30.242188 C 20.621094 30.109375 20.777344 30.003906 20.953125 29.929688 C 21.132812 29.855469 21.316406 29.820312 21.507812 29.820312 L 21.992188 29.820312 L 21.992188 32.71875 L 21.507812 32.71875 C 21.316406 32.71875 21.132812 32.679688 20.953125 32.605469 C 20.777344 32.535156 20.621094 32.429688 20.484375 32.292969 C 20.347656 32.15625 20.246094 32 20.171875 31.824219 C 20.097656 31.644531 20.058594 31.460938 20.058594 31.269531 Z M 23.925781 33.683594 L 23.925781 29.820312 L 37.453125 29.820312 L 37.453125 33.683594 C 37.453125 34.128906 37.410156 34.566406 37.320312 35.003906 C 37.234375 35.4375 37.105469 35.863281 36.9375 36.273438 C 36.765625 36.683594 36.558594 37.070312 36.3125 37.441406 C 36.066406 37.808594 35.785156 38.152344 35.472656 38.464844 C 35.15625 38.78125 34.816406 39.058594 34.445312 39.308594 C 34.078125 39.554688 33.6875 39.761719 33.277344 39.933594 C 32.867188 40.101562 32.445312 40.230469 32.007812 40.316406 C 31.574219 40.402344 31.132812 40.445312 30.6875 40.445312 C 30.246094 40.445312 29.804688 40.402344 29.367188 40.316406 C 28.933594 40.230469 28.511719 40.101562 28.101562 39.933594 C 27.691406 39.761719 27.300781 39.554688 26.929688 39.308594 C 26.5625 39.058594 26.21875 38.78125 25.90625 38.464844 C 25.59375 38.152344 25.3125 37.808594 25.066406 37.441406 C 24.816406 37.070312 24.609375 36.683594 24.441406 36.273438 C 24.269531 35.863281 24.140625 35.4375 24.054688 35.003906 C 23.96875 34.566406 23.925781 34.128906 23.925781 33.683594 Z M 30.6875 42.378906 C 32.050781 42.378906 33.335938 42.070312 34.554688 41.460938 L 34.554688 44.082031 C 34.554688 44.597656 34.453125 45.089844 34.257812 45.5625 C 34.0625 46.035156 33.785156 46.453125 33.421875 46.816406 C 33.058594 47.179688 32.640625 47.457031 32.167969 47.652344 C 31.695312 47.851562 31.199219 47.949219 30.6875 47.949219 C 30.175781 47.949219 29.683594 47.851562 29.210938 47.652344 C 28.734375 47.457031 28.316406 47.179688 27.957031 46.816406 C 27.59375 46.453125 27.3125 46.035156 27.117188 45.5625 C 26.921875 45.089844 26.824219 44.597656 26.824219 44.082031 L 26.824219 41.460938 C 28.039062 42.070312 29.328125 42.378906 30.6875 42.378906 Z M 13.59375 51.316406 C 13.671875 50.84375 13.8125 50.394531 14.015625 49.960938 C 14.222656 49.53125 14.484375 49.136719 14.796875 48.777344 C 15.113281 48.421875 15.472656 48.113281 15.875 47.855469 C 16.273438 47.597656 16.703125 47.398438 17.160156 47.261719 L 17.160156 65.566406 L 9.730469 65.566406 Z M 44.214844 65.566406 L 44.214844 47.261719 C 44.675781 47.402344 45.105469 47.601562 45.507812 47.863281 C 45.910156 48.125 46.273438 48.433594 46.585938 48.796875 C 46.902344 49.160156 47.164062 49.554688 47.367188 49.992188 C 47.570312 50.425781 47.710938 50.878906 47.789062 51.351562 L 50.757812 65.566406 Z M 44.214844 65.566406 " fill-opacity="1" fill-rule="nonzero"/></g></svg>