<svg xmlns="http://www.w3.org/2000/svg" xmlns:xlink="http://www.w3.org/1999/xlink" width="100" zoomAndPan="magnify" viewBox="0 0 75 74.999997" height="100" preserveAspectRatio="xMidYMid meet" version="1.0"><defs><clipPath id="a2782d48d7"><path d="M 16.363281 7.5 L 58.363281 7.5 L 58.363281 67.5 L 16.363281 67.5 Z M 16.363281 7.5 " clip-rule="nonzero"></path></clipPath></defs><g clip-path="url(#a2782d48d7)"><path fill="#d10a38" d="M 37.363281 41.589844 C 39.621094 41.589844 41.425781 43.40625 41.425781 45.679688 C 41.425781 46.980469 40.890625 47.914062 39.902344 48.707031 C 39.578125 48.96875 39.394531 49.363281 39.394531 49.773438 L 39.394531 56.589844 L 35.332031 56.589844 L 35.332031 49.773438 C 35.332031 49.363281 35.144531 48.96875 34.820312 48.707031 C 33.832031 47.914062 33.296875 46.980469 33.296875 45.679688 C 33.296875 43.40625 35.101562 41.589844 37.363281 41.589844 Z M 37.363281 38.863281 C 33.636719 38.863281 30.589844 41.929688 30.589844 45.679688 C 30.589844 47.53125 31.449219 49.046875 32.621094 50.21875 L 32.621094 57.953125 C 32.621094 58.703125 33.230469 59.316406 33.976562 59.316406 L 40.75 59.316406 C 41.5 59.316406 42.105469 58.703125 42.105469 57.953125 L 42.105469 50.21875 C 43.273438 49.046875 44.136719 47.53125 44.136719 45.679688 C 44.136719 41.929688 41.089844 38.863281 37.363281 38.863281 Z M 21.78125 33.410156 L 52.941406 33.410156 C 54.46875 33.410156 55.652344 34.601562 55.652344 36.136719 L 55.652344 62.042969 C 55.652344 63.578125 54.46875 64.769531 52.941406 64.769531 L 21.78125 64.769531 C 20.257812 64.769531 19.070312 63.578125 19.070312 62.042969 L 19.070312 36.136719 C 19.070312 34.601562 20.257812 33.410156 21.78125 33.410156 Z M 37.363281 7.503906 C 29.519531 7.503906 23.136719 13.792969 23.136719 21.585938 C 23.132812 21.945312 23.273438 22.296875 23.527344 22.558594 C 23.78125 22.820312 24.132812 22.96875 24.492188 22.96875 C 24.855469 22.96875 25.199219 22.820312 25.453125 22.558594 C 25.707031 22.296875 25.851562 21.945312 25.847656 21.585938 C 25.847656 15.285156 30.949219 10.230469 37.363281 10.230469 C 43.777344 10.230469 48.878906 15.285156 48.878906 21.585938 L 48.878906 30.683594 L 21.78125 30.683594 C 18.800781 30.683594 16.363281 33.136719 16.363281 36.136719 L 16.363281 62.042969 C 16.363281 65.042969 18.800781 67.496094 21.78125 67.496094 L 52.941406 67.496094 C 55.921875 67.496094 58.363281 65.042969 58.363281 62.042969 L 58.363281 36.136719 C 58.363281 33.136719 55.921875 30.683594 52.941406 30.683594 L 51.589844 30.683594 L 51.589844 21.585938 C 51.589844 13.792969 45.207031 7.503906 37.363281 7.503906 " fill-opacity="1" fill-rule="nonzero"></path></g></svg>