<svg xmlns="http://www.w3.org/2000/svg" xmlns:xlink="http://www.w3.org/1999/xlink" width="100" zoomAndPan="magnify" viewBox="0 0 75 74.999997" height="100" preserveAspectRatio="xMidYMid meet" version="1.0"><defs><clipPath id="eb74da85a5"><path d="M 42 60 L 65 60 L 65 67.5 L 42 67.5 Z M 42 60 " clip-rule="nonzero"></path></clipPath><clipPath id="9e7d5d24e8"><path d="M 23 7.5 L 57 7.5 L 57 41 L 23 41 Z M 23 7.5 " clip-rule="nonzero"></path></clipPath><clipPath id="e7da0f5b01"><path d="M 9 7.5 L 22 7.5 L 22 41 L 9 41 Z M 9 7.5 " clip-rule="nonzero"></path></clipPath><clipPath id="449b328599"><path d="M 23 42 L 46 42 L 46 67.5 L 23 67.5 Z M 23 42 " clip-rule="nonzero"></path></clipPath><clipPath id="e9bbd6c9d9"><path d="M 9 42 L 22 42 L 22 67.5 L 9 67.5 Z M 9 42 " clip-rule="nonzero"></path></clipPath><clipPath id="4a70021b80"><path d="M 14 65 L 54 65 L 54 67.5 L 14 67.5 Z M 14 65 " clip-rule="nonzero"></path></clipPath></defs><g clip-path="url(#eb74da85a5)"><path fill="#d10a38" d="M 42.53125 64.941406 L 42.53125 63.1875 C 42.53125 62.847656 42.59375 62.519531 42.726562 62.207031 C 42.855469 61.890625 43.039062 61.613281 43.28125 61.375 C 43.519531 61.132812 43.796875 60.949219 44.109375 60.816406 C 44.421875 60.6875 44.746094 60.621094 45.085938 60.621094 L 61.523438 60.621094 C 61.863281 60.621094 62.1875 60.6875 62.5 60.816406 C 62.8125 60.949219 63.089844 61.132812 63.328125 61.375 C 63.570312 61.613281 63.753906 61.890625 63.882812 62.207031 C 64.015625 62.519531 64.078125 62.847656 64.078125 63.1875 L 64.078125 64.941406 C 64.078125 65.28125 64.015625 65.609375 63.882812 65.921875 C 63.753906 66.238281 63.570312 66.515625 63.328125 66.753906 C 63.089844 66.996094 62.8125 67.183594 62.5 67.3125 C 62.1875 67.441406 61.863281 67.507812 61.523438 67.507812 L 45.085938 67.507812 C 44.746094 67.507812 44.421875 67.441406 44.109375 67.3125 C 43.796875 67.183594 43.519531 66.996094 43.28125 66.753906 C 43.039062 66.515625 42.855469 66.238281 42.726562 65.921875 C 42.59375 65.609375 42.53125 65.28125 42.53125 64.941406 Z M 45.085938 62.902344 C 45.011719 62.902344 44.945312 62.929688 44.894531 62.984375 C 44.839844 63.039062 44.8125 63.101562 44.8125 63.175781 L 44.8125 64.929688 C 44.8125 65.007812 44.839844 65.070312 44.894531 65.125 C 44.945312 65.179688 45.011719 65.203125 45.085938 65.203125 L 61.523438 65.203125 C 61.601562 65.207031 61.667969 65.183594 61.726562 65.128906 C 61.78125 65.074219 61.808594 65.007812 61.808594 64.929688 L 61.808594 63.175781 C 61.808594 63.097656 61.78125 63.03125 61.726562 62.980469 C 61.667969 62.925781 61.601562 62.898438 61.523438 62.902344 Z M 45.085938 62.902344 " fill-opacity="1" fill-rule="nonzero"></path></g><path fill="#d10a38" d="M 55.53125 38.621094 C 55.679688 38.621094 55.824219 38.59375 55.964844 38.535156 C 56.101562 38.476562 56.226562 38.394531 56.332031 38.289062 C 56.4375 38.183594 56.519531 38.058594 56.578125 37.917969 C 56.636719 37.78125 56.667969 37.632812 56.667969 37.484375 L 56.667969 14.367188 C 56.667969 14.214844 56.636719 14.070312 56.578125 13.929688 C 56.523438 13.789062 56.441406 13.667969 56.332031 13.5625 C 56.226562 13.453125 56.105469 13.371094 55.964844 13.3125 C 55.824219 13.253906 55.679688 13.226562 55.53125 13.226562 C 55.378906 13.226562 55.234375 13.253906 55.09375 13.3125 C 54.957031 13.371094 54.832031 13.453125 54.726562 13.5625 C 54.621094 13.667969 54.539062 13.789062 54.480469 13.929688 C 54.421875 14.070312 54.394531 14.214844 54.394531 14.367188 L 54.394531 37.484375 C 54.394531 37.632812 54.421875 37.78125 54.480469 37.917969 C 54.539062 38.058594 54.621094 38.183594 54.726562 38.289062 C 54.832031 38.394531 54.957031 38.476562 55.097656 38.535156 C 55.234375 38.59375 55.378906 38.621094 55.53125 38.621094 Z M 55.53125 38.621094 " fill-opacity="1" fill-rule="nonzero"></path><path fill="#d10a38" d="M 43.898438 61.761719 C 43.890625 60.292969 43.625 58.867188 43.105469 57.492188 C 41.722656 53.75 42.101562 50.652344 42.667969 48.699219 C 43.144531 47.09375 43.394531 45.453125 43.40625 43.777344 L 43.40625 33.625 C 43.40625 33.109375 43.507812 32.609375 43.703125 32.132812 C 43.902344 31.652344 44.183594 31.230469 44.546875 30.863281 C 44.910156 30.5 45.332031 30.21875 45.808594 30.019531 C 46.285156 29.820312 46.78125 29.722656 47.296875 29.722656 C 47.8125 29.722656 48.308594 29.820312 48.785156 30.019531 C 49.261719 30.21875 49.683594 30.5 50.046875 30.863281 C 50.410156 31.230469 50.691406 31.652344 50.890625 32.132812 C 51.085938 32.609375 51.1875 33.109375 51.1875 33.625 L 51.1875 41.066406 C 51.175781 41.285156 51.210938 41.496094 51.289062 41.703125 C 51.367188 41.90625 51.480469 42.089844 51.632812 42.246094 C 51.78125 42.40625 51.960938 42.527344 52.160156 42.613281 C 52.359375 42.699219 52.570312 42.742188 52.789062 42.742188 C 53.007812 42.742188 53.21875 42.699219 53.417969 42.613281 C 53.621094 42.527344 53.796875 42.40625 53.949219 42.246094 C 54.097656 42.089844 54.214844 41.90625 54.289062 41.703125 C 54.367188 41.496094 54.402344 41.285156 54.394531 41.066406 L 54.394531 28.59375 C 54.394531 28.351562 54.464844 28.132812 54.601562 27.9375 C 54.742188 27.738281 54.925781 27.601562 55.152344 27.519531 C 55.378906 27.441406 55.605469 27.433594 55.839844 27.496094 C 56.070312 27.5625 56.261719 27.691406 56.414062 27.878906 L 57.996094 29.84375 C 59.410156 31.605469 60.605469 33.507812 61.578125 35.546875 C 62.554688 37.589844 63.28125 39.714844 63.765625 41.925781 C 64.246094 44.136719 64.46875 46.371094 64.4375 48.632812 C 64.402344 50.898438 64.109375 53.125 63.558594 55.320312 L 63.066406 57.273438 C 62.820312 58.234375 62.699219 59.214844 62.699219 60.207031 L 62.699219 61.765625 C 62.699219 61.917969 62.671875 62.0625 62.613281 62.203125 C 62.554688 62.339844 62.472656 62.464844 62.367188 62.570312 C 62.261719 62.679688 62.136719 62.761719 62 62.820312 C 61.859375 62.878906 61.714844 62.90625 61.5625 62.90625 L 45.03125 62.90625 C 44.882812 62.90625 44.738281 62.875 44.597656 62.820312 C 44.457031 62.761719 44.335938 62.675781 44.230469 62.570312 C 44.121094 62.464844 44.042969 62.339844 43.984375 62.199219 C 43.925781 62.058594 43.898438 61.914062 43.898438 61.761719 Z M 60.429688 60.207031 C 60.429688 59.023438 60.574219 57.855469 60.867188 56.710938 L 61.363281 54.753906 C 61.855469 52.789062 62.121094 50.796875 62.167969 48.769531 C 62.210938 46.742188 62.03125 44.738281 61.625 42.753906 C 61.21875 40.769531 60.597656 38.855469 59.757812 37.011719 C 58.921875 35.167969 57.894531 33.4375 56.667969 31.828125 L 56.667969 41.066406 C 56.667969 41.582031 56.570312 42.078125 56.375 42.554688 C 56.175781 43.03125 55.898438 43.453125 55.535156 43.816406 C 55.171875 44.179688 54.75 44.460938 54.277344 44.660156 C 53.800781 44.855469 53.308594 44.957031 52.792969 44.957031 C 52.28125 44.957031 51.785156 44.855469 51.3125 44.660156 C 50.835938 44.460938 50.417969 44.179688 50.054688 43.816406 C 49.691406 43.453125 49.410156 43.03125 49.214844 42.554688 C 49.015625 42.078125 48.917969 41.582031 48.917969 41.066406 L 48.917969 33.625 C 48.910156 33.417969 48.863281 33.214844 48.777344 33.023438 C 48.691406 32.832031 48.574219 32.664062 48.421875 32.519531 C 48.269531 32.375 48.097656 32.261719 47.90625 32.183594 C 47.710938 32.105469 47.511719 32.066406 47.300781 32.066406 C 47.09375 32.066406 46.890625 32.105469 46.695312 32.183594 C 46.503906 32.261719 46.332031 32.375 46.179688 32.519531 C 46.027344 32.664062 45.910156 32.832031 45.824219 33.023438 C 45.738281 33.214844 45.691406 33.417969 45.683594 33.625 L 45.683594 43.769531 C 45.667969 45.667969 45.390625 47.523438 44.847656 49.339844 C 44.378906 50.953125 44.070312 53.542969 45.238281 56.695312 C 45.710938 57.964844 46.007812 59.273438 46.121094 60.621094 L 60.429688 60.621094 Z M 60.429688 60.207031 " fill-opacity="1" fill-rule="nonzero"></path><g clip-path="url(#9e7d5d24e8)"><path fill="#d10a38" d="M 23.800781 39.382812 L 23.800781 8.667969 C 23.800781 8.515625 23.828125 8.371094 23.886719 8.234375 C 23.945312 8.09375 24.027344 7.96875 24.132812 7.863281 C 24.238281 7.753906 24.359375 7.671875 24.5 7.613281 C 24.636719 7.558594 24.78125 7.527344 24.933594 7.527344 L 55.53125 7.527344 C 55.679688 7.527344 55.824219 7.554688 55.964844 7.613281 C 56.105469 7.671875 56.226562 7.753906 56.332031 7.863281 C 56.441406 7.96875 56.523438 8.09375 56.578125 8.230469 C 56.636719 8.371094 56.667969 8.515625 56.667969 8.667969 L 56.667969 39.382812 C 56.667969 39.535156 56.636719 39.679688 56.578125 39.820312 C 56.523438 39.957031 56.441406 40.082031 56.332031 40.1875 C 56.226562 40.296875 56.105469 40.378906 55.964844 40.4375 C 55.824219 40.496094 55.679688 40.523438 55.53125 40.523438 L 50.050781 40.523438 C 49.898438 40.523438 49.753906 40.492188 49.617188 40.4375 C 49.476562 40.378906 49.355469 40.296875 49.246094 40.1875 C 49.140625 40.082031 49.058594 39.957031 49 39.816406 C 48.945312 39.679688 48.914062 39.535156 48.914062 39.382812 L 48.914062 33.636719 C 48.90625 33.425781 48.859375 33.226562 48.773438 33.035156 C 48.6875 32.84375 48.570312 32.675781 48.417969 32.53125 C 48.269531 32.386719 48.097656 32.273438 47.902344 32.195312 C 47.707031 32.117188 47.507812 32.078125 47.296875 32.078125 C 47.089844 32.078125 46.886719 32.117188 46.695312 32.195312 C 46.5 32.273438 46.328125 32.386719 46.175781 32.53125 C 46.027344 32.675781 45.90625 32.84375 45.824219 33.035156 C 45.738281 33.226562 45.6875 33.425781 45.679688 33.636719 L 45.679688 39.382812 C 45.679688 39.535156 45.652344 39.679688 45.59375 39.820312 C 45.535156 39.957031 45.453125 40.082031 45.347656 40.1875 C 45.242188 40.296875 45.117188 40.378906 44.980469 40.4375 C 44.839844 40.496094 44.695312 40.523438 44.542969 40.523438 L 24.921875 40.523438 C 24.773438 40.519531 24.628906 40.492188 24.492188 40.433594 C 24.355469 40.371094 24.234375 40.289062 24.128906 40.183594 C 24.023438 40.078125 23.941406 39.953125 23.886719 39.816406 C 23.828125 39.675781 23.800781 39.53125 23.800781 39.382812 Z M 43.410156 33.636719 C 43.410156 33.117188 43.507812 32.621094 43.707031 32.144531 C 43.902344 31.664062 44.183594 31.242188 44.550781 30.875 C 44.914062 30.511719 45.335938 30.226562 45.8125 30.03125 C 46.289062 29.832031 46.785156 29.734375 47.300781 29.734375 C 47.816406 29.734375 48.3125 29.832031 48.789062 30.03125 C 49.265625 30.226562 49.683594 30.511719 50.050781 30.875 C 50.414062 31.242188 50.695312 31.664062 50.890625 32.144531 C 51.089844 32.621094 51.1875 33.117188 51.1875 33.636719 L 51.1875 38.253906 L 54.394531 38.253906 L 54.394531 9.804688 L 26.070312 9.804688 L 26.070312 38.246094 L 43.40625 38.246094 Z M 43.410156 33.636719 " fill-opacity="1" fill-rule="nonzero"></path></g><g clip-path="url(#e7da0f5b01)"><path fill="#d10a38" d="M 10.222656 40.523438 L 20.328125 40.523438 C 20.480469 40.523438 20.625 40.492188 20.765625 40.4375 C 20.902344 40.378906 21.023438 40.296875 21.132812 40.1875 C 21.238281 40.082031 21.320312 39.957031 21.378906 39.816406 C 21.433594 39.679688 21.464844 39.535156 21.464844 39.382812 L 21.464844 8.667969 C 21.464844 8.515625 21.433594 8.371094 21.378906 8.230469 C 21.320312 8.09375 21.238281 7.96875 21.132812 7.863281 C 21.027344 7.753906 20.902344 7.671875 20.765625 7.613281 C 20.625 7.554688 20.480469 7.527344 20.328125 7.527344 L 10.222656 7.527344 C 10.066406 7.519531 9.914062 7.542969 9.769531 7.597656 C 9.625 7.652344 9.496094 7.734375 9.382812 7.839844 C 9.269531 7.949219 9.183594 8.074219 9.121094 8.21875 C 9.058594 8.359375 9.027344 8.511719 9.027344 8.667969 C 9.027344 8.824219 9.058594 8.972656 9.121094 9.117188 C 9.183594 9.261719 9.269531 9.386719 9.382812 9.492188 C 9.496094 9.601562 9.625 9.683594 9.769531 9.734375 C 9.914062 9.789062 10.066406 9.8125 10.222656 9.804688 L 19.191406 9.804688 L 19.191406 38.246094 L 10.222656 38.246094 C 10.066406 38.238281 9.914062 38.261719 9.769531 38.3125 C 9.625 38.367188 9.496094 38.449219 9.382812 38.558594 C 9.269531 38.664062 9.183594 38.789062 9.121094 38.933594 C 9.058594 39.078125 9.027344 39.226562 9.027344 39.382812 C 9.027344 39.539062 9.058594 39.691406 9.121094 39.832031 C 9.183594 39.976562 9.269531 40.101562 9.382812 40.210938 C 9.496094 40.316406 9.625 40.398438 9.769531 40.453125 C 9.914062 40.507812 10.066406 40.53125 10.222656 40.523438 Z M 10.222656 40.523438 " fill-opacity="1" fill-rule="nonzero"></path></g><g clip-path="url(#449b328599)"><path fill="#d10a38" d="M 24.933594 67.507812 C 25.082031 67.507812 25.226562 67.480469 25.367188 67.421875 C 25.507812 67.363281 25.628906 67.28125 25.738281 67.175781 C 25.84375 67.066406 25.925781 66.945312 25.984375 66.804688 C 26.039062 66.664062 26.070312 66.519531 26.070312 66.367188 L 26.070312 44.765625 L 44.542969 44.765625 C 44.699219 44.773438 44.851562 44.75 44.996094 44.695312 C 45.140625 44.640625 45.269531 44.5625 45.382812 44.453125 C 45.496094 44.347656 45.582031 44.21875 45.644531 44.078125 C 45.707031 43.933594 45.738281 43.785156 45.738281 43.628906 C 45.738281 43.472656 45.707031 43.320312 45.644531 43.179688 C 45.582031 43.035156 45.496094 42.910156 45.382812 42.800781 C 45.269531 42.691406 45.140625 42.613281 44.996094 42.558594 C 44.851562 42.503906 44.699219 42.480469 44.542969 42.488281 L 24.921875 42.488281 C 24.773438 42.488281 24.628906 42.519531 24.492188 42.578125 C 24.355469 42.636719 24.234375 42.71875 24.128906 42.824219 C 24.023438 42.933594 23.945312 43.054688 23.886719 43.195312 C 23.828125 43.332031 23.800781 43.476562 23.800781 43.625 L 23.800781 66.367188 C 23.800781 66.519531 23.832031 66.664062 23.886719 66.800781 C 23.945312 66.941406 24.027344 67.066406 24.132812 67.171875 C 24.238281 67.277344 24.359375 67.363281 24.5 67.417969 C 24.636719 67.476562 24.78125 67.507812 24.933594 67.507812 Z M 24.933594 67.507812 " fill-opacity="1" fill-rule="nonzero"></path></g><g clip-path="url(#e9bbd6c9d9)"><path fill="#d10a38" d="M 20.328125 67.507812 C 20.480469 67.507812 20.625 67.480469 20.765625 67.421875 C 20.902344 67.363281 21.023438 67.28125 21.132812 67.171875 C 21.238281 67.066406 21.320312 66.941406 21.378906 66.804688 C 21.433594 66.664062 21.464844 66.519531 21.464844 66.367188 L 21.464844 43.625 C 21.464844 43.476562 21.433594 43.328125 21.378906 43.191406 C 21.320312 43.050781 21.238281 42.929688 21.132812 42.820312 C 21.023438 42.714844 20.902344 42.632812 20.761719 42.574219 C 20.625 42.515625 20.480469 42.488281 20.328125 42.488281 L 10.222656 42.488281 C 10.066406 42.480469 9.914062 42.503906 9.769531 42.558594 C 9.625 42.613281 9.496094 42.691406 9.382812 42.800781 C 9.269531 42.910156 9.183594 43.035156 9.121094 43.179688 C 9.058594 43.320312 9.027344 43.472656 9.027344 43.628906 C 9.027344 43.785156 9.058594 43.933594 9.121094 44.078125 C 9.183594 44.21875 9.269531 44.347656 9.382812 44.453125 C 9.496094 44.5625 9.625 44.640625 9.769531 44.695312 C 9.914062 44.75 10.066406 44.773438 10.222656 44.765625 L 19.191406 44.765625 L 19.191406 66.367188 C 19.191406 66.519531 19.222656 66.664062 19.28125 66.804688 C 19.335938 66.945312 19.417969 67.066406 19.527344 67.175781 C 19.632812 67.28125 19.753906 67.363281 19.894531 67.421875 C 20.035156 67.480469 20.179688 67.507812 20.328125 67.507812 Z M 20.328125 67.507812 " fill-opacity="1" fill-rule="nonzero"></path></g><g clip-path="url(#4a70021b80)"><path fill="#d10a38" d="M 15.273438 67.507812 L 52.738281 67.507812 C 52.890625 67.507812 53.035156 67.480469 53.175781 67.421875 C 53.3125 67.363281 53.4375 67.28125 53.542969 67.175781 C 53.648438 67.066406 53.730469 66.945312 53.789062 66.804688 C 53.847656 66.664062 53.875 66.519531 53.875 66.367188 C 53.875 66.214844 53.847656 66.070312 53.789062 65.929688 C 53.730469 65.789062 53.648438 65.667969 53.542969 65.5625 C 53.4375 65.453125 53.3125 65.371094 53.175781 65.3125 C 53.035156 65.253906 52.890625 65.226562 52.738281 65.226562 L 15.273438 65.226562 C 15.125 65.226562 14.976562 65.253906 14.839844 65.3125 C 14.699219 65.371094 14.578125 65.453125 14.46875 65.5625 C 14.363281 65.667969 14.28125 65.789062 14.222656 65.929688 C 14.167969 66.070312 14.136719 66.214844 14.136719 66.367188 C 14.136719 66.519531 14.167969 66.664062 14.222656 66.804688 C 14.28125 66.945312 14.363281 67.066406 14.46875 67.175781 C 14.578125 67.28125 14.699219 67.363281 14.839844 67.421875 C 14.976562 67.480469 15.125 67.507812 15.273438 67.507812 Z M 15.273438 67.507812 " fill-opacity="1" fill-rule="nonzero"></path></g></svg>