<svg xmlns="http://www.w3.org/2000/svg" xmlns:xlink="http://www.w3.org/1999/xlink" width="100" zoomAndPan="magnify" viewBox="0 0 75 74.999997" height="100" preserveAspectRatio="xMidYMid meet" version="1.0"><defs><clipPath id="0eb1299069"><path d="M 5.144531 5.144531 L 69.644531 5.144531 L 69.644531 69.644531 L 5.144531 69.644531 Z M 5.144531 5.144531 " clip-rule="nonzero"></path></clipPath></defs><path fill="#d10a38" d="M 24.96875 43.09375 C 24.535156 42.582031 23.765625 42.519531 23.253906 42.957031 C 22.742188 43.394531 22.683594 44.160156 23.117188 44.671875 L 23.367188 44.964844 C 23.609375 45.246094 23.949219 45.390625 24.292969 45.390625 C 24.574219 45.390625 24.855469 45.292969 25.082031 45.097656 C 25.59375 44.664062 25.65625 43.894531 25.21875 43.386719 Z M 24.96875 43.09375 " fill-opacity="1" fill-rule="nonzero"></path><path fill="#d10a38" d="M 19.058594 44.410156 C 18.488281 44.410156 17.941406 44.613281 17.507812 44.980469 L 13.261719 48.605469 C 12.675781 49.105469 12.320312 49.804688 12.257812 50.574219 C 12.199219 51.339844 12.441406 52.085938 12.941406 52.671875 L 21.472656 62.675781 C 21.984375 63.273438 22.730469 63.617188 23.519531 63.617188 C 24.160156 63.617188 24.78125 63.390625 25.265625 62.972656 L 26.667969 61.78125 C 29.320312 59.515625 29.636719 55.519531 27.371094 52.867188 L 20.875 45.25 C 20.421875 44.714844 19.757812 44.410156 19.058594 44.410156 Z M 24.949219 59.765625 L 23.550781 60.960938 C 23.542969 60.964844 23.535156 60.972656 23.519531 60.972656 L 14.953125 50.957031 C 14.898438 50.894531 14.890625 50.828125 14.894531 50.78125 C 14.898438 50.738281 14.917969 50.671875 14.980469 50.617188 L 19.027344 47.164062 L 25.359375 54.582031 C 26.675781 56.125 26.492188 58.449219 24.949219 59.765625 Z M 24.949219 59.765625 " fill-opacity="1" fill-rule="nonzero"></path><path fill="#d10a38" d="M 55.929688 15.996094 C 56.304688 15.675781 56.351562 15.113281 56.03125 14.738281 C 55.710938 14.363281 55.144531 14.316406 54.769531 14.636719 L 46 22.121094 L 47.160156 23.480469 Z M 55.929688 15.996094 " fill-opacity="1" fill-rule="nonzero"></path><path fill="#d10a38" d="M 57.246094 14.546875 C 57.449219 14.546875 57.65625 14.476562 57.824219 14.332031 L 60.722656 11.859375 C 61.097656 11.539062 61.144531 10.976562 60.824219 10.601562 C 60.503906 10.226562 59.941406 10.179688 59.5625 10.5 L 56.664062 12.972656 C 56.289062 13.292969 56.242188 13.859375 56.5625 14.234375 C 56.742188 14.441406 56.992188 14.546875 57.246094 14.546875 Z M 57.246094 14.546875 " fill-opacity="1" fill-rule="nonzero"></path><g clip-path="url(#0eb1299069)"><path fill="#d10a38" d="M 67.503906 54.292969 C 67.488281 54.277344 67.46875 54.257812 67.449219 54.242188 L 48.46875 37.148438 C 48.449219 37.132812 48.429688 37.121094 48.414062 37.105469 L 48.253906 35.988281 L 50.117188 36.226562 C 50.808594 36.316406 51.492188 36.082031 51.984375 35.585938 C 52.476562 35.089844 52.703125 34.40625 52.605469 33.714844 L 52.34375 31.851562 L 54.207031 32.089844 C 54.898438 32.179688 55.582031 31.941406 56.074219 31.445312 C 56.5625 30.949219 56.789062 30.265625 56.691406 29.574219 L 56.433594 27.714844 L 58.292969 27.953125 C 58.988281 28.042969 59.667969 27.808594 60.160156 27.3125 C 60.652344 26.816406 60.878906 26.132812 60.78125 25.4375 L 60.519531 23.578125 L 62.382812 23.820312 C 63.078125 23.910156 63.757812 23.675781 64.25 23.179688 C 64.742188 22.683594 64.96875 22 64.871094 21.308594 L 64.613281 19.4375 L 66.480469 19.679688 C 67.171875 19.769531 67.855469 19.535156 68.34375 19.039062 C 68.835938 18.542969 69.066406 17.859375 68.96875 17.167969 L 68.507812 13.851562 C 68.4375 13.324219 68.21875 12.828125 67.878906 12.410156 L 63.097656 6.59375 C 62.5 5.867188 61.65625 5.421875 60.71875 5.339844 C 59.785156 5.257812 58.871094 5.546875 58.15625 6.15625 L 34.277344 26.527344 L 30.164062 22.414062 L 31.445312 21.136719 C 32.476562 20.105469 32.773438 18.621094 32.320312 17.320312 C 33.109375 16.039062 34.320312 14.296875 35.132812 13.667969 C 35.90625 13.070312 39.199219 11.273438 41.09375 10.285156 C 41.496094 10.074219 41.773438 9.683594 41.84375 9.234375 C 41.914062 8.785156 41.765625 8.328125 41.441406 8.003906 L 40.117188 6.679688 C 39.796875 6.363281 39.347656 6.210938 38.902344 6.277344 C 38.6875 6.304688 33.644531 7.03125 31.140625 7.894531 C 29.046875 8.613281 26.765625 9.996094 25.667969 10.699219 C 24.371094 10.265625 22.914062 10.566406 21.894531 11.585938 L 13.796875 19.683594 C 12.609375 20.871094 12.402344 22.671875 13.171875 24.074219 L 11.777344 25.464844 C 11.246094 25.214844 10.664062 25.082031 10.058594 25.082031 C 8.988281 25.082031 7.980469 25.496094 7.226562 26.253906 L 5.644531 27.832031 C 5.378906 28.101562 5.226562 28.464844 5.226562 28.84375 C 5.226562 29.222656 5.378906 29.585938 5.644531 29.855469 L 13.171875 37.382812 C 13.730469 37.941406 14.636719 37.941406 15.195312 37.382812 L 16.773438 35.804688 C 18.003906 34.574219 18.265625 32.742188 17.5625 31.253906 L 18.957031 29.859375 C 20.355469 30.628906 22.160156 30.421875 23.347656 29.234375 L 24.625 27.953125 L 28.304688 31.632812 L 20.671875 38.144531 C 19.539062 37.722656 18.246094 37.917969 17.289062 38.734375 L 6.746094 47.726562 C 5.324219 48.941406 5.152344 51.089844 6.367188 52.515625 L 19.367188 67.75 C 20.375 68.929688 21.804688 69.535156 23.246094 69.535156 C 24.414062 69.535156 25.589844 69.136719 26.542969 68.320312 L 29.683594 65.640625 C 33.535156 62.355469 34.695312 57.125 32.855469 52.648438 L 33.765625 52.765625 C 33.863281 52.777344 33.957031 52.785156 34.050781 52.785156 C 34.644531 52.785156 35.207031 52.550781 35.628906 52.125 C 36.121094 51.625 36.347656 50.941406 36.25 50.25 L 35.988281 48.390625 L 37.851562 48.628906 C 38.542969 48.71875 39.222656 48.484375 39.714844 47.988281 C 39.941406 47.761719 40.101562 47.492188 40.210938 47.203125 L 56.453125 65.242188 C 56.46875 65.257812 56.488281 65.277344 56.503906 65.292969 C 57.554688 66.34375 58.953125 66.921875 60.4375 66.921875 C 61.921875 66.921875 63.316406 66.34375 64.367188 65.292969 L 67.503906 62.15625 C 69.671875 59.988281 69.671875 56.460938 67.503906 54.292969 Z M 60.015625 8.335938 C 60.1875 8.1875 60.375 8.183594 60.46875 8.191406 C 60.566406 8.199219 60.75 8.238281 60.890625 8.414062 L 65.675781 14.242188 L 66.023438 16.734375 L 64.15625 16.496094 C 63.464844 16.40625 62.785156 16.640625 62.292969 17.136719 C 61.800781 17.632812 61.570312 18.3125 61.667969 19.007812 L 61.925781 20.878906 L 60.0625 20.636719 C 59.371094 20.546875 58.6875 20.78125 58.195312 21.277344 C 57.703125 21.773438 57.476562 22.457031 57.574219 23.152344 L 57.835938 25.011719 L 55.972656 24.769531 C 55.277344 24.679688 54.597656 24.914062 54.105469 25.414062 C 53.613281 25.910156 53.390625 26.59375 53.488281 27.285156 L 53.746094 29.148438 L 51.882812 28.910156 C 51.191406 28.824219 50.511719 29.054688 50.019531 29.554688 C 49.527344 30.050781 49.300781 30.734375 49.398438 31.425781 L 49.660156 33.285156 L 47.796875 33.046875 C 47.105469 32.957031 46.421875 33.191406 45.929688 33.6875 C 45.4375 34.183594 45.210938 34.867188 45.308594 35.5625 L 45.402344 36.226562 C 45.027344 36.28125 44.660156 36.390625 44.3125 36.5625 L 36.304688 28.558594 Z M 42.609375 38.90625 L 41.117188 40.398438 L 26.210938 25.496094 L 27.703125 24 Z M 14.753906 33.78125 L 14.183594 34.351562 L 8.679688 28.84375 L 9.246094 28.277344 C 9.679688 27.84375 10.433594 27.84375 10.871094 28.28125 L 10.933594 28.339844 C 11.027344 28.433594 11.132812 28.503906 11.246094 28.566406 L 14.316406 31.417969 C 14.378906 31.667969 14.5 31.90625 14.695312 32.101562 L 14.753906 32.160156 C 15.199219 32.609375 15.199219 33.335938 14.753906 33.78125 Z M 15.335938 29.4375 L 13.527344 27.761719 L 15.542969 25.742188 L 17.351562 27.421875 Z M 21.324219 27.210938 C 21 27.535156 20.472656 27.535156 20.148438 27.210938 L 19.902344 26.96875 C 19.847656 26.851562 19.773438 26.742188 19.675781 26.652344 L 16.398438 23.613281 C 16.332031 23.449219 16.230469 23.296875 16.101562 23.164062 L 15.816406 22.882812 C 15.492188 22.558594 15.492188 22.03125 15.816406 21.707031 L 23.914062 13.609375 C 24.203125 13.320312 24.664062 13.28125 24.992188 13.523438 C 25.121094 13.617188 25.261719 13.679688 25.40625 13.726562 L 26.15625 14.476562 C 26.367188 14.683594 26.640625 14.789062 26.914062 14.789062 C 27.191406 14.789062 27.464844 14.683594 27.675781 14.476562 C 28.09375 14.054688 28.09375 13.378906 27.675781 12.957031 L 27.585938 12.871094 C 28.664062 12.199219 30.46875 11.148438 32.070312 10.59375 C 33.15625 10.222656 34.867188 9.863281 36.355469 9.59375 C 35.132812 10.277344 33.925781 10.988281 33.382812 11.40625 C 32.210938 12.316406 30.90625 14.207031 30.136719 15.417969 L 29.65625 14.941406 C 29.238281 14.519531 28.558594 14.523438 28.140625 14.941406 C 27.71875 15.359375 27.71875 16.039062 28.140625 16.457031 L 29.234375 17.554688 C 29.289062 17.710938 29.367188 17.863281 29.480469 18 C 29.75 18.332031 29.726562 18.808594 29.421875 19.113281 L 27.132812 21.40625 C 27.007812 21.53125 26.914062 21.675781 26.84375 21.828125 L 24.019531 24.652344 C 23.871094 24.71875 23.730469 24.804688 23.613281 24.921875 Z M 37.75 41.957031 C 37.257812 42.453125 37.03125 43.136719 37.128906 43.828125 L 37.390625 45.6875 L 35.527344 45.445312 C 34.835938 45.359375 34.152344 45.589844 33.660156 46.089844 C 33.171875 46.585938 32.941406 47.269531 33.039062 47.960938 L 33.300781 49.824219 L 30.402344 49.453125 C 30.398438 49.453125 30.398438 49.453125 30.394531 49.453125 L 27.351562 45.886719 C 26.917969 45.378906 26.148438 45.316406 25.640625 45.753906 C 25.128906 46.1875 25.066406 46.957031 25.503906 47.464844 L 28.90625 51.457031 C 28.914062 51.464844 28.921875 51.472656 28.929688 51.480469 C 28.992188 51.605469 29.070312 51.71875 29.160156 51.820312 C 29.191406 51.878906 29.21875 51.933594 29.253906 51.988281 C 31.800781 55.566406 31.175781 60.609375 27.828125 63.464844 L 24.6875 66.144531 C 23.75 66.941406 22.34375 66.828125 21.542969 65.894531 L 8.542969 50.65625 C 8.351562 50.433594 8.378906 50.097656 8.601562 49.90625 L 19.144531 40.910156 C 19.332031 40.75 19.601562 40.738281 19.800781 40.878906 C 19.835938 40.90625 19.875 40.921875 19.910156 40.941406 C 19.945312 40.972656 19.980469 41.007812 20.019531 41.035156 C 20.023438 41.039062 20.027344 41.046875 20.03125 41.054688 L 21.015625 42.207031 C 21.257812 42.488281 21.597656 42.632812 21.941406 42.632812 C 22.21875 42.632812 22.5 42.539062 22.730469 42.34375 C 23.242188 41.90625 23.300781 41.140625 22.867188 40.628906 L 22.570312 40.28125 L 30.332031 33.660156 L 38.253906 41.582031 C 38.074219 41.683594 37.902344 41.804688 37.75 41.957031 Z M 65.480469 60.136719 L 62.34375 63.273438 C 61.332031 64.285156 59.570312 64.292969 58.550781 63.296875 L 41.484375 44.347656 C 41.164062 43.988281 41.179688 43.445312 41.519531 43.101562 L 41.660156 42.960938 C 41.746094 42.875 41.816406 42.777344 41.875 42.675781 L 44.882812 39.664062 C 44.988281 39.605469 45.085938 39.535156 45.175781 39.449219 L 45.3125 39.308594 C 45.65625 38.96875 46.199219 38.953125 46.554688 39.277344 L 65.503906 56.339844 C 66.535156 57.394531 66.527344 59.089844 65.480469 60.136719 Z M 65.480469 60.136719 " fill-opacity="1" fill-rule="nonzero"></path></g><path fill="#d10a38" d="M 55.207031 48.175781 C 54.839844 47.847656 54.273438 47.875 53.945312 48.246094 C 53.613281 48.613281 53.644531 49.179688 54.015625 49.507812 L 54.9375 50.332031 C 55.109375 50.484375 55.320312 50.558594 55.535156 50.558594 C 55.78125 50.558594 56.023438 50.457031 56.199219 50.261719 C 56.53125 49.894531 56.496094 49.328125 56.128906 49 Z M 55.207031 48.175781 " fill-opacity="1" fill-rule="nonzero"></path><path fill="#d10a38" d="M 58.003906 50.671875 C 57.636719 50.34375 57.070312 50.375 56.742188 50.746094 C 56.414062 51.113281 56.445312 51.679688 56.8125 52.007812 L 63.503906 57.984375 C 63.671875 58.136719 63.886719 58.210938 64.097656 58.210938 C 64.34375 58.210938 64.589844 58.109375 64.765625 57.914062 C 65.09375 57.542969 65.0625 56.980469 64.695312 56.648438 Z M 58.003906 50.671875 " fill-opacity="1" fill-rule="nonzero"></path></svg>