<svg xmlns="http://www.w3.org/2000/svg" xmlns:xlink="http://www.w3.org/1999/xlink" width="100" zoomAndPan="magnify" viewBox="0 0 75 74.999997" height="100" preserveAspectRatio="xMidYMid meet" version="1.0"><defs><clipPath id="9eb950aa35"><path d="M 6.9375 11.003906 L 67.6875 11.003906 L 67.6875 64.253906 L 6.9375 64.253906 Z M 6.9375 11.003906 " clip-rule="nonzero"></path></clipPath></defs><g clip-path="url(#9eb950aa35)"><path fill="#d10a38" d="M 66.738281 11.003906 L 61.992188 11.003906 C 60.566406 11.003906 59.425781 12.050781 59.191406 13.378906 L 40.679688 13.378906 C 37.027344 13.378906 34.035156 16.375 34.035156 20.035156 L 34.035156 36.203125 L 32.566406 36.203125 C 32.042969 36.203125 31.617188 36.628906 31.617188 37.152344 L 31.617188 39.53125 C 31.617188 40.671875 32.421875 41.621094 33.515625 41.859375 L 33.515625 46.660156 L 31.425781 46.660156 C 31.046875 45.804688 30.238281 45.234375 29.242188 45.234375 L 26.871094 45.234375 C 26.347656 45.234375 25.921875 45.664062 25.921875 46.1875 L 25.921875 48.039062 L 15.429688 48.039062 C 15.195312 46.710938 14.007812 45.710938 12.632812 45.710938 L 7.886719 45.710938 C 7.363281 45.710938 6.9375 46.136719 6.9375 46.660156 L 6.9375 62.828125 C 6.9375 63.351562 7.363281 63.777344 7.886719 63.777344 L 12.632812 63.777344 C 14.054688 63.777344 15.195312 62.730469 15.429688 61.402344 L 25.921875 61.402344 L 25.921875 63.300781 C 25.921875 63.824219 26.347656 64.253906 26.871094 64.253906 L 29.242188 64.253906 C 30.191406 64.253906 31.046875 63.683594 31.425781 62.828125 L 41.582031 62.828125 C 45.519531 62.828125 48.703125 59.640625 48.703125 55.695312 L 48.703125 41.859375 C 49.792969 41.621094 50.601562 40.671875 50.601562 39.53125 L 50.601562 37.152344 C 50.601562 36.628906 50.171875 36.203125 49.652344 36.203125 L 47.324219 36.203125 L 47.324219 26.742188 L 59.191406 26.742188 C 59.425781 28.070312 60.613281 29.070312 61.992188 29.070312 L 66.738281 29.070312 C 67.257812 29.070312 67.6875 28.640625 67.6875 28.121094 L 67.6875 11.953125 C 67.6875 11.429688 67.257812 11.003906 66.738281 11.003906 Z M 25.921875 59.5 L 15.480469 59.5 L 15.480469 49.941406 L 25.921875 49.941406 Z M 46.804688 55.695312 C 46.804688 58.59375 44.476562 60.925781 41.582031 60.925781 L 31.617188 60.925781 L 31.617188 48.5625 L 34.464844 48.5625 C 34.984375 48.5625 35.414062 48.136719 35.414062 47.613281 L 35.414062 41.90625 L 46.804688 41.90625 Z M 59.144531 24.839844 L 46.375 24.839844 C 45.855469 24.839844 45.425781 25.265625 45.425781 25.789062 L 45.425781 36.203125 L 35.933594 36.203125 L 35.933594 20.035156 C 35.933594 17.421875 38.070312 15.28125 40.679688 15.28125 L 59.144531 15.28125 Z M 59.144531 24.839844 " fill-opacity="1" fill-rule="nonzero"></path></g></svg>