<svg xmlns="http://www.w3.org/2000/svg" xmlns:xlink="http://www.w3.org/1999/xlink" width="100" zoomAndPan="magnify" viewBox="0 0 75 74.999997" height="100" preserveAspectRatio="xMidYMid meet" version="1.0"><defs><clipPath id="710f2e1658"><path d="M 26.21875 7.5 L 51.71875 7.5 L 51.71875 67.5 L 26.21875 67.5 Z M 26.21875 7.5 " clip-rule="nonzero"></path></clipPath></defs><g clip-path="url(#710f2e1658)"><path fill="#d10a38" d="M 27.882812 39.410156 L 36.742188 39.410156 C 36.738281 39.769531 36.871094 40.121094 37.125 40.398438 C 37.214844 40.496094 37.3125 40.578125 37.421875 40.648438 L 37.421875 45.367188 C 36.101562 45.804688 35.136719 47.089844 35.136719 48.609375 L 35.136719 64.070312 C 35.136719 65.945312 36.601562 67.46875 38.410156 67.46875 L 39.519531 67.46875 C 41.320312 67.46875 42.792969 65.945312 42.792969 64.070312 L 42.792969 48.609375 C 42.792969 47.089844 41.828125 45.804688 40.507812 45.367188 L 40.507812 40.648438 C 40.617188 40.578125 40.714844 40.496094 40.804688 40.398438 C 41.058594 40.121094 41.191406 39.777344 41.1875 39.410156 L 50.046875 39.410156 C 50.574219 39.410156 51.0625 39.148438 51.359375 38.710938 C 51.65625 38.273438 51.71875 37.714844 51.527344 37.222656 L 40.449219 8.550781 C 40.210938 7.933594 39.628906 7.53125 38.972656 7.53125 C 38.316406 7.53125 37.734375 7.933594 37.496094 8.550781 L 26.40625 37.222656 C 26.21875 37.714844 26.277344 38.273438 26.574219 38.710938 C 26.867188 39.148438 27.359375 39.410156 27.882812 39.410156 Z M 38.082031 38.804688 L 38.960938 27.28125 L 39.839844 38.804688 L 39.890625 39.417969 C 39.890625 39.449219 39.882812 39.480469 39.855469 39.507812 C 39.808594 39.566406 39.722656 39.601562 39.628906 39.601562 L 38.300781 39.601562 C 38.210938 39.601562 38.125 39.566406 38.074219 39.507812 C 38.046875 39.480469 38.035156 39.449219 38.035156 39.417969 L 38.082031 38.804688 C 38.082031 38.8125 38.082031 38.8125 38.082031 38.804688 Z M 39.210938 45.210938 L 38.714844 45.210938 L 38.714844 40.90625 L 39.210938 40.90625 Z M 41.496094 48.609375 L 41.496094 64.070312 C 41.496094 65.222656 40.605469 66.160156 39.515625 66.160156 L 38.40625 66.160156 C 37.3125 66.160156 36.425781 65.222656 36.425781 64.070312 L 36.425781 48.609375 C 36.425781 47.457031 37.3125 46.519531 38.40625 46.519531 L 39.515625 46.519531 C 40.605469 46.519531 41.496094 47.457031 41.496094 48.609375 Z M 27.609375 37.695312 L 38.6875 9.023438 C 38.753906 8.859375 38.886719 8.832031 38.960938 8.832031 C 39.035156 8.832031 39.171875 8.859375 39.234375 9.023438 L 50.316406 37.695312 C 50.367188 37.820312 50.316406 37.921875 50.285156 37.972656 C 50.253906 38.023438 50.179688 38.101562 50.042969 38.101562 L 41.082031 38.101562 L 40.195312 26.476562 C 40.167969 26.175781 40.054688 25.910156 39.875 25.699219 C 39.796875 25.601562 39.703125 25.523438 39.59375 25.457031 C 39.4375 25.363281 39.265625 25.296875 39.082031 25.277344 C 38.757812 25.242188 38.441406 25.34375 38.1875 25.554688 C 37.917969 25.777344 37.75 26.117188 37.726562 26.476562 L 36.839844 38.101562 L 27.882812 38.101562 C 27.746094 38.101562 27.671875 38.023438 27.636719 37.972656 C 27.609375 37.925781 27.558594 37.828125 27.609375 37.695312 Z M 27.609375 37.695312 " fill-opacity="1" fill-rule="nonzero"></path></g><path fill="#d10a38" d="M 37.125 48.609375 L 38.417969 48.609375 L 38.417969 64.070312 L 37.125 64.070312 Z M 37.125 48.609375 " fill-opacity="1" fill-rule="nonzero"></path></svg>