<svg xmlns="http://www.w3.org/2000/svg" xmlns:xlink="http://www.w3.org/1999/xlink" width="100" zoomAndPan="magnify" viewBox="0 0 75 74.999997" height="100" preserveAspectRatio="xMidYMid meet" version="1.0"><defs><clipPath id="8cd6a0d4a6"><path d="M 8.117188 39 L 20 39 L 20 69 L 8.117188 69 Z M 8.117188 39 " clip-rule="nonzero"></path></clipPath><clipPath id="1b6b2b0e32"><path d="M 10 7.5 L 17 7.5 L 17 38 L 10 38 Z M 10 7.5 " clip-rule="nonzero"></path></clipPath><clipPath id="0573ee9bf3"><path d="M 25 7.5 L 41 7.5 L 41 69 L 25 69 Z M 25 7.5 " clip-rule="nonzero"></path></clipPath><clipPath id="a138dea5e7"><path d="M 46 7.5 L 65 7.5 L 65 19 L 46 19 Z M 46 7.5 " clip-rule="nonzero"></path></clipPath><clipPath id="4dfb4abb1f"><path d="M 58 24 L 66.617188 24 L 66.617188 30 L 58 30 Z M 58 24 " clip-rule="nonzero"></path></clipPath><clipPath id="238535c243"><path d="M 46 17 L 66.617188 17 L 66.617188 69 L 46 69 Z M 46 17 " clip-rule="nonzero"></path></clipPath></defs><g clip-path="url(#8cd6a0d4a6)"><path fill="#d10a38" d="M 13.898438 39.464844 C 10.726562 39.464844 8.445312 42.023438 8.445312 44.835938 L 8.445312 63.375 C 8.445312 66.441406 10.855469 68.746094 13.773438 68.746094 C 16.691406 68.746094 19.101562 66.316406 19.101562 63.375 L 19.101562 44.835938 C 19.226562 42.148438 17.070312 39.464844 13.898438 39.464844 Z M 12.503906 62.992188 C 12.503906 63.628906 11.996094 64.269531 11.234375 64.269531 C 10.472656 64.269531 9.964844 63.757812 9.964844 62.992188 L 9.964844 45.347656 C 9.964844 44.707031 10.472656 44.066406 11.234375 44.066406 C 11.871094 44.066406 12.503906 44.578125 12.503906 45.347656 Z M 17.707031 62.992188 C 17.707031 63.628906 17.199219 64.269531 16.4375 64.269531 C 15.675781 64.269531 15.167969 63.757812 15.167969 62.992188 L 15.167969 45.347656 C 15.167969 44.578125 15.675781 44.066406 16.4375 44.066406 C 17.070312 44.066406 17.707031 44.578125 17.707031 45.347656 Z M 17.707031 62.992188 " fill-opacity="1" fill-rule="nonzero"></path></g><g clip-path="url(#1b6b2b0e32)"><path fill="#d10a38" d="M 15.167969 37.035156 L 15.167969 18.367188 L 16.691406 14.789062 L 15.929688 7.5 L 11.742188 7.5 L 10.980469 14.660156 L 12.503906 18.238281 L 12.503906 36.90625 C 13.265625 36.90625 14.28125 36.78125 15.167969 37.035156 Z M 15.167969 37.035156 " fill-opacity="1" fill-rule="nonzero"></path></g><g clip-path="url(#0573ee9bf3)"><path fill="#d10a38" d="M 36.226562 22.074219 C 38.636719 20.796875 40.414062 18.238281 40.414062 15.171875 C 40.414062 10.953125 36.988281 7.5 32.800781 7.5 C 28.617188 7.5 25.0625 10.953125 25.0625 15.171875 C 25.0625 18.367188 26.964844 21.179688 29.757812 22.332031 C 29.757812 41.765625 29.375 15.683594 29.757812 54.039062 C 29.628906 54.039062 29.757812 54.039062 29.25 54.296875 C 26.710938 55.574219 25.0625 58.132812 25.0625 61.199219 C 25.0625 65.421875 28.488281 68.871094 32.675781 68.871094 C 36.859375 68.871094 40.285156 65.421875 40.285156 61.199219 C 40.285156 58.003906 38.382812 55.191406 35.59375 54.039062 C 35.59375 50.84375 35.59375 65.804688 35.59375 22.460938 C 35.59375 22.460938 35.59375 22.460938 35.71875 22.460938 C 35.847656 22.203125 36.101562 22.203125 36.226562 22.074219 Z M 38.382812 61.199219 C 38.382812 64.398438 35.847656 66.953125 32.675781 66.953125 C 29.503906 66.953125 26.964844 64.398438 26.964844 61.199219 C 26.964844 58.003906 29.503906 55.445312 32.675781 55.445312 C 35.847656 55.445312 38.382812 58.003906 38.382812 61.199219 Z M 34.324219 19.261719 L 32.675781 20.925781 L 31.027344 19.261719 L 28.617188 19.261719 L 28.617188 16.832031 L 26.964844 15.171875 L 28.617188 13.507812 L 28.617188 11.207031 L 31.027344 11.207031 L 32.675781 9.546875 L 34.324219 11.207031 L 36.734375 11.207031 L 36.734375 13.636719 L 38.382812 15.171875 L 36.734375 16.832031 L 36.734375 19.261719 Z M 34.324219 19.261719 " fill-opacity="1" fill-rule="nonzero"></path></g><path fill="#d10a38" d="M 59.441406 44.066406 C 59.441406 45.472656 60.585938 46.625 61.980469 46.625 C 63.375 46.625 64.515625 45.472656 64.515625 44.066406 L 64.515625 35.375 C 62.359375 35.5 60.710938 36.269531 59.316406 37.417969 L 59.316406 44.066406 Z M 59.441406 44.066406 " fill-opacity="1" fill-rule="nonzero"></path><g clip-path="url(#a138dea5e7)"><path fill="#d10a38" d="M 64.515625 18.496094 L 64.515625 11.078125 C 64.515625 9.164062 62.867188 7.5 60.964844 7.5 L 56.777344 7.5 C 52.972656 7.5 50.6875 8.140625 49.039062 9.164062 C 47.519531 10.058594 46.503906 12.230469 46.503906 12.230469 L 46.503906 13.253906 L 58.554688 13.253906 C 59.0625 13.253906 59.316406 13.636719 59.316406 14.019531 L 59.316406 18.367188 L 64.515625 18.367188 Z M 64.515625 18.496094 " fill-opacity="1" fill-rule="nonzero"></path></g><g clip-path="url(#4dfb4abb1f)"><path fill="#d10a38" d="M 64.136719 24.25 L 60.585938 24.25 C 59.441406 24.25 58.425781 25.144531 58.425781 26.421875 L 58.425781 27.0625 C 58.425781 28.214844 59.316406 29.234375 60.585938 29.234375 L 64.136719 29.234375 C 65.277344 29.234375 66.292969 28.339844 66.292969 27.0625 L 66.292969 26.421875 C 66.292969 25.144531 65.277344 24.25 64.136719 24.25 Z M 64.136719 24.25 " fill-opacity="1" fill-rule="nonzero"></path></g><g clip-path="url(#238535c243)"><path fill="#d10a38" d="M 65.40625 30.257812 L 60.585938 30.257812 C 58.808594 30.257812 57.414062 28.851562 57.414062 27.0625 L 57.414062 26.421875 C 57.414062 24.632812 58.808594 23.226562 60.585938 23.226562 L 65.40625 23.226562 C 65.914062 23.226562 66.167969 22.84375 66.167969 22.460938 L 66.167969 21.5625 C 66.167969 21.179688 65.785156 20.796875 65.40625 20.796875 L 56.652344 20.796875 L 56.652344 17.730469 L 46.375 17.730469 L 46.375 20.667969 L 47.769531 20.667969 L 47.769531 65.675781 C 47.769531 67.464844 49.292969 69 51.070312 68.871094 C 52.71875 68.746094 53.988281 67.335938 53.988281 65.675781 L 53.988281 45.601562 C 53.988281 37.417969 58.300781 33.457031 64.390625 32.945312 C 64.644531 32.945312 65.023438 32.945312 65.277344 32.945312 C 65.785156 32.945312 66.039062 32.558594 66.039062 32.175781 L 66.039062 31.027344 C 66.292969 30.640625 65.914062 30.257812 65.40625 30.257812 Z M 52.210938 65.035156 C 52.210938 65.675781 51.703125 66.316406 50.941406 66.316406 C 50.308594 66.316406 49.675781 65.804688 49.675781 65.035156 L 49.675781 58.003906 C 49.675781 57.363281 50.183594 56.726562 50.941406 56.726562 C 51.578125 56.726562 52.210938 57.238281 52.210938 58.003906 Z M 52.210938 65.035156 " fill-opacity="1" fill-rule="nonzero"></path></g></svg>