<svg xmlns="http://www.w3.org/2000/svg" xmlns:xlink="http://www.w3.org/1999/xlink" width="100" zoomAndPan="magnify" viewBox="0 0 75 74.999997" height="100" preserveAspectRatio="xMidYMid meet" version="1.0"><defs><clipPath id="ad985d0a3d"><path d="M 7.5 7.5 L 67.5 7.5 L 67.5 65.25 L 7.5 65.25 Z M 7.5 7.5 " clip-rule="nonzero"></path></clipPath></defs><g clip-path="url(#ad985d0a3d)"><path fill="#d10a38" d="M 14.011719 13.101562 C 13.660156 12.535156 13.453125 11.902344 13.453125 11.171875 C 13.453125 10.4375 13.679688 9.78125 14.035156 9.21875 C 14.351562 8.6875 14.78125 8.246094 15.226562 7.851562 C 15.621094 7.503906 16.234375 7.535156 16.585938 7.929688 C 16.9375 8.328125 16.902344 8.9375 16.507812 9.285156 C 16.175781 9.578125 15.871094 9.882812 15.664062 10.222656 C 15.484375 10.503906 15.382812 10.820312 15.382812 11.171875 C 15.382812 11.53125 15.484375 11.835938 15.652344 12.109375 C 15.859375 12.433594 16.152344 12.75 16.503906 13.054688 C 16.945312 13.449219 17.367188 13.890625 17.695312 14.410156 C 18.046875 14.984375 18.273438 15.628906 18.273438 16.363281 C 18.273438 17.09375 18.058594 17.726562 17.71875 18.292969 C 17.398438 18.8125 16.980469 19.25 16.503906 19.679688 C 16.105469 20.03125 15.496094 19.996094 15.144531 19.601562 C 14.792969 19.207031 14.824219 18.597656 15.222656 18.246094 C 15.574219 17.929688 15.882812 17.625 16.074219 17.300781 C 16.242188 17.027344 16.34375 16.710938 16.34375 16.363281 C 16.34375 16.011719 16.230469 15.695312 16.0625 15.414062 C 15.859375 15.085938 15.550781 14.769531 15.222656 14.476562 C 14.746094 14.058594 14.328125 13.609375 14.011719 13.101562 Z M 67.5 33.214844 L 67.5 35.765625 C 67.5 36.386719 67.261719 36.949219 66.886719 37.367188 C 66.566406 37.726562 66.128906 37.96875 65.640625 38.046875 L 65.640625 51.871094 C 65.640625 52.832031 65.277344 53.699219 64.699219 54.34375 C 64.496094 54.566406 64.269531 54.757812 64.019531 54.917969 C 63.855469 55.21875 63.535156 55.425781 63.167969 55.425781 L 59.207031 55.425781 L 59.207031 63.125 C 59.207031 63.710938 58.96875 64.242188 58.585938 64.625 C 58.199219 65.011719 57.652344 65.246094 57.074219 65.246094 L 53.933594 65.246094 C 53.34375 65.246094 52.808594 65.011719 52.421875 64.625 C 52.039062 64.242188 51.800781 63.710938 51.800781 63.125 L 51.800781 55.425781 L 49.339844 55.425781 L 49.339844 63.125 C 49.339844 63.710938 49.097656 64.242188 48.714844 64.625 C 48.328125 65.011719 47.785156 65.246094 47.203125 65.246094 L 44.0625 65.246094 C 43.472656 65.246094 42.9375 65.011719 42.554688 64.625 C 42.167969 64.242188 41.929688 63.710938 41.929688 63.125 L 41.929688 55.425781 L 39.492188 55.425781 L 39.492188 63.125 C 39.492188 63.710938 39.253906 64.242188 38.867188 64.625 C 38.480469 65.011719 37.9375 65.246094 37.359375 65.246094 L 34.214844 65.246094 C 33.625 65.246094 33.089844 65.011719 32.707031 64.625 C 32.320312 64.242188 32.082031 63.710938 32.082031 63.125 L 32.082031 55.425781 L 29.621094 55.425781 L 29.621094 63.125 C 29.621094 63.710938 29.382812 64.242188 28.996094 64.625 C 28.609375 65.011719 28.066406 65.246094 27.488281 65.246094 L 24.34375 65.246094 C 23.753906 65.246094 23.222656 65.011719 22.835938 64.625 C 22.449219 64.242188 22.210938 63.710938 22.210938 63.125 L 22.210938 55.425781 L 19.773438 55.425781 L 19.773438 63.125 C 19.773438 63.710938 19.53125 64.242188 19.148438 64.625 C 18.761719 65.011719 18.21875 65.246094 17.636719 65.246094 L 14.496094 65.246094 C 13.90625 65.246094 13.375 65.011719 12.988281 64.625 C 12.601562 64.242188 12.363281 63.710938 12.363281 63.125 L 12.363281 59.828125 L 8.464844 59.828125 C 7.933594 59.828125 7.5 59.398438 7.5 58.867188 L 7.5 50.078125 C 7.5 49.546875 7.929688 49.117188 8.464844 49.117188 L 12.367188 49.117188 L 12.367188 40.855469 L 8.476562 40.855469 C 7.941406 40.855469 7.511719 40.425781 7.511719 39.894531 L 7.511719 31.101562 C 7.511719 30.574219 7.941406 30.144531 8.476562 30.144531 L 12.367188 30.144531 L 12.367188 26.824219 C 12.367188 26.269531 12.582031 25.773438 12.921875 25.390625 L 12.988281 25.324219 C 13.363281 24.941406 13.898438 24.703125 14.488281 24.703125 L 17.628906 24.703125 C 18.207031 24.703125 18.742188 24.941406 19.136719 25.324219 C 19.523438 25.707031 19.773438 26.238281 19.773438 26.824219 L 19.773438 34.535156 L 22.222656 34.535156 L 22.222656 26.824219 C 22.222656 26.273438 22.4375 25.777344 22.777344 25.394531 L 22.847656 25.324219 C 23.222656 24.941406 23.753906 24.703125 24.34375 24.703125 L 27.484375 24.703125 C 28.066406 24.703125 28.597656 24.941406 28.996094 25.324219 C 29.378906 25.710938 29.628906 26.238281 29.628906 26.828125 L 29.628906 34.535156 L 32.089844 34.535156 L 32.089844 26.828125 C 32.089844 26.273438 32.308594 25.777344 32.648438 25.394531 L 32.714844 25.328125 C 33.089844 24.945312 33.621094 24.707031 34.210938 24.707031 L 37.355469 24.707031 C 37.933594 24.707031 38.464844 24.945312 38.863281 25.328125 C 39.25 25.710938 39.496094 26.242188 39.496094 26.828125 L 39.496094 34.539062 L 41.9375 34.539062 L 41.9375 26.828125 C 41.9375 26.273438 42.152344 25.78125 42.492188 25.394531 L 42.5625 25.328125 C 42.945312 24.945312 43.480469 24.707031 44.070312 24.707031 L 47.210938 24.707031 C 47.792969 24.707031 48.324219 24.945312 48.722656 25.328125 C 49.105469 25.710938 49.34375 26.242188 49.34375 26.832031 L 49.34375 34.539062 L 51.808594 34.539062 L 51.808594 26.832031 C 51.808594 26.277344 52.023438 25.78125 52.363281 25.398438 L 52.429688 25.332031 C 52.816406 24.945312 53.347656 24.710938 53.941406 24.710938 L 57.082031 24.710938 C 57.660156 24.710938 58.195312 24.945312 58.589844 25.332031 C 58.976562 25.714844 59.214844 26.242188 59.214844 26.832031 L 59.214844 53.496094 L 62.324219 53.496094 C 62.6875 53.496094 63.027344 53.328125 63.277344 53.054688 C 63.546875 52.761719 63.71875 52.347656 63.71875 51.871094 L 63.71875 38.046875 C 63.234375 37.964844 62.804688 37.722656 62.484375 37.367188 C 62.097656 36.949219 61.871094 36.386719 61.871094 35.765625 L 61.871094 33.214844 C 61.871094 32.683594 62.300781 32.253906 62.835938 32.253906 C 63.367188 32.253906 63.800781 32.683594 63.800781 33.214844 L 63.800781 35.765625 C 63.800781 35.886719 63.84375 36 63.914062 36.082031 C 63.957031 36.136719 64.015625 36.160156 64.074219 36.160156 L 65.308594 36.160156 C 65.363281 36.160156 65.421875 36.125 65.464844 36.082031 C 65.535156 36 65.578125 35.886719 65.578125 35.765625 L 65.578125 33.214844 C 65.578125 32.683594 66.011719 32.253906 66.542969 32.253906 C 67.070312 32.253906 67.5 32.683594 67.5 33.214844 Z M 12.34375 32.0625 L 9.425781 32.0625 L 9.425781 38.9375 L 12.34375 38.9375 Z M 12.355469 51.035156 L 9.441406 51.035156 L 9.441406 57.910156 L 12.355469 57.910156 Z M 17.820312 26.824219 C 17.820312 26.769531 17.800781 26.710938 17.765625 26.679688 C 17.742188 26.644531 17.683594 26.621094 17.628906 26.621094 L 14.488281 26.621094 C 14.429688 26.621094 14.371094 26.644531 14.339844 26.679688 L 14.316406 26.703125 C 14.296875 26.738281 14.273438 26.78125 14.273438 26.824219 L 14.273438 30.964844 C 14.277344 31.011719 14.285156 31.054688 14.285156 31.105469 L 14.285156 39.894531 C 14.285156 39.945312 14.28125 39.992188 14.273438 40.035156 L 14.273438 63.125 C 14.273438 63.183594 14.296875 63.238281 14.328125 63.273438 C 14.363281 63.308594 14.421875 63.328125 14.476562 63.328125 L 17.617188 63.328125 C 17.675781 63.328125 17.734375 63.308594 17.765625 63.273438 C 17.800781 63.238281 17.824219 63.183594 17.824219 63.125 L 17.824219 26.824219 Z M 22.222656 53.507812 L 22.222656 36.453125 L 19.773438 36.453125 L 19.773438 53.507812 Z M 27.6875 26.824219 C 27.6875 26.769531 27.664062 26.710938 27.632812 26.679688 C 27.597656 26.644531 27.550781 26.621094 27.496094 26.621094 L 24.351562 26.621094 C 24.296875 26.621094 24.238281 26.644531 24.207031 26.679688 L 24.183594 26.703125 C 24.160156 26.738281 24.136719 26.78125 24.136719 26.824219 L 24.136719 63.125 C 24.136719 63.179688 24.160156 63.238281 24.195312 63.269531 C 24.230469 63.304688 24.285156 63.328125 24.34375 63.328125 L 27.484375 63.328125 C 27.542969 63.328125 27.597656 63.304688 27.632812 63.269531 C 27.664062 63.238281 27.6875 63.179688 27.6875 63.125 Z M 32.089844 53.507812 L 32.089844 36.453125 L 29.628906 36.453125 L 29.628906 53.507812 Z M 37.546875 26.824219 C 37.546875 26.769531 37.523438 26.710938 37.488281 26.679688 C 37.464844 26.644531 37.410156 26.621094 37.351562 26.621094 L 34.210938 26.621094 C 34.152344 26.621094 34.09375 26.644531 34.0625 26.679688 L 34.039062 26.703125 C 34.015625 26.738281 33.996094 26.78125 33.996094 26.824219 L 33.996094 63.125 C 33.996094 63.179688 34.015625 63.238281 34.050781 63.269531 C 34.085938 63.304688 34.144531 63.328125 34.199219 63.328125 L 37.339844 63.328125 C 37.398438 63.328125 37.453125 63.304688 37.488281 63.269531 C 37.523438 63.238281 37.546875 63.179688 37.546875 63.125 Z M 41.933594 53.507812 L 41.933594 36.453125 L 39.496094 36.453125 L 39.496094 53.507812 Z M 47.402344 26.824219 C 47.402344 26.769531 47.378906 26.710938 47.34375 26.679688 C 47.320312 26.644531 47.277344 26.621094 47.207031 26.621094 L 44.066406 26.621094 C 44.007812 26.621094 43.953125 26.644531 43.917969 26.679688 L 43.894531 26.703125 C 43.875 26.738281 43.851562 26.78125 43.851562 26.824219 L 43.851562 35.355469 C 43.855469 35.402344 43.863281 35.449219 43.863281 35.496094 C 43.863281 35.539062 43.859375 35.589844 43.851562 35.632812 L 43.851562 54.328125 C 43.855469 54.375 43.863281 54.421875 43.863281 54.46875 C 43.863281 54.511719 43.859375 54.5625 43.851562 54.605469 L 43.851562 63.125 C 43.851562 63.179688 43.875 63.238281 43.90625 63.269531 C 43.941406 63.304688 44 63.328125 44.054688 63.328125 L 47.199219 63.328125 C 47.253906 63.328125 47.3125 63.304688 47.34375 63.269531 C 47.378906 63.234375 47.402344 63.179688 47.402344 63.125 Z M 51.800781 53.507812 L 51.800781 36.453125 L 49.339844 36.453125 L 49.339844 53.507812 Z M 57.269531 26.824219 C 57.269531 26.769531 57.246094 26.710938 57.214844 26.679688 C 57.191406 26.644531 57.132812 26.621094 57.078125 26.621094 L 53.933594 26.621094 C 53.878906 26.621094 53.820312 26.644531 53.785156 26.679688 L 53.765625 26.703125 C 53.742188 26.738281 53.71875 26.78125 53.71875 26.824219 L 53.71875 63.125 C 53.71875 63.179688 53.742188 63.238281 53.777344 63.269531 C 53.8125 63.304688 53.867188 63.328125 53.921875 63.328125 L 57.066406 63.328125 C 57.121094 63.328125 57.179688 63.304688 57.214844 63.269531 C 57.246094 63.238281 57.269531 63.179688 57.269531 63.125 Z M 25.273438 14.476562 C 25.601562 14.769531 25.90625 15.085938 26.113281 15.414062 C 26.28125 15.695312 26.398438 16.011719 26.398438 16.363281 C 26.398438 16.710938 26.296875 17.027344 26.125 17.300781 C 25.933594 17.625 25.625 17.929688 25.273438 18.246094 C 24.878906 18.597656 24.84375 19.207031 25.195312 19.601562 C 25.546875 19.996094 26.160156 20.03125 26.554688 19.679688 C 27.03125 19.25 27.453125 18.8125 27.769531 18.292969 C 28.109375 17.726562 28.324219 17.09375 28.324219 16.363281 C 28.324219 15.628906 28.097656 14.984375 27.746094 14.410156 C 27.417969 13.890625 27 13.449219 26.554688 13.054688 C 26.203125 12.75 25.910156 12.433594 25.707031 12.109375 C 25.535156 11.835938 25.433594 11.53125 25.433594 11.171875 C 25.433594 10.820312 25.535156 10.503906 25.71875 10.222656 C 25.921875 9.882812 26.226562 9.578125 26.558594 9.285156 C 26.953125 8.9375 26.988281 8.324219 26.636719 7.929688 C 26.285156 7.535156 25.671875 7.503906 25.277344 7.851562 C 24.847656 8.246094 24.414062 8.6875 24.085938 9.21875 C 23.734375 9.78125 23.507812 10.4375 23.507812 11.171875 C 23.507812 11.902344 23.710938 12.535156 24.0625 13.101562 C 24.375 13.609375 24.796875 14.058594 25.273438 14.476562 Z M 35.140625 14.476562 C 35.46875 14.769531 35.773438 15.085938 35.980469 15.414062 C 36.148438 15.695312 36.265625 16.011719 36.265625 16.363281 C 36.265625 16.710938 36.160156 17.027344 35.992188 17.300781 C 35.800781 17.625 35.492188 17.929688 35.140625 18.246094 C 34.746094 18.597656 34.710938 19.207031 35.0625 19.601562 C 35.414062 19.996094 36.027344 20.03125 36.421875 19.679688 C 36.898438 19.25 37.320312 18.8125 37.636719 18.292969 C 37.976562 17.726562 38.191406 17.09375 38.191406 16.363281 C 38.191406 15.628906 37.964844 14.984375 37.613281 14.410156 C 37.285156 13.890625 36.867188 13.449219 36.421875 13.054688 C 36.070312 12.75 35.777344 12.433594 35.574219 12.109375 C 35.402344 11.835938 35.300781 11.53125 35.300781 11.171875 C 35.300781 10.820312 35.402344 10.503906 35.585938 10.222656 C 35.789062 9.882812 36.09375 9.578125 36.425781 9.285156 C 36.820312 8.9375 36.855469 8.324219 36.503906 7.929688 C 36.152344 7.535156 35.539062 7.503906 35.144531 7.851562 C 34.699219 8.246094 34.28125 8.6875 33.953125 9.21875 C 33.601562 9.78125 33.375 10.4375 33.375 11.171875 C 33.375 11.902344 33.578125 12.535156 33.929688 13.101562 C 34.246094 13.609375 34.664062 14.058594 35.140625 14.476562 Z M 44.996094 14.476562 C 45.324219 14.769531 45.632812 15.085938 45.835938 15.414062 C 46.007812 15.695312 46.121094 16.011719 46.121094 16.363281 C 46.121094 16.710938 46.019531 17.027344 45.847656 17.300781 C 45.65625 17.625 45.347656 17.929688 45 18.246094 C 44.601562 18.597656 44.566406 19.207031 44.917969 19.601562 C 45.269531 19.996094 45.882812 20.03125 46.28125 19.679688 C 46.757812 19.25 47.175781 18.8125 47.492188 18.292969 C 47.832031 17.726562 48.050781 17.09375 48.050781 16.363281 C 48.050781 15.628906 47.824219 14.984375 47.46875 14.410156 C 47.140625 13.890625 46.722656 13.449219 46.28125 13.054688 C 45.929688 12.75 45.632812 12.433594 45.429688 12.109375 C 45.257812 11.835938 45.15625 11.53125 45.15625 11.171875 C 45.15625 10.820312 45.257812 10.503906 45.441406 10.222656 C 45.644531 9.882812 45.949219 9.578125 46.28125 9.285156 C 46.679688 8.9375 46.710938 8.324219 46.359375 7.929688 C 46.007812 7.535156 45.394531 7.503906 45 7.851562 C 44.558594 8.246094 44.136719 8.6875 43.808594 9.21875 C 43.457031 9.78125 43.230469 10.4375 43.230469 11.171875 C 43.230469 11.902344 43.433594 12.535156 43.785156 13.101562 C 44.101562 13.609375 44.523438 14.058594 44.996094 14.476562 Z M 54.867188 14.476562 C 55.195312 14.769531 55.5 15.085938 55.707031 15.414062 C 55.875 15.695312 55.988281 16.011719 55.988281 16.363281 C 55.988281 16.710938 55.886719 17.027344 55.71875 17.300781 C 55.523438 17.625 55.21875 17.929688 54.867188 18.246094 C 54.46875 18.597656 54.4375 19.207031 54.789062 19.601562 C 55.136719 19.996094 55.753906 20.03125 56.148438 19.679688 C 56.625 19.25 57.042969 18.8125 57.363281 18.292969 C 57.703125 17.726562 57.917969 17.09375 57.917969 16.363281 C 57.917969 15.628906 57.691406 14.984375 57.339844 14.410156 C 57.011719 13.890625 56.589844 13.449219 56.148438 13.054688 C 55.796875 12.75 55.5 12.433594 55.296875 12.109375 C 55.128906 11.835938 55.027344 11.53125 55.027344 11.171875 C 55.027344 10.820312 55.128906 10.503906 55.308594 10.222656 C 55.511719 9.882812 55.820312 9.578125 56.148438 9.285156 C 56.546875 8.9375 56.578125 8.324219 56.230469 7.929688 C 55.878906 7.535156 55.265625 7.503906 54.867188 7.851562 C 54.425781 8.246094 54.007812 8.6875 53.675781 9.21875 C 53.328125 9.78125 53.097656 10.4375 53.097656 11.171875 C 53.097656 11.902344 53.300781 12.535156 53.65625 13.101562 C 53.96875 13.609375 54.386719 14.058594 54.867188 14.476562 Z M 54.867188 14.476562 " fill-opacity="1" fill-rule="nonzero"></path></g></svg>