<svg xmlns="http://www.w3.org/2000/svg" xmlns:xlink="http://www.w3.org/1999/xlink" width="100" zoomAndPan="magnify" viewBox="0 0 75 74.999997" height="100" preserveAspectRatio="xMidYMid meet" version="1.0"><defs><clipPath id="1c9967e792"><path d="M 15.675781 7.5 L 59.175781 7.5 L 59.175781 67.5 L 15.675781 67.5 Z M 15.675781 7.5 " clip-rule="nonzero"></path></clipPath></defs><g clip-path="url(#1c9967e792)"><path fill="#d10a38" d="M 19.992188 22.4375 L 54.828125 22.4375 C 55.597656 22.4375 56.21875 23.058594 56.21875 23.832031 L 56.21875 59.105469 C 56.21875 59.882812 55.597656 60.507812 54.828125 60.507812 L 19.992188 60.507812 C 19.226562 60.507812 18.601562 59.882812 18.601562 59.105469 L 18.601562 23.832031 C 18.601562 23.058594 19.226562 22.4375 19.992188 22.4375 Z M 19.992188 10.296875 L 54.828125 10.296875 C 55.597656 10.296875 56.21875 10.925781 56.21875 11.699219 L 56.21875 18.238281 C 56.21875 19.011719 55.597656 19.632812 54.828125 19.640625 L 19.992188 19.640625 C 19.226562 19.632812 18.601562 19.011719 18.601562 18.238281 L 18.601562 11.699219 C 18.601562 10.925781 19.226562 10.296875 19.992188 10.296875 Z M 19.992188 7.5 C 17.683594 7.5 15.8125 9.378906 15.8125 11.699219 L 15.8125 59.105469 C 15.8125 61.421875 17.683594 63.308594 19.992188 63.308594 L 28.214844 63.308594 L 28.214844 67.5 L 31.003906 67.5 L 31.003906 63.308594 L 43.808594 63.308594 L 43.808594 67.5 L 46.601562 67.5 L 46.601562 63.308594 L 54.828125 63.308594 C 57.136719 63.308594 59.007812 61.425781 59.011719 59.109375 C 59.011719 59.109375 59.011719 59.105469 59.011719 59.105469 L 59.011719 11.699219 C 59.011719 9.378906 57.136719 7.5 54.828125 7.5 L 19.992188 7.5 " fill-opacity="1" fill-rule="nonzero"></path></g><path fill="#d10a38" d="M 37.671875 42 C 37.109375 40.222656 37.6875 38.277344 39.121094 37.089844 C 39.285156 36.953125 39.425781 36.785156 39.527344 36.601562 C 39.972656 35.757812 40.289062 34.851562 40.46875 33.921875 C 40.550781 33.527344 40.476562 33.117188 40.269531 32.769531 C 39.28125 31.109375 38.132812 29.542969 36.855469 28.09375 C 36.796875 28.023438 36.691406 28.011719 36.621094 28.070312 C 36.566406 28.113281 36.550781 28.1875 36.574219 28.253906 C 37.019531 29.53125 36.734375 30.953125 35.820312 31.949219 C 34.820312 33.046875 33.90625 34.21875 33.085938 35.449219 C 32.359375 36.542969 32.457031 37.988281 33.328125 38.96875 C 34.285156 40.046875 35.382812 40.988281 36.582031 41.78125 C 36.90625 41.992188 37.296875 42.070312 37.667969 42 L 37.671875 42 " fill-opacity="1" fill-rule="nonzero"></path><path fill="#d10a38" d="M 41.171875 34.382812 C 41.128906 34.304688 41.027344 34.273438 40.949219 34.316406 C 40.90625 34.335938 40.878906 34.375 40.863281 34.414062 C 40.65625 35.292969 40.332031 36.140625 39.898438 36.933594 C 39.796875 37.121094 39.65625 37.285156 39.488281 37.425781 C 38.171875 38.476562 37.636719 40.226562 38.132812 41.835938 C 38.171875 41.816406 38.207031 41.796875 38.242188 41.773438 C 39.394531 41.003906 40.445312 40.089844 41.363281 39.050781 C 42.160156 38.15625 42.351562 36.871094 41.851562 35.785156 C 41.632812 35.3125 41.40625 34.84375 41.167969 34.382812 L 41.171875 34.382812 " fill-opacity="1" fill-rule="nonzero"></path><path fill="#d10a38" d="M 29.140625 51.625 C 28.605469 51.625 28.171875 52.070312 28.171875 52.613281 C 28.179688 53.140625 28.609375 53.570312 29.140625 53.574219 L 45.679688 53.574219 C 46.214844 53.570312 46.644531 53.132812 46.644531 52.589844 C 46.640625 52.058594 46.210938 51.625 45.679688 51.625 L 29.140625 51.625 " fill-opacity="1" fill-rule="nonzero"></path></svg>