<svg xmlns="http://www.w3.org/2000/svg" xmlns:xlink="http://www.w3.org/1999/xlink" width="100" zoomAndPan="magnify" viewBox="0 0 75 74.999997" height="100" preserveAspectRatio="xMidYMid meet" version="1.0"><defs><g></g><clipPath id="7063e47f60"><path d="M 10.601562 9.453125 L 61.601562 9.453125 L 61.601562 65.703125 L 10.601562 65.703125 Z M 10.601562 9.453125 " clip-rule="nonzero"></path></clipPath></defs><g fill="#ffffff" fill-opacity="1"><g transform="translate(21.228515, 58.388749)"><g><path d="M 17.0625 -25.96875 C 19.550781 -25.96875 21.765625 -25.492188 23.703125 -24.546875 C 25.640625 -23.597656 27.160156 -22.207031 28.265625 -20.375 C 29.378906 -18.539062 29.9375 -16.28125 29.9375 -13.59375 C 29.9375 -10.664062 29.328125 -8.140625 28.109375 -6.015625 C 26.898438 -3.890625 25.09375 -2.257812 22.6875 -1.125 C 20.289062 0 17.304688 0.5625 13.734375 0.5625 C 11.597656 0.5625 9.585938 0.378906 7.703125 0.015625 C 5.828125 -0.347656 4.1875 -0.898438 2.78125 -1.640625 L 2.78125 -9.0625 C 4.1875 -8.320312 5.875 -7.695312 7.84375 -7.1875 C 9.820312 -6.675781 11.679688 -6.421875 13.421875 -6.421875 C 15.128906 -6.421875 16.566406 -6.644531 17.734375 -7.09375 C 18.898438 -7.550781 19.785156 -8.253906 20.390625 -9.203125 C 20.992188 -10.160156 21.296875 -11.382812 21.296875 -12.875 C 21.296875 -14.851562 20.628906 -16.367188 19.296875 -17.421875 C 17.960938 -18.484375 15.914062 -19.015625 13.15625 -19.015625 C 12.09375 -19.015625 10.988281 -18.910156 9.84375 -18.703125 C 8.707031 -18.503906 7.757812 -18.300781 7 -18.09375 L 3.59375 -19.9375 L 5.109375 -40.640625 L 27.15625 -40.640625 L 27.15625 -33.359375 L 12.65625 -33.359375 L 11.90625 -25.375 C 12.53125 -25.507812 13.210938 -25.640625 13.953125 -25.765625 C 14.691406 -25.898438 15.726562 -25.96875 17.0625 -25.96875 Z M 17.0625 -25.96875 "></path></g></g></g><g clip-path="url(#7063e47f60)"><path fill="#d10a38" d="M 59.898438 9.453125 L 19.535156 9.453125 C 18.609375 9.453125 17.851562 10.207031 17.851562 11.144531 L 17.851562 13.480469 L 13.121094 13.480469 C 11.738281 13.480469 10.609375 14.617188 10.609375 16.011719 L 10.609375 21.769531 C 10.609375 22.894531 11.363281 23.898438 12.441406 24.199219 L 36.582031 35.203125 C 36.9375 35.304688 37.183594 35.636719 37.183594 36.003906 L 37.183594 45.195312 C 36.535156 45.476562 36.082031 46.132812 36.082031 46.890625 L 36.082031 63.851562 C 36.082031 64.871094 36.90625 65.703125 37.921875 65.703125 C 38.9375 65.703125 39.761719 64.871094 39.761719 63.851562 L 39.761719 46.890625 C 39.761719 46.132812 39.304688 45.476562 38.65625 45.195312 L 38.65625 36.003906 C 38.65625 34.972656 37.96875 34.054688 36.980469 33.777344 L 12.839844 22.773438 C 12.394531 22.648438 12.085938 22.230469 12.085938 21.769531 L 12.085938 16.011719 C 12.085938 15.4375 12.546875 14.964844 13.121094 14.964844 L 17.851562 14.964844 L 17.851562 17.300781 C 17.851562 18.234375 18.605469 18.996094 19.535156 18.996094 L 35.941406 18.996094 C 36.203125 19.285156 36.554688 19.691406 36.617188 19.753906 C 37.695312 20.742188 36.503906 22.746094 37.3125 23.585938 C 38.125 24.425781 38.820312 23.140625 38.355469 21.882812 C 38.214844 21.5 38.003906 21.050781 37.808594 20.597656 C 38.324219 21.085938 38.71875 21.59375 38.890625 22.105469 C 39.664062 24.410156 37.730469 25.988281 39.351562 27.242188 C 40.972656 28.492188 41.363281 28.230469 41.132812 26.714844 C 40.898438 25.199219 39.664062 23.683594 40.515625 22.300781 C 40.671875 22.046875 40.78125 21.773438 40.871094 21.5 C 40.960938 21.222656 40.96875 20.949219 41.007812 20.667969 C 41.039062 20.453125 41.121094 20.21875 41.40625 20.160156 C 42.371094 19.960938 42.039062 21.546875 41.96875 21.949219 C 41.867188 22.507812 41.703125 23.058594 41.484375 23.59375 C 41.441406 23.691406 41.40625 23.785156 41.367188 23.863281 C 40.808594 25.117188 42.722656 26.253906 43.671875 24.984375 C 44.617188 23.714844 43.964844 22.152344 43.554688 20.753906 C 43.453125 20.394531 43.253906 19.796875 43.5 19.453125 C 43.53125 19.40625 43.578125 19.367188 43.632812 19.347656 C 43.972656 19.246094 44.3125 19.753906 44.429688 19.945312 C 44.667969 20.316406 44.820312 20.71875 44.941406 21.125 C 45.25 22.144531 45.375 23.441406 45.09375 24.59375 C 44.894531 25.390625 44.667969 25.972656 44.492188 26.425781 C 44.171875 27.222656 44.019531 27.605469 44.480469 28.039062 C 45.210938 28.714844 46.570312 29.335938 46.539062 27.410156 C 46.53125 26.550781 46.398438 26.1875 46.292969 25.867188 C 46.179688 25.5 46.085938 25.199219 46.222656 24.3125 C 46.238281 24.214844 46.257812 24.113281 46.28125 24 C 46.65625 21.976562 45.988281 20.886719 47.0625 21.878906 C 48.132812 22.867188 46.945312 24.867188 47.757812 25.707031 C 48.570312 26.546875 49.265625 25.257812 48.800781 24 C 48.335938 22.742188 47.144531 20.8125 48.046875 20.171875 C 48.945312 19.527344 49.550781 19.675781 49.46875 21.378906 C 49.378906 23.082031 50.3125 23.527344 50.714844 22.9375 C 51.121094 22.34375 49.617188 21.132812 50.136719 20.269531 C 50.660156 19.40625 52.082031 19.550781 51.90625 20.710938 C 51.730469 21.871094 51.210938 25.132812 52.136719 26 C 53.0625 26.863281 54.253906 26.097656 53.90625 25.109375 C 53.558594 24.121094 52.226562 23.257812 52.75 21.949219 C 53.265625 20.636719 54.691406 20.515625 55.328125 21.699219 C 55.96875 22.886719 54.171875 26.640625 54.492188 27.800781 C 54.808594 28.960938 56.167969 29.308594 56.75 27.949219 C 57.332031 26.59375 54.242188 21.378906 57.070312 19.898438 C 57.683594 19.578125 58.167969 19.28125 58.554688 19.003906 L 59.90625 19.003906 C 60.832031 19.003906 61.589844 18.25 61.589844 17.3125 L 61.589844 11.144531 C 61.578125 10.207031 60.828125 9.453125 59.898438 9.453125 Z M 59.898438 9.453125 " fill-opacity="1" fill-rule="nonzero"></path></g></svg>