<svg xmlns="http://www.w3.org/2000/svg" xmlns:xlink="http://www.w3.org/1999/xlink" width="100" zoomAndPan="magnify" viewBox="0 0 75 74.999997" height="100" preserveAspectRatio="xMidYMid meet" version="1.0"><defs><clipPath id="458c4fdb81"><path d="M 35 42 L 66 42 L 66 67.800781 L 35 67.800781 Z M 35 42 " clip-rule="nonzero"></path></clipPath><clipPath id="159be19baf"><path d="M 38 61 L 63 61 L 63 67.800781 L 38 67.800781 Z M 38 61 " clip-rule="nonzero"></path></clipPath><clipPath id="7cbb19b3e7"><path d="M 32 38 L 68.25 38 L 68.25 45 L 32 45 Z M 32 38 " clip-rule="nonzero"></path></clipPath><clipPath id="2f0fe43f79"><path d="M 13 44 L 25 44 L 25 67.800781 L 13 67.800781 Z M 13 44 " clip-rule="nonzero"></path></clipPath><clipPath id="b82535b6c3"><path d="M 7.5 7.050781 L 31 7.050781 L 31 40 L 7.5 40 Z M 7.5 7.050781 " clip-rule="nonzero"></path></clipPath></defs><g clip-path="url(#458c4fdb81)"><path fill="#d10a38" d="M 40.863281 65.707031 L 60.007812 65.707031 L 63.230469 44.761719 L 37.636719 44.761719 Z M 60.910156 67.800781 L 39.960938 67.800781 C 39.445312 67.804688 39.003906 67.433594 38.914062 66.921875 L 35.367188 43.878906 C 35.320312 43.578125 35.410156 43.265625 35.609375 43.039062 C 35.816406 42.808594 36.105469 42.671875 36.414062 42.679688 L 64.457031 42.679688 C 64.765625 42.671875 65.0625 42.808594 65.261719 43.039062 C 65.460938 43.265625 65.554688 43.578125 65.503906 43.878906 L 61.957031 66.910156 C 61.878906 67.429688 61.425781 67.804688 60.910156 67.800781 " fill-opacity="1" fill-rule="nonzero"></path></g><g clip-path="url(#159be19baf)"><path fill="#d10a38" d="M 40.863281 65.707031 L 60.007812 65.707031 L 60.332031 63.609375 L 40.539062 63.609375 Z M 60.910156 67.800781 L 39.960938 67.800781 C 39.445312 67.804688 39.003906 67.433594 38.914062 66.921875 L 38.269531 62.730469 C 38.21875 62.429688 38.304688 62.117188 38.507812 61.882812 C 38.707031 61.652344 38.996094 61.515625 39.304688 61.515625 L 61.558594 61.515625 C 61.863281 61.515625 62.15625 61.652344 62.355469 61.882812 C 62.554688 62.117188 62.644531 62.429688 62.597656 62.730469 L 61.945312 66.921875 C 61.863281 67.429688 61.421875 67.800781 60.910156 67.800781 " fill-opacity="1" fill-rule="nonzero"></path></g><g clip-path="url(#7cbb19b3e7)"><path fill="#d10a38" d="M 35.222656 42.667969 L 65.652344 42.667969 L 65.972656 40.574219 L 34.890625 40.574219 Z M 66.550781 44.761719 L 34.316406 44.761719 C 33.796875 44.765625 33.351562 44.386719 33.269531 43.871094 L 32.632812 39.683594 C 32.585938 39.378906 32.675781 39.070312 32.875 38.839844 C 33.082031 38.605469 33.371094 38.476562 33.679688 38.476562 L 67.1875 38.476562 C 67.5 38.476562 67.792969 38.605469 67.996094 38.839844 C 68.195312 39.070312 68.289062 39.378906 68.238281 39.683594 L 67.601562 43.871094 C 67.523438 44.386719 67.074219 44.765625 66.550781 44.761719 " fill-opacity="1" fill-rule="nonzero"></path></g><path fill="#d10a38" d="M 57.160156 20.992188 C 58.148438 24.941406 57.582031 29.113281 55.570312 32.65625 L 53.128906 36.929688 L 57.484375 34.648438 C 61.742188 32.394531 64.5 28.0625 64.753906 23.25 L 65.101562 16.578125 L 59.179688 19.722656 C 58.464844 20.082031 57.792969 20.507812 57.160156 20.992188 Z M 50.4375 40.574219 C 50.0625 40.570312 49.722656 40.375 49.535156 40.050781 C 49.347656 39.734375 49.339844 39.335938 49.523438 39.011719 L 53.714844 31.679688 C 55.570312 28.429688 56.007812 24.5625 54.929688 20.980469 C 54.832031 20.597656 54.949219 20.195312 55.242188 19.929688 C 56.136719 19.152344 57.125 18.484375 58.175781 17.945312 L 65.714844 13.984375 C 66.050781 13.8125 66.441406 13.828125 66.761719 14.027344 C 67.074219 14.226562 67.257812 14.585938 67.246094 14.957031 L 66.816406 23.460938 C 66.523438 29.011719 63.347656 34 58.441406 36.605469 L 50.894531 40.554688 C 50.75 40.597656 50.59375 40.601562 50.4375 40.574219 " fill-opacity="1" fill-rule="nonzero"></path><path fill="#d10a38" d="M 50.4375 12.296875 L 47.128906 18.089844 C 46.617188 18.972656 46.207031 19.921875 45.910156 20.90625 C 44.832031 24.488281 45.273438 28.359375 47.128906 31.605469 L 50.4375 37.429688 L 53.742188 31.636719 C 55.597656 28.390625 56.039062 24.519531 54.960938 20.9375 C 54.664062 19.957031 54.253906 19.007812 53.742188 18.121094 Z M 50.4375 40.574219 C 50.0625 40.574219 49.714844 40.375 49.523438 40.046875 L 45.339844 32.714844 C 43.207031 28.964844 42.703125 24.507812 43.933594 20.371094 C 44.28125 19.238281 44.746094 18.148438 45.339844 17.125 L 49.523438 9.796875 C 49.714844 9.464844 50.058594 9.261719 50.4375 9.261719 C 50.8125 9.261719 51.160156 9.464844 51.347656 9.796875 L 55.53125 17.179688 C 58.292969 22.011719 58.292969 27.9375 55.53125 32.769531 L 51.347656 40.152344 C 51.132812 40.441406 50.792969 40.597656 50.4375 40.574219 " fill-opacity="1" fill-rule="nonzero"></path><path fill="#d10a38" d="M 35.777344 16.578125 L 36.113281 23.25 C 36.371094 28.078125 39.152344 32.410156 43.441406 34.640625 L 47.789062 36.929688 L 45.308594 32.65625 C 43.289062 29.113281 42.722656 24.941406 43.710938 20.984375 C 43.085938 20.496094 42.410156 20.058594 41.703125 19.691406 Z M 50.4375 40.574219 C 50.269531 40.574219 50.101562 40.535156 49.957031 40.457031 L 42.421875 36.507812 C 37.511719 33.902344 34.332031 28.914062 34.046875 23.363281 L 33.621094 14.863281 C 33.601562 14.488281 33.785156 14.136719 34.101562 13.9375 C 34.417969 13.730469 34.816406 13.714844 35.144531 13.890625 L 42.695312 17.847656 C 43.75 18.390625 44.730469 19.0625 45.621094 19.835938 C 45.910156 20.101562 46.03125 20.507812 45.933594 20.882812 C 44.855469 24.464844 45.296875 28.335938 47.144531 31.589844 L 51.335938 38.96875 C 51.542969 39.296875 51.550781 39.707031 51.363281 40.039062 C 51.175781 40.375 50.820312 40.574219 50.4375 40.574219 " fill-opacity="1" fill-rule="nonzero"></path><g clip-path="url(#2f0fe43f79)"><path fill="#d10a38" d="M 16.820312 46.859375 L 15.292969 62.25 C 15.203125 63.136719 15.492188 64.019531 16.089844 64.675781 C 16.691406 65.335938 17.542969 65.707031 18.433594 65.703125 L 19.644531 65.703125 C 20.535156 65.703125 21.375 65.320312 21.96875 64.65625 C 22.574219 63.996094 22.867188 63.113281 22.777344 62.230469 L 21.21875 46.851562 Z M 19.625 67.800781 L 18.410156 67.800781 C 16.925781 67.804688 15.507812 67.183594 14.511719 66.085938 C 13.511719 64.988281 13.027344 63.519531 13.171875 62.039062 L 14.828125 45.691406 C 14.882812 45.152344 15.335938 44.75 15.875 44.75 L 22.160156 44.75 C 22.699219 44.75 23.15625 45.152344 23.210938 45.691406 L 24.839844 62.027344 C 24.992188 63.507812 24.503906 64.980469 23.507812 66.074219 C 22.507812 67.175781 21.089844 67.792969 19.609375 67.789062 L 19.625 67.800781 " fill-opacity="1" fill-rule="nonzero"></path></g><path fill="#d10a38" d="M 14.828125 42.667969 C 14.253906 42.667969 13.78125 43.136719 13.78125 43.714844 C 13.78125 44.289062 14.253906 44.761719 14.828125 44.761719 L 23.210938 44.761719 C 23.789062 44.761719 24.257812 44.289062 24.257812 43.714844 C 24.257812 43.136719 23.789062 42.667969 23.210938 42.667969 Z M 23.210938 46.859375 L 14.828125 46.859375 C 13.707031 46.859375 12.671875 46.257812 12.109375 45.28125 C 11.550781 44.3125 11.550781 43.113281 12.109375 42.144531 C 12.671875 41.171875 13.707031 40.574219 14.828125 40.574219 L 23.210938 40.574219 C 24.332031 40.574219 25.367188 41.171875 25.929688 42.144531 C 26.488281 43.113281 26.488281 44.3125 25.929688 45.28125 C 25.367188 46.257812 24.332031 46.859375 23.210938 46.859375 " fill-opacity="1" fill-rule="nonzero"></path><path fill="#d10a38" d="M 16.921875 40.574219 L 21.113281 40.574219 L 21.113281 36.382812 C 21.113281 35.632812 20.714844 34.945312 20.066406 34.566406 C 19.417969 34.195312 18.621094 34.195312 17.972656 34.566406 C 17.320312 34.945312 16.921875 35.632812 16.921875 36.382812 Z M 22.160156 42.667969 L 15.875 42.667969 C 15.296875 42.667969 14.828125 42.199219 14.828125 41.621094 L 14.828125 36.382812 C 14.828125 34.882812 15.628906 33.503906 16.921875 32.753906 C 18.222656 32.011719 19.816406 32.011719 21.113281 32.753906 C 22.40625 33.503906 23.210938 34.882812 23.210938 36.382812 L 23.210938 41.621094 C 23.210938 41.894531 23.097656 42.164062 22.902344 42.359375 C 22.703125 42.554688 22.4375 42.667969 22.160156 42.667969 " fill-opacity="1" fill-rule="nonzero"></path><g clip-path="url(#b82535b6c3)"><path fill="#d10a38" d="M 23.101562 35.460938 C 24.925781 35.785156 26.714844 36.28125 28.441406 36.941406 L 28.441406 24.476562 C 28.441406 21.613281 27.375 18.855469 25.449219 16.738281 L 19.019531 9.660156 L 12.589844 16.738281 C 10.664062 18.855469 9.597656 21.613281 9.59375 24.476562 L 9.59375 36.941406 C 11.324219 36.277344 13.113281 35.78125 14.9375 35.449219 C 15.21875 34.207031 16.054688 33.160156 17.203125 32.609375 C 18.351562 32.054688 19.6875 32.054688 20.835938 32.609375 C 21.988281 33.160156 22.824219 34.207031 23.101562 35.449219 Z M 29.492188 39.523438 C 29.359375 39.527344 29.222656 39.5 29.105469 39.453125 C 26.847656 38.476562 24.46875 37.796875 22.035156 37.429688 C 21.507812 37.367188 21.105469 36.917969 21.113281 36.382812 C 21.113281 35.632812 20.714844 34.945312 20.066406 34.566406 C 19.417969 34.195312 18.621094 34.195312 17.972656 34.566406 C 17.320312 34.945312 16.921875 35.632812 16.921875 36.382812 C 16.925781 36.917969 16.535156 37.367188 16.003906 37.429688 C 13.566406 37.796875 11.195312 38.476562 8.933594 39.453125 C 8.609375 39.582031 8.25 39.539062 7.957031 39.34375 C 7.671875 39.152344 7.5 38.828125 7.5 38.476562 L 7.5 24.476562 C 7.5 21.089844 8.761719 17.824219 11.039062 15.324219 L 18.242188 7.394531 C 18.441406 7.179688 18.722656 7.054688 19.019531 7.054688 C 19.316406 7.054688 19.597656 7.179688 19.796875 7.394531 L 26.996094 15.324219 C 29.277344 17.824219 30.539062 21.089844 30.539062 24.476562 L 30.539062 38.476562 C 30.539062 38.828125 30.367188 39.152344 30.078125 39.34375 C 29.902344 39.464844 29.699219 39.523438 29.492188 39.523438 " fill-opacity="1" fill-rule="nonzero"></path></g><path fill="#d10a38" d="M 19.019531 34.285156 C 18.441406 34.285156 17.972656 33.824219 17.972656 33.238281 L 17.972656 24.863281 C 17.972656 24.285156 18.441406 23.816406 19.019531 23.816406 C 19.597656 23.816406 20.066406 24.285156 20.066406 24.863281 L 20.066406 33.238281 C 20.066406 33.519531 19.957031 33.785156 19.757812 33.984375 C 19.566406 34.179688 19.296875 34.285156 19.019531 34.285156 " fill-opacity="1" fill-rule="nonzero"></path></svg>